<?xml version="1.0" encoding="UTF-8"?>
<svg width="41px" height="33px" viewBox="0 0 41 33" version="1.1" xmlns="http://www.w3.org/2000/svg" xmlns:xlink="http://www.w3.org/1999/xlink">
    <title>Behance</title>
    <defs>
        <path d="M16.71,20.3916667 C16.71,20.0783333 16.6566667,19.7766667 16.5483333,19.4883333 C16.4416667,19.2 16.2966667,18.95 16.1166667,18.735 C15.935,18.52 15.72,18.35 15.4733333,18.2266667 C15.225,18.1033333 14.9533333,18.0416667 14.6566667,18.0416667 L9.41333333,18.0416667 L9.41333333,22.6666667 L14.485,22.6666667 C14.7983333,22.6666667 15.09,22.6083333 15.3616667,22.4933333 C15.6333333,22.3783333 15.87,22.2183333 16.0666667,22.0116667 C16.265,21.8066667 16.4216667,21.5616667 16.5366667,21.2816667 C16.6516667,21.0016667 16.71,20.7033333 16.71,20.3916667 L16.71,20.3916667 Z M9.41333333,10.9183333 L9.41333333,15.3466667 L13.965,15.3466667 C14.5416667,15.3466667 15.0316667,15.1483333 15.4366667,14.7516667 C15.84,14.3566667 16.0416667,13.8133333 16.0416667,13.12 C16.0416667,12.4433333 15.8566667,11.9083333 15.485,11.5133333 C15.115,11.1183333 14.6566667,10.9183333 14.1133333,10.9183333 L9.41333333,10.9183333 Z M20.1483333,21.035 C20.1483333,21.7766667 20,22.4283333 19.7033333,22.9883333 C19.405,23.55 18.9983333,24.02 18.4783333,24.3966667 C17.9583333,24.7783333 17.3566667,25.0666667 16.6733333,25.2633333 C15.9883333,25.4616667 15.2583333,25.5616667 14.485,25.5616667 L6,25.5616667 L6,8 L15.3983333,8 C16.01,8 16.5616667,8.13333333 17.0566667,8.39666667 C17.55,8.66 17.9716667,9.00166667 18.3166667,9.42333333 C18.6633333,9.84333333 18.9316667,10.3216667 19.1216667,10.8566667 C19.3116667,11.3933333 19.405,11.9333333 19.405,12.4766667 C19.405,13.335 19.1916667,14.1383333 18.7633333,14.8883333 C18.3333333,15.6383333 17.7083333,16.195 16.8833333,16.5566667 C17.8883333,16.855 18.685,17.3866667 19.27,18.1533333 C19.855,18.92 20.1483333,19.88 20.1483333,21.035 L20.1483333,21.035 Z" id="path-1"></path>
        <filter x="-35.3%" y="-28.5%" width="199.0%" height="179.7%" filterUnits="objectBoundingBox" id="filter-2">
            <feOffset dx="2" dy="2" in="SourceAlpha" result="shadowOffsetOuter1"></feOffset>
            <feGaussianBlur stdDeviation="2" in="shadowOffsetOuter1" result="shadowBlurOuter1"></feGaussianBlur>
            <feColorMatrix values="0 0 0 0 0.2   0 0 0 0 0.2   0 0 0 0 0.2  0 0 0 0.702305507 0" type="matrix" in="shadowBlurOuter1"></feColorMatrix>
        </filter>
        <path d="M30.8001667,17.9876667 C30.7201667,17.046 30.3735,16.2893333 29.7585,15.7243333 C29.1418333,15.156 28.3951667,14.8726667 27.5168333,14.8726667 C27.0851667,14.8726667 26.6818333,14.9493333 26.3068333,15.101 C25.9318333,15.251 25.6001667,15.4626667 25.3118333,15.7343333 C25.0251667,16.0076667 24.7885,16.3343333 24.6051667,16.7176667 C24.4218333,17.101 24.3135,17.5243333 24.2818333,17.9876667 L30.8001667,17.9876667 Z M27.5401667,25.561 C26.5335,25.561 25.6235,25.3876667 24.8085,25.0443333 C23.1951667,24.3576667 22.0551667,23.2043333 21.3935,21.5826667 C21.0818333,20.7993333 20.9268333,19.976 20.9268333,19.1143333 C20.9268333,18.2193333 21.0785,17.3776667 21.3818333,16.586 C22.0318333,14.9443333 23.1701667,13.7743333 24.7968333,13.076 C25.6201667,12.7243333 26.5418333,12.5476667 27.5651667,12.5476667 C28.5868333,12.5476667 29.5018333,12.7243333 30.3085,13.076 C32.9601667,14.231 34.2101667,16.801 34.0951667,19.5926667 C34.0868333,19.7843333 34.0668333,19.946 34.0351667,20.0726667 L24.3301667,20.0726667 C24.3768333,20.5676667 24.4968333,21.0076667 24.6885,21.391 C24.8801667,21.7726667 25.1285,22.1026667 25.4318333,22.3726667 C25.7351667,22.6443333 26.0785,22.8526667 26.4618333,22.996 C26.8451667,23.141 27.2451667,23.2126667 27.6601667,23.2126667 C28.3001667,23.2126667 28.9018333,23.056 29.4701667,22.7443333 C30.0368333,22.4326667 30.4235,22.0226667 30.6318333,21.5093333 L33.3885,22.2776667 C32.9235,23.236 32.1868333,24.0226667 31.1718333,24.6376667 C30.1568333,25.2526667 28.9468333,25.561 27.5401667,25.561 L27.5401667,25.561 Z" id="path-3"></path>
        <filter x="-37.9%" y="-38.4%" width="206.3%" height="207.6%" filterUnits="objectBoundingBox" id="filter-4">
            <feOffset dx="2" dy="2" in="SourceAlpha" result="shadowOffsetOuter1"></feOffset>
            <feGaussianBlur stdDeviation="2" in="shadowOffsetOuter1" result="shadowBlurOuter1"></feGaussianBlur>
            <feColorMatrix values="0 0 0 0 0.2   0 0 0 0 0.2   0 0 0 0 0.2  0 0 0 0.702305507 0" type="matrix" in="shadowBlurOuter1"></feColorMatrix>
        </filter>
        <polygon id="path-5" points="23.3155 10.919 31.7188333 10.919 31.7188333 8.834 23.3155 8.834"></polygon>
        <filter x="-59.5%" y="-239.8%" width="266.6%" height="771.5%" filterUnits="objectBoundingBox" id="filter-6">
            <feOffset dx="2" dy="2" in="SourceAlpha" result="shadowOffsetOuter1"></feOffset>
            <feGaussianBlur stdDeviation="2" in="shadowOffsetOuter1" result="shadowBlurOuter1"></feGaussianBlur>
            <feColorMatrix values="0 0 0 0 0.2   0 0 0 0 0.2   0 0 0 0 0.2  0 0 0 0.702305507 0" type="matrix" in="shadowBlurOuter1"></feColorMatrix>
        </filter>
    </defs>
    <g id="Symbols" stroke="none" stroke-width="1" fill="none" fill-rule="evenodd">
        <g id="MainBtn" transform="translate(-10.000000, -26.000000)">
            <g id="Behance" transform="translate(10.000000, 26.000000)">
                <rect id="Rectangle" fill="#4B4B4B" x="0" y="0" width="40" height="33" rx="6"></rect>
                <g id="Fill-4">
                    <use fill="black" fill-opacity="1" filter="url(#filter-2)" xlink:href="#path-1"></use>
                    <use fill="#B0B0B0" fill-rule="evenodd" xlink:href="#path-1"></use>
                </g>
                <g id="Fill-6">
                    <use fill="black" fill-opacity="1" filter="url(#filter-4)" xlink:href="#path-3"></use>
                    <use fill="#B0B0B0" fill-rule="evenodd" xlink:href="#path-3"></use>
                </g>
                <g id="Fill-8">
                    <use fill="black" fill-opacity="1" filter="url(#filter-6)" xlink:href="#path-5"></use>
                    <use fill="#B0B0B0" fill-rule="evenodd" xlink:href="#path-5"></use>
                </g>
            </g>
        </g>
    </g>
</svg>