<svg width="828" height="244" viewBox="0 0 828 244" fill="none" xmlns="http://www.w3.org/2000/svg">
<path d="M877.768 198.315H786.778C770.668 198.315 761.122 193.848 761.122 182.234C761.122 170.62 772.458 165.558 787.673 165.558C802.888 165.558 809.749 164.366 809.749 150.072C809.749 135.778 797.816 133.396 787.673 133.396H574.07C566.015 135.282 549.905 134.409 549.905 115.826C549.905 97.2442 566.015 96.3707 574.07 98.2567H680.573C687.912 98.2567 706.229 98.2567 706.229 79.966C706.229 61.3838 689.305 60.7349 680.573 60.7349H655.725C647.173 60.7349 630.069 56.5063 630.069 39.5918C630.069 19 647.068 19 655.725 19H709.273C715.935 19.397 729.261 19 729.261 19H929.467C935.334 19.1985 947.068 20.8457 947.068 33.8457C947.068 44.8457 934.569 47.0365 929.467 47.0365H873.293C866.929 47.7314 854.2 52.7541 854.2 67.2863C854.2 81.8186 866.929 87.6355 873.293 88.7274H1066.39C1071.96 87.9332 1083.1 90.7523 1083.1 108.382C1083.1 126.011 1071.96 129.426 1066.39 128.929H861.36C856.786 129.128 847.637 132.443 847.637 144.117C847.637 155.79 856.786 160.694 861.36 161.686H877.768C885.326 160.793 900.441 163.056 900.441 179.256C900.441 195.456 885.326 198.712 877.768 198.315Z" fill="#E6EDF6"/>
<path d="M-193.699 51.031H-102.709C-86.5996 51.031 -77.0531 55.4979 -77.0531 67.1118C-77.0531 78.7256 -88.3896 83.7881 -103.604 83.7881C-118.819 83.7881 -125.681 84.9793 -125.681 99.2733C-125.681 113.567 -113.748 115.95 -103.604 115.95H109.999C118.054 114.064 134.163 114.937 134.163 133.519C134.163 152.102 118.054 152.975 109.999 151.089H3.49548C-3.84302 151.089 -22.1607 151.089 -22.1607 169.38C-22.1607 187.962 -5.23663 188.611 3.49548 188.611H248.344C256.896 188.611 274 192.839 274 209.754C274 226.669 256.896 228.912 248.344 227.919H74.7959C68.1333 227.522 54.8079 230.659 54.8079 244H-475.399C-481.266 243.801 -493 239.593 -493 224.346C-493 209.099 -481.266 203.302 -475.399 202.309H-189.225C-182.86 201.614 -170.132 196.592 -170.132 182.059C-170.132 167.527 -182.86 161.71 -189.225 160.618H-382.32C-387.889 161.412 -399.027 158.593 -399.027 140.964C-399.027 123.335 -387.889 119.92 -382.32 120.416H-177.291C-172.717 120.218 -163.568 116.903 -163.568 105.229C-163.568 93.5557 -172.717 88.652 -177.291 87.6594H-193.699C-201.257 88.5528 -216.372 86.2895 -216.372 70.0897C-216.372 53.8898 -201.257 50.634 -193.699 51.031Z" fill="#E6EDF6"/>
</svg>
