<svg width="1920" height="308" viewBox="0 0 1920 308" fill="none" xmlns="http://www.w3.org/2000/svg">
<path d="M1697.87 307.397H1782.35C1797.31 307.397 1806.17 303.236 1806.17 292.419C1806.17 281.602 1795.64 276.887 1781.52 276.887C1767.39 276.887 1761.02 275.778 1761.02 262.464C1761.02 249.151 1772.1 246.932 1781.52 246.932L1979.83 246.932C1987.31 248.689 2002.26 247.875 2002.26 230.568C2002.26 213.26 1987.31 212.447 1979.83 214.203L1880.95 214.203C1873.01 215.96 1857.13 215.146 1857.13 197.839C1857.13 180.532 1873.01 178.239 1880.95 179.256L2108.27 179.256C2116.21 179.256 2132.09 175.317 2132.09 159.563C2132.09 143.809 2116.21 141.72 2108.27 142.644L1947.15 142.644C1940.96 143.014 1928.59 140.647 1928.59 128.221C1928.59 115.796 1940.96 112.504 1947.15 112.412L2219.89 112.412C2226.26 113.799 2239 112.745 2239 97.4342C2239 82.1238 2226.26 79.4057 2219.89 79.9604L1956.01 79.9604C1948.72 82.1793 1934.13 81.7355 1934.13 62.2093C1934.13 42.683 1948.72 41.3147 1956.01 43.0713H2117.13C2125.26 44.643 2141.51 42.6276 2141.51 21.9919C2141.51 1.35614 2125.5 -0.0742188 2117.13 0.0802917L1779.58 0.0802917C1769.5 -0.574219 1752.99 2.42578 1752.99 21.9919C1752.99 44.4027 1738.59 48.5261 1731.39 47.7865H1676.82C1669.16 47.9714 1653.83 52.0578 1653.83 66.9244C1653.83 81.791 1669.16 86.2473 1676.82 86.6171L1752.99 86.6171C1759.82 86.8945 1773.49 91.4987 1773.49 107.697C1773.49 123.895 1759.82 127.759 1752.99 127.667L1436.34 127.667C1430.89 127.852 1420 131.772 1420 145.972C1420 160.173 1430.89 165.573 1436.34 166.497L1702.03 166.497C1707.94 167.144 1719.75 171.823 1719.75 185.358C1719.75 198.893 1707.94 204.311 1702.03 205.328L1522.76 205.328C1517.59 204.588 1507.25 207.214 1507.25 223.634C1507.25 240.054 1517.59 243.234 1522.76 242.772L1713.11 242.772C1717.35 242.957 1725.85 246.045 1725.85 256.917C1725.85 267.79 1717.35 272.357 1713.11 273.281H1697.87C1690.86 272.449 1676.82 274.557 1676.82 289.646C1676.82 304.734 1690.86 307.767 1697.87 307.397Z" fill="#E6EDF6"/>
<path d="M239.699 248.969H148.709C132.6 248.969 123.053 244.502 123.053 232.888C123.053 221.274 134.39 216.212 149.604 216.212C164.819 216.212 171.681 215.021 171.681 200.727C171.681 186.433 159.748 184.05 149.604 184.05L-63.9987 184.05C-72.0536 185.936 -88.1632 185.063 -88.1632 166.481C-88.1632 147.898 -72.0536 147.025 -63.9987 148.911L42.5045 148.911C49.843 148.911 68.1607 148.911 68.1607 130.62C68.1607 112.038 51.2366 111.389 42.5045 111.389L-202.344 111.389C-210.896 111.389 -228 107.161 -228 90.246C-228 73.3315 -210.896 71.0881 -202.344 72.0808L-28.7959 72.0808C-22.1333 72.4778 -8.80794 69.3411 -8.80794 56L521.399 56C527.266 56.1985 539 60.4073 539 75.6543C539 90.9012 527.266 96.6982 521.399 97.6908L235.225 97.6908C228.86 98.3857 216.132 103.408 216.132 117.941C216.132 132.473 228.86 138.29 235.225 139.382L428.32 139.382C433.889 138.588 445.027 141.407 445.027 159.036C445.027 176.665 433.889 180.08 428.32 179.584L223.291 179.584C218.717 179.782 209.568 183.097 209.568 194.771C209.568 206.444 218.717 211.348 223.291 212.341H239.699C247.257 211.447 262.372 213.71 262.372 229.91C262.372 246.11 247.257 249.366 239.699 248.969Z" fill="#E6EDF6"/>
</svg>
