<svg width="1920" height="970" fill="none" xmlns="http://www.w3.org/2000/svg"><g clip-path="url(#clip0_1277_2527)"><path fill="#F8EDE1" d="M0 0h1920v1593H0z"/><g filter="url(#filter0_i_1277_2527)"><path fill-rule="evenodd" clip-rule="evenodd" d="M1403.27.029h84.48c7.01-.37 21.05 2.663 21.05 17.751 0 15.088-14.04 17.196-21.05 16.364h-15.24c-4.24.925-12.74 5.492-12.74 16.365 0 10.872 8.5 13.96 12.74 14.145h190.35c5.17-.462 15.51 2.718 15.51 19.138s-10.34 19.046-15.51 18.306h-179.27c-5.91 1.017-17.72 6.435-17.72 19.97s11.81 18.213 17.72 18.861h265.69c5.45.924 16.34 6.323 16.34 20.524s-10.89 18.121-16.34 18.306h-316.65c-6.83-.092-20.5 3.772-20.5 19.97s13.67 20.802 20.5 21.08h76.17c7.66.369 22.99 4.826 22.99 19.692 0 14.867-15.33 18.953-22.99 19.138h-54.57c-18.11 0-21.6 20.384-21.6 42.795 0 19.566-16.51 22.566-26.59 21.911h-137.8c-3.35 1.922-7.12 5.46-7.12 11.155 0 6.424 3.09 10.165 6.5 12.152h332.05c8.1-1.29 24.29 1.272 24.29 21.841 0 20.568-16.19 22.577-24.29 21.011h-80.84c-7.27-1.751-21.81-.387-21.81 19.076s14.54 19.905 21.81 17.693h233.27c6.35-.553 19.05 2.157 19.05 17.417 0 15.261-12.7 16.311-19.05 14.929H1570c-6.17.092-18.5 3.373-18.5 15.758 0 12.386 12.33 14.745 18.5 14.376h60.83c7.92-.921 23.75 1.161 23.75 16.864 0 15.703-15.83 19.629-23.75 19.629h-266.82c-7.91-1.014-23.74 1.272-23.74 18.523s15.83 18.062 23.74 16.311h98.57c7.45-1.751 22.36-.94 22.36 16.311 0 17.252-14.91 18.063-22.36 16.312H1314.9c-9.39 0-20.43 2.211-20.43 15.482 0 13.27 6.35 14.375 20.43 14.375s24.57 4.7 24.57 15.482-8.84 14.929-23.74 14.929h-28.1c-3.42 4.702-5.51 10.381-5.51 16.852 0 19.501 21.5 29.063 34.21 29.063h102.89c7.23 0 12.19 4.965 12.19 15.799 0 8.668-12.94 10.233-19.41 9.932h-79.42c-6.17 0-18.51 2.708-18.51 13.543 0 10.834 12.34 14.144 18.51 14.445h393.76c8.28 0 24.83 4.515 24.83 22.572s-14.75 24.678-22.12 25.731h-226.54c-9.48-.752-28.44 2.528-28.44 21.668 0 19.141 18.96 23.023 28.44 22.572h189.54c4.06-.151 12.18 2.076 12.18 12.188s-8.12 11.135-12.18 10.383h-152.99c-4.81-.752-14.44.632-14.44 12.189 0 11.556 9.63 13.241 14.44 12.639h56.86c6.92-.15 20.76 3.792 20.76 20.766 0 16.974-13.84 19.411-20.76 18.509h-232.3c-9.93 0-28.33 11.285-28.33 37.017 0 20.585 19.55 30.851 29.33 33.401h181.87c3.61 0 24.59 1.58 24.59 20.77 0 15.35-16.39 18.73-24.59 18.51h-75.82c-6.24.22-18.73 4.29-18.73 18.73 0 14.45 14.74 17.46 22.12 17.16h152.43c13.54 0 48.74 13.99 48.74 47.4 0 33.4-34.75 37.24-47.16 37.24-12.41 0-32.5 3.61-32.5 33.86 0 24.19 19.11 32.05 28.66 32.95h151.52c28.16 0 59.37 6.96 59.37 47.96 0 36.5-39.5 40.75-54.86 40.75h-43.39c-4.97 0-24.82 3.16-24.82 23.7 0 21.73 12.96 25.32 21.67 27.74 1.14.32 2.2.61 3.15.92h173.65c27.08 0 29.63 27.09 27.53 40.63v2614.85c0 47.67.07 66.91.07 66.91-278.94 0-1137.649.51-1627.392.81h-.777l-28.037.01c-179.902.11-304.09.18-320.914.18v-2537s198.415-.18 225.493-.18c21.662 0 26.127-11.89 26.127-18.32-.15-6.77-5.549-18.24-26.127-18.24-25.373 0-32.493-14.76-32.493-23.02v-42.89c0-23.11 19.255-27.69 28.882-27.08h156.863c5.866.9 17.6-.46 17.6-13.1 0-12.64-11.734-14.89-17.6-14.44H200.292c-2.557-.3-7.672-2.26-7.672-7.68 0-5.41 5.115-7.97 7.672-8.57h143.557c3.76.45 11.282-.82 11.282-9.48 0-8.67-7.522-10.84-11.282-10.84H99.58c-4.362-.3-13.087-3.34-13.087-13.09s8.725-12.19 13.087-12.19h72.657c4.513 0 12.185-3.61 12.185-14.44 0-8.67-8.123-11.44-12.185-11.74H89.2c-23.015 0-33.395-13.54-33.395-40.63 0-21.67 20.458-32.5 30.688-35.21H306.62c16 0 28-3.86 28-14.36s-5.5-17.69-28-17.69-44.785-10.56-44.785-41.98c0-31.42 21.285-44.24 41.285-44.24h137.261c3.46.45 10.379-.91 10.379-9.94 0-9.02-6.919-10.68-10.379-10.38H255.067c-8.273.6-24.821-2.8-24.821-21.21 0-18.42 16.548-23.03 24.821-23.03h265.644c5.115-.3 15.344-3.52 15.344-13.99s-10.229-14.9-15.344-15.8H368.176c-9.327-1.96-27.98-12.64-27.98-39.727 0-27.086 18.653-40.478 27.98-43.789h60.472c9.026.903 27.078-1.715 27.078-19.411s-19.645-21.217-27.467-20.766H256.75l-.287.001h-.16c-7.176.021-36.107.104-36.107-35.663 0-29.253 21.963-34.76 32.944-33.857h41.97c7.672 1.053 23.015-.813 23.015-16.703 0-15.89-12.937-20.164-19.405-20.314H184.663c-8.123 0-20.043-3.508-20.043-16.508s11.5-17.801 20.043-17.801h327.022c7.221-.601 21.662-5.778 21.662-21.668s-14.441-21.669-21.662-22.571h-41.518c-5.867.902-17.6-1.355-17.6-17.606s11.733-18.509 17.6-17.606h281.829c18.625 0 23.625-9.71 23.625-19.748 0-2.194-.32-4.134-.889-5.852h-95.214c-6.994.369-20.982-2.654-20.982-17.693 0-15.04 13.988-17.141 20.982-16.312h92.185c4.234-.921 12.701-5.473 12.701-16.311 0-10.837-8.467-13.915-12.701-14.099H345.577c-5.154.461-15.462-2.71-15.462-19.076 0-16.367 11.308-18.984 16.462-18.246H565.66c6.96 0 17.67-6.414 17.67-19.906 0-13.491-11.78-18.154-17.67-18.799H360.437c-5.43-.922-16.29-6.303-16.29-20.458 0-14.155 10.86-18.062 16.29-18.247h16.023c6.811.093 20.431-3.759 20.431-19.905 0-16.145-13.62-20.734-20.431-21.011H210.536c-7.639-.368-22.916-4.81-22.916-19.628 0-14.819 15.277-18.892 22.916-19.076h494.389c7.179.737 21.535-3.373 21.535-25.711 0-22.338 17.67-23.868 26.505-21.841h444.845c2.95-2.081 5.81-5.847 5.81-11.152 0-7.312-3.64-10.744-6.69-12.155h-128.44c-8.37.155-24.38-1.275-24.38-21.911 0-20.636 16.25-22.651 24.38-21.08h161.12c13.51 0 24.88-7.854 24.88-26.854 0-21.5-13.37-27.035-24.88-27.035H965.731c-6.37.555-19.111-2.163-19.111-17.473 0-15.311 12.741-16.365 19.111-14.978h272.739c6.19-.092 18.56-3.384 18.56-15.81 0-12.425-12.37-14.792-18.56-14.422h-161.12c-7.94.924-23.82-1.165-23.82-16.919 0-15.755 15.88-19.693 23.82-19.693h227.32c7.94 1.017 23.82-1.276 23.82-18.583 0-17.308-15.88-18.121-23.82-16.365h-98.88c-7.48 1.757-22.43.943-22.43-16.364 0-17.307 14.95-18.12 22.43-16.364h198.31c9.42 0 20.5-2.22 20.5-15.532 0-13.314-6.37-14.423-20.5-14.423-14.12 0-24.65-4.716-24.65-15.533S1388.31.03 1403.27.03zM851.963 653.97a20.697 20.697 0 00-.342 3.852c0 11.5 12 17.008 21.546 17.008h145.543c9.41 0 19.91-5.008 19.91-16.008 0-1.77-.14-3.383-.41-4.852H851.963z" fill="#D7E2F1"/></g></g><defs><clipPath id="clip0_1277_2527"><path fill="#fff" d="M0 0h1920v1593H0z"/></clipPath><filter id="filter0_i_1277_2527" x="-39" y="0" width="1977.62" height="4094.32" filterUnits="userSpaceOnUse" color-interpolation-filters="sRGB"><feFlood flood-opacity="0" result="BackgroundImageFix"/><feBlend in="SourceGraphic" in2="BackgroundImageFix" result="shape"/><feColorMatrix in="SourceAlpha" values="0 0 0 0 0 0 0 0 0 0 0 0 0 0 0 0 0 0 127 0" result="hardAlpha"/><feOffset/><feGaussianBlur stdDeviation="27"/><feComposite in2="hardAlpha" operator="arithmetic" k2="-1" k3="1"/><feColorMatrix values="0 0 0 0 0.227451 0 0 0 0 0.407843 0 0 0 0 0.639216 0 0 0 0.28 0"/><feBlend in2="shape" result="effect1_innerShadow_1277_2527"/></filter></defs></svg>