<svg width="828" height="350" fill="none" xmlns="http://www.w3.org/2000/svg"><g clip-path="url(#clip0_1353_2554)"><path fill="#F8EDE1" d="M0-2h828v1704H0z"/><g filter="url(#filter0_i_1353_2554)"><path fill-rule="evenodd" clip-rule="evenodd" d="M692.686 160h-86.417s-23.4 0-23.4 19.976c0 19.977 22.083 18.045 22.083 18.045l18.917-.045c9 0 14 9 14 17s-6.179 14.688-13.917 14.688H503.253c-6.384 0-20.884 3.812-20.884 18.312 0 17.5 15 18.57 20.884 18.57h38.991s17.625-2.285 17.625 11.93c0 11.678-16.5 11.678-16.5 11.678H305.986c-8.117 0-18.617 8.747-18.617 21.322 0 12.576 14 19.332 18.617 19.332h174.579s21.804-1 21.804 19.168c0 18.131-21.804 18.131-21.804 18.131H348.164c-4.795 0-20.028.365-20.028 17.314 0 9.957 5.084 14.427 10.353 16.42h-37.541c-6.372-1.459-19.116-.358-19.116 15.709 0 16.066-10.355 19.023-15.532 18.492H99.901c-5.509.133-16.532 4.934-16.532 16.934s10.5 16.905 16.532 16.905h43.715c4.912.199 18.253 5.595 18.253 20.595 0 14-13.341 18.901-18.253 18.834h-9.557c-4.69 0-17.69 3.166-17.69 18.166 0 16.5 14 19.673 17.69 19.673h83.623c4.687 0 17.687 5.827 17.687 18.827 0 12-11.5 19.012-16.687 19.012H94.062c-4.193 0-17.193 3.488-17.193 17.488 0 14.5 12 19.356 16.472 19.356l154.634.332h108.401c-49.19.071-95.876.136-103.58.136 4.573 0 16.073 5.7 16.073 17.7 0 9-8.5 14.576-16.073 14.576H146.369c-5.502 0-26 1.924-26 27.424s26 27.5 26 27.5h18.807c4.165.097 18.193 6.5 18.193 23s-13 22.175-18.193 22.175h-30.029c-7.278 0-22.778 10.325-22.778 26.825 0 19 17 25.602 23.904 25.602h63.233c3.363 0 19.863 3.898 19.863 22.398 0 17.795-15.331 18.562-19.43 18.767l-.154.007-.279.015H67.432c-5.328 0-21.063 3.211-21.063 20.211s15 20.28 21.063 20.28h51.342c2.095 0 16.595 2.72 16.595 17.72 0 13.5-15 15.362-16.595 15.362H73.378c-12.88 0-26.587 8.257-26.587 28.491 0 20.233 14.351 27.036 28.841 27.036s18.032 12.633 18.032 19.395c0 6.766-7.728 9.246-18.032 9.246h-99.5c-6.588 1.74-19.763 8.72-19.763 22.68 0 6.28 1.66 184.07 1.813 184.13l.001 8587.27c-2.81 12.8 1.57 38.38 41.56 38.38h873.963c11.431-1.36 34.294-11.75 34.294-42.45 0-8.44-3.024-652.18-7.41-1585.64C889.026 5749.15 868 1273.72 868 1118.97c1.356-8.72-.291-26.16-17.728-26.16h-94.304c-13.099 0-28.099-14.5-28.099-30.31 0-13.23 11.5-23.41 28.099-23.41h27.947c9.89 0 35.328-2.08 35.328-25.59 0-23.506-20.099-31.54-38.235-31.54h-44.751c-6.152-.581-18.455-7.96-18.455-21.222s12.933-21.804 20.925-21.804c7.992 0 29.142-1.884 29.142-21.434s-21.44-30.076-30.159-30.076h-70.461c-5.88 0-25.88-9.424-25.88-31.924 0-21 19-26.832 25.88-26.832h91.62c3.5 0 28.5-1.668 28.5-29.668 0-29-22.545-32.747-27.873-32.747H641.259c-4.89 0-20.89-5.253-20.89-22.753s15-22.271 20.89-22.271h30.02c4.09 0 24.09-3.729 24.09-23.229 0-21-19.44-27.342-24.09-27.342h-72.178c-10.232 0-22.032-9.775-22.032-23.717 0-11.897 8.911-22.055 18.328-24.777h16.348c7.624 0 13.624-3.188 13.624-10.688s-6.942-11.186-14.221-11.186-14.279-3.314-14.279-11.314 8.5-10.161 14.279-10.161H717.66s17.209.161 17.209-14.339-12.5-16.125-19.209-16.125h-69.088c-5.203 0-17.203-5.375-17.203-17.375s11-17.68 16.5-17.68h129.752c5.708 0 18.248-3.82 18.248-17.32s-13-18.928-19.248-18.928h-79.778c-6.474 0-18.474-4.572-18.474-17.072 0-13.999 11.5-17.314 18.474-17.314h59.3c5.726 0 20.478-4.892 20.478-19.686 0-17.5-16.252-21.135-21.478-21.135H637.084c5.58-2.185 10.31-6.93 10.31-16.42 0-22.445 7.475-31.186 17.753-31.186h56.836c8.386 0 23.386-6.759 23.386-20.259 0-17-15-22.636-23.386-22.636h-65.114s-23-.5-23-18.364c0-19.64 23-19.14 23-19.14H762.63c4.239 0 21.239-1.86 21.239-19.36 0-20.5-15-21.395-21.239-21.395h-82.462c-5.299 0-13.299-5.105-13.299-18.105 0-8.93 6-16.955 13.299-16.955h12.518c5.766.684 20.683-4.545 20.683-18.045 0-15.5-15-19.976-20.683-19.976z" fill="#DDE6F1"/></g></g><defs><clipPath id="clip0_1353_2554"><path fill="#fff" transform="translate(0 -2)" d="M0 0h828v1704H0z"/></clipPath><filter id="filter0_i_1353_2554" x="-43.631" y="160" width="951.631" height="9678.49" filterUnits="userSpaceOnUse" color-interpolation-filters="sRGB"><feFlood flood-opacity="0" result="BackgroundImageFix"/><feBlend in="SourceGraphic" in2="BackgroundImageFix" result="shape"/><feColorMatrix in="SourceAlpha" values="0 0 0 0 0 0 0 0 0 0 0 0 0 0 0 0 0 0 127 0" result="hardAlpha"/><feOffset/><feGaussianBlur stdDeviation="27"/><feComposite in2="hardAlpha" operator="arithmetic" k2="-1" k3="1"/><feColorMatrix values="0 0 0 0 0.227451 0 0 0 0 0.407843 0 0 0 0 0.639216 0 0 0 0.28 0"/><feBlend in2="shape" result="effect1_innerShadow_1353_2554"/></filter></defs></svg>