<svg width="828" height="375" fill="none" xmlns="http://www.w3.org/2000/svg"><g clip-path="url(#clip0_1728_3209)"><path fill="#F8EDE1" d="M0-2h828v1704H0z"/><g filter="url(#filter0_i_1728_3209)"><path fill-rule="evenodd" clip-rule="evenodd" d="M339.997 220.792h-108.39l-154.634-.331c-4.473 0-16.473-4.856-16.473-19.356 0-14 13-17.489 17.194-17.489h124.62c5.186 0 16.686-7.011 16.686-19.011 0-13-13-18.827-17.686-18.827H137.69c-3.69 0-17.69-3.173-17.69-19.673 0-15 13-18.166 17.69-18.166h9.557c4.912.066 18.253-4.834 18.253-18.834 0-15-13.341-20.397-18.253-20.595h-43.714C97.5 68.51 87 63.605 87 51.605s11.023-16.801 16.533-16.934h166.398c5.177.53 15.532-2.426 15.532-18.493S298.207-.989 304.579.47h322.196c5.225 0 21.477 3.636 21.477 21.136 0 14.794-14.752 19.686-20.477 19.686h-19.301C601.5 41.29 590 44.606 590 58.605c0 12.5 12 17.072 18.474 17.072h119.778c6.248 0 19.248 5.428 19.248 18.928s-12.54 17.32-18.248 17.32H629.5c-5.5 0-16.5 5.68-16.5 17.68s12 17.374 17.203 17.374h69.089c6.708 0 19.208 1.626 19.208 16.126 0 14.5-17.208 14.338-17.208 14.338H594.779c-5.779 0-14.279 2.162-14.279 10.162s7 11.314 14.279 11.314S609 202.605 609 210.105s-6 10.687-13.624 10.687h-16.347c-9.418 2.723-18.329 12.88-18.329 24.778 0 13.941 11.8 23.716 22.032 23.716h72.178c4.65 0 24.09 6.342 24.09 27.342 0 19.5-20 23.229-24.09 23.229h-30.02c-5.89 0-20.89 4.771-20.89 22.271s16 22.754 20.89 22.754h118.237c5.328 0 27.873 3.746 27.873 32.746 0 28-25 29.668-28.5 29.668h-91.62c-6.88 0-25.88 5.832-25.88 26.832 0 22.5 20 31.925 25.88 31.925h70.461c8.719 0 30.159 10.525 30.159 30.075 0 19.551-21.149 21.434-29.142 21.434-7.992 0-20.925 8.542-20.925 21.804 0 13.262 12.304 20.641 18.455 21.223h44.752c18.135 0 38.234 8.034 38.234 31.539 0 23.506-25.438 25.587-35.328 25.587h-27.947c-16.599 0-28.099 10.186-28.099 23.413 0 15.815 15 30.31 28.099 30.31h94.304c17.438 0 19.084 17.443 17.728 26.164 0 154.693 21.012 11505.498 32.578 17753.598l.007 3.5.005 3.1c4.386 2369 7.41 4002.8 7.41 4011.3 0 30.7-22.862 41-34.294 42.4H-16.626c-39.99 0-44.369-25.6-41.56-38.4V811.474C-58.34 811.408-60 633.614-60 627.335c0-13.955 13.175-20.932 19.763-22.676h99.5c10.305 0 18.032-2.485 18.032-9.247 0-6.762-3.541-19.394-18.031-19.394-14.49 0-28.841-6.803-28.841-27.037 0-20.234 13.707-28.49 26.587-28.49h45.395c1.595 0 16.595-1.863 16.595-15.363 0-15-14.5-17.72-16.595-17.72H51.063C45 487.408 30 484.128 30 467.128s15.735-20.21 21.063-20.21h132.074l.431-.023h.002c4.1-.205 19.43-.972 19.43-18.767 0-18.5-16.5-22.397-19.863-22.397h-63.232C113 405.731 96 399.128 96 380.128c0-16.5 15.5-26.824 22.779-26.824h30.028c5.193 0 18.193-5.676 18.193-22.176s-14.027-22.903-18.193-23H130s-26-2-26-27.5 20.499-27.424 26-27.424h106.428c7.572 0 16.072-5.576 16.072-14.576 0-12-11.5-17.7-16.072-17.7 7.703 0 54.382-.065 103.569-.136z" fill="#DDE6F1"/></g></g><defs><clipPath id="clip0_1728_3209"><path fill="#fff" transform="translate(0 -2)" d="M0 0h828v1704H0z"/></clipPath><filter id="filter0_i_1728_3209" x="-60" y="0" width="951.631" height="22531.5" filterUnits="userSpaceOnUse" color-interpolation-filters="sRGB"><feFlood flood-opacity="0" result="BackgroundImageFix"/><feBlend in="SourceGraphic" in2="BackgroundImageFix" result="shape"/><feColorMatrix in="SourceAlpha" values="0 0 0 0 0 0 0 0 0 0 0 0 0 0 0 0 0 0 127 0" result="hardAlpha"/><feOffset/><feGaussianBlur stdDeviation="27"/><feComposite in2="hardAlpha" operator="arithmetic" k2="-1" k3="1"/><feColorMatrix values="0 0 0 0 0.227451 0 0 0 0 0.407843 0 0 0 0 0.639216 0 0 0 0.28 0"/><feBlend in2="shape" result="effect1_innerShadow_1728_3209"/></filter></defs></svg>