<svg width="1920" height="870" fill="none" xmlns="http://www.w3.org/2000/svg"><g clip-path="url(#clip0_1588_2716)"><path fill="#F8EDE1" d="M0-761h1920V870H0z"/><g filter="url(#filter0_i_1588_2716)"><path fill-rule="evenodd" clip-rule="evenodd" d="M517.438-348.039H355.03c-9.399.496-28.197-3.57-28.197-23.802 0-20.233 18.798-23.059 28.197-21.943h123.881c5.689-1.24 17.067-7.364 17.067-21.944 0-14.579-11.378-18.719-17.067-18.967H266.267c-6.926.62-20.777-3.645-20.777-25.663 0-22.017 15.195-25.538 22.121-24.546h124.412c9.353 0 23.745-8.629 23.745-26.778 0-18.15-15.83-24.423-23.745-25.29H286.236c-7.296-1.24-21.89-8.48-21.89-27.522 0-19.042 14.594-24.299 21.89-24.547h21.534c9.152.124 27.455-5.058 27.455-26.778s-18.303-27.893-27.455-28.265h-92.976C204.529-644.58 184-650.556 184-670.49c0-19.935 20.529-25.415 30.794-25.663h404.379c9.646.992 28.939-4.537 28.939-34.588 0-30.051 23.746-32.109 35.618-29.381h835.83c11.94 0 39.44 7.122 39.44 38.122 0 29-28 35.525-39.44 35.525h-25.06c-10.93 0-27 9.475-27 30.975 0 18 11.5 31.543 27.5 31.543h137.44c11.06 0 34.56 12.957 34.56 41.457 0 30-22.92 37.636-33.56 37.636h-37.56c-9.88 0-26.38 4.864-26.38 23.364s18.5 23.497 26.38 23.497h102.45c9.67 0 30.17 8.003 30.17 27.503s-18.5 27.383-30.17 27.383h-199.45c-15.88 0-26.38 7.617-26.38 19.117s7.45 21.05 26.38 21.05c18.92 0 31.62 10.45 31.62 27.95s-10.48 26.961-30.51 26.961h-104.75c-15.43 5.194-28.72 18.142-28.72 36.113 0 23.672 26.1 35.278 41.53 35.278h254.9c8.76 0 27.55 9.148 27.55 30.648 0 19.5-19.5 28.586-27.55 28.586h-105.18c-7.49 0-22.46 6.914-22.46 23.414s14.97 22.195 22.46 22.56h217.98c10.04 0 30.25 7.521 30.25 29.44s-17.5 29.193-26.97 29.193h-91.99c-11.04 0-34.51 6.573-34.51 29.807 0 23.234 22.47 31.43 34.51 31.43h33.39c8.4-.183 30.07 13.57 30.07 39.07s-20 38.603-30.07 38.603h-114.98c-12.05 0-33.45 7.91-33.45 32.897s23.5 32.586 34.66 32.586h180.87S1836 95 1836 141c0 33-27.48 48.566-42.55 48.566H1723s-26.5-1.5-26.5 25.434 26.5 26.5 26.5 26.5h32c14.5 0 27 8.5 27 23.5s-11 24-27 24h-93s-48.5-4.5-48.5 42 48.5 45.665 48.5 45.665h146.72c34.18 0 72.06 4.451 72.06 54.219 0 44.306-47.94 49.456-66.58 49.456h-52.68c-6.03 0-30.52 2.16-30.52 27.16 0 26.5 24 30.405 30.52 30.405h188.94c32.87 0 35.97 32.878 33.41 49.317V14219.9c0 57.9.09 81.2.09 81.2-338.59 0-1179.109.6-1658.478 1-191.23.1-324.987.2-346.482.2V684.157s167.132-.216 200-.216c4.73 0 56.5-6.941 56.5-58.441s-43.097-58.637-56.5-58.637h-40.91c-.186-.013-.398-.026-.636-.041C130.885 566.416 105 564.815 105 537c0-28.823 27.794-28.823 33.09-28.823h31.195S190 503.5 190 484c0-21-15.785-27.24-20.715-27.605H70.49C52 456.395 24.5 439.5 24.5 405s32-47.663 44.704-47.663h104.203C191.5 357.337 209 346.5 209 324.5c0-22-18-33.069-37.593-33.069-19.593 0-42.907-10.931-42.907-35.931s19.381-37.731 43.658-37.731l57.616-.769s35.726-2 35.726-30.5-31-32.5-35.726-32.5H152.5c-16.454 0-59-15-59-60s34.5-60.13 57.626-60.13h61.405C223.5 33.87 243 27.5 243 4s-21.5-29.899-30.942-29.899H92.5C84.83-25.899 43-33.5 43-78.5s37-50.364 49.5-50.364H277c15.5 0 40-4.136 40-30.636 0-31.598-27.579-31.226-38.264-31.081-.643.008-1.225.016-1.736.016h-35c-8 0-34.5-9.435-34.5-41.435 0-30 25.5-41.306 34.5-41.306h271.029C535.636-273.306 549-294 549-310c0-26.235-20.665-35.256-31.562-38.039z" fill="#D7E2F1"/></g></g><defs><clipPath id="clip0_1588_2716"><path fill="#fff" transform="translate(0 -761)" d="M0 0h1920v1631H0z"/></clipPath><filter id="filter0_i_1588_2716" x="-21" y="-761" width="2005.57" height="15063.3" filterUnits="userSpaceOnUse" color-interpolation-filters="sRGB"><feFlood flood-opacity="0" result="BackgroundImageFix"/><feBlend in="SourceGraphic" in2="BackgroundImageFix" result="shape"/><feColorMatrix in="SourceAlpha" values="0 0 0 0 0 0 0 0 0 0 0 0 0 0 0 0 0 0 127 0" result="hardAlpha"/><feOffset/><feGaussianBlur stdDeviation="27"/><feComposite in2="hardAlpha" operator="arithmetic" k2="-1" k3="1"/><feColorMatrix values="0 0 0 0 0.227451 0 0 0 0 0.407843 0 0 0 0 0.639216 0 0 0 0.28 0"/><feBlend in2="shape" result="effect1_innerShadow_1588_2716"/></filter></defs></svg>