<svg width="1920" height="365" viewBox="0 0 1920 365" fill="none" xmlns="http://www.w3.org/2000/svg">
<path d="M24.8732 364.397H109.349C124.306 364.397 133.169 360.236 133.169 349.419C133.169 338.602 122.644 333.887 108.518 333.887C94.3928 333.887 88.0224 332.778 88.0224 319.464C88.0224 306.151 99.1013 303.932 108.518 303.932L306.829 303.932C314.307 305.689 329.264 304.875 329.264 287.568C329.264 270.26 314.307 269.447 306.829 271.203L207.951 271.203C200.011 272.96 184.131 272.146 184.131 254.839C184.131 237.532 200.011 235.239 207.951 236.256L435.27 236.256C443.21 236.256 459.089 232.317 459.089 216.563C459.089 200.809 443.21 198.72 435.27 199.644L274.147 199.644C267.961 200.014 255.59 197.647 255.59 185.221C255.59 172.796 267.961 169.504 274.147 169.412L546.889 169.412C553.259 170.799 566 169.745 566 154.434C566 139.124 553.259 136.406 546.889 136.96L283.01 136.96C275.716 139.179 261.129 138.736 261.129 119.209C261.129 99.683 275.716 98.3147 283.01 100.071H444.133C452.257 101.643 468.506 99.6276 468.506 78.9919C468.506 58.3561 452.5 56.9258 444.133 57.0803L106.579 57.0803C96.5 56.4258 79.9903 59.4258 79.9903 78.9919C79.9903 101.403 65.5878 105.526 58.3866 104.786H3.82343C-3.83942 104.971 -19.1652 109.058 -19.1652 123.924C-19.1652 138.791 -3.83942 143.247 3.82343 143.617L79.9903 143.617C86.8222 143.894 100.486 148.499 100.486 164.697C100.486 180.895 86.8222 184.759 79.9903 184.667L-236.659 184.667C-242.106 184.852 -253 188.772 -253 202.972C-253 217.173 -242.106 222.573 -236.659 223.497L29.0277 223.497C34.9364 224.144 46.7538 228.823 46.7538 242.358C46.7538 255.893 34.9364 261.311 29.0277 262.328L-150.244 262.328C-155.414 261.588 -165.754 264.214 -165.754 280.634C-165.754 297.054 -155.414 300.234 -150.244 299.772L40.1066 299.772C44.3535 299.957 52.8472 303.045 52.8472 313.917C52.8472 324.79 44.3535 329.357 40.1066 330.281H24.8732C17.8566 329.449 3.82343 331.557 3.82343 346.646C3.82343 361.734 17.8566 364.767 24.8732 364.397Z" fill="#E6EDF6"/>
<path d="M1637.3 118.031H1728.29C1744.4 118.031 1753.95 122.498 1753.95 134.112C1753.95 145.726 1742.61 150.788 1727.4 150.788C1712.18 150.788 1705.32 151.979 1705.32 166.273C1705.32 180.567 1717.25 182.95 1727.4 182.95H1941C1949.05 181.064 1965.16 181.937 1965.16 200.519C1965.16 219.102 1949.05 219.975 1941 218.089H1834.5C1827.16 218.089 1808.84 218.089 1808.84 236.38C1808.84 254.962 1825.76 255.611 1834.5 255.611H2079.34C2087.9 255.611 2105 259.839 2105 276.754C2105 293.669 2087.9 295.912 2079.34 294.919H1905.8C1899.13 294.522 1885.81 297.659 1885.81 311H1355.6C1349.73 310.801 1338 306.593 1338 291.346C1338 276.099 1349.73 270.302 1355.6 269.309H1641.78C1648.14 268.614 1660.87 263.592 1660.87 249.059C1660.87 234.527 1648.14 228.71 1641.78 227.618H1448.68C1443.11 228.412 1431.97 225.593 1431.97 207.964C1431.97 190.335 1443.11 186.92 1448.68 187.416H1653.71C1658.28 187.218 1667.43 183.903 1667.43 172.229C1667.43 160.556 1658.28 155.652 1653.71 154.659H1637.3C1629.74 155.553 1614.63 153.29 1614.63 137.09C1614.63 120.89 1629.74 117.634 1637.3 118.031Z" fill="#E6EDF6"/>
</svg>
