<svg width="828" height="213" viewBox="0 0 828 213" fill="none" xmlns="http://www.w3.org/2000/svg">
<path d="M240.863 212.315H149.873C133.763 212.315 124.216 207.848 124.216 196.234C124.216 184.62 135.553 179.558 150.768 179.558C165.982 179.558 172.844 178.366 172.844 164.072C172.844 149.778 160.911 147.396 150.768 147.396H-62.8355C-70.8903 149.282 -87 148.409 -87 129.826C-87 111.244 -70.8903 110.371 -62.8355 112.257H43.6678C51.0063 112.257 69.324 112.257 69.324 93.966C69.324 75.3838 52.3999 74.7349 43.6678 74.7349H18.8195C10.2674 74.7349 -6.83676 70.5063 -6.83676 53.5918C-6.83676 33 10.1632 33 18.8195 33H72.3673C79.03 33.397 92.3553 33 92.3553 33H292.562C298.429 33.1985 310.163 34.8457 310.163 47.8457C310.163 58.8457 297.663 61.0365 292.562 61.0365H236.388C230.023 61.7314 217.295 66.7541 217.295 81.2863C217.295 95.8186 230.023 101.635 236.388 102.727H429.484C435.052 101.933 446.19 104.752 446.19 122.382C446.19 140.011 435.052 143.426 429.484 142.929H224.455C219.88 143.128 210.732 146.443 210.732 158.117C210.732 169.79 219.88 174.694 224.455 175.686H240.863C248.42 174.793 263.536 177.056 263.536 193.256C263.536 209.456 248.42 212.712 240.863 212.315Z" fill="#E6EDF6"/>
</svg>
