<svg width="1920" height="334" viewBox="0 0 1920 334" fill="none" xmlns="http://www.w3.org/2000/svg">
<g opacity="0.8">
<path d="M-274.099 333.976L258.643 333.976C271.127 333.976 278.526 330.504 278.526 321.478C278.526 312.452 269.74 308.518 257.95 308.518C246.159 308.518 240.842 307.592 240.842 296.483C240.842 285.375 250.089 283.523 257.95 283.523L381.613 283.523C387.855 284.989 400.339 284.31 400.339 269.868C400.339 255.427 387.855 254.748 381.613 256.214L299.078 256.214C292.451 257.68 279.196 257.001 279.196 242.559C279.196 228.118 292.451 226.204 299.078 227.053L522.505 227.053C529.132 227.053 542.387 223.767 542.387 210.621C542.387 197.476 529.132 195.732 522.505 196.504H471.564C466.401 196.812 456.075 194.837 456.075 184.469C456.075 174.101 466.401 171.354 471.564 171.277L624.048 171.277C629.365 172.434 640 171.555 640 158.78C640 146.005 629.365 143.736 624.048 144.199L428.72 144.199C422.632 146.051 410.456 145.681 410.456 129.388C410.456 113.094 422.632 111.953 428.72 113.419L496.408 113.419C503.19 114.73 516.753 113.048 516.753 95.8295C516.753 78.6107 503.19 76.4661 496.408 77.5461L-212.596 77.5461C-219.995 75.8489 -234.791 77.1295 -234.791 95.8295C-234.791 114.529 -246.813 117.97 -252.824 117.353L-666.811 117.353C-673.208 117.507 -686 120.917 -686 133.322C-686 145.727 -673.208 149.445 -666.811 149.754L-527.871 149.754C-522.168 149.985 -510.763 153.827 -510.763 167.343C-510.763 180.859 -522.168 184.083 -527.871 184.006H-541.289C-545.835 184.16 -554.929 187.431 -554.929 199.281C-554.929 211.13 -545.835 215.636 -541.289 216.407L-369.44 216.407C-364.508 216.947 -354.644 220.851 -354.644 232.145C-354.644 243.439 -363.612 248.808 -369.44 248.808L-552.895 248.808C-557.21 248.191 -566.678 250.382 -566.678 264.083C-566.678 277.784 -558.047 280.437 -553.732 280.052L-196.906 280.052C-193.361 280.206 -186.271 282.783 -186.271 291.855C-186.271 300.927 -193.361 304.738 -196.906 305.509H-274.099C-279.955 304.815 -291.669 306.574 -291.669 319.164C-291.669 331.754 -279.955 334.284 -274.099 333.976Z" fill="#E6EDF6"/>
<path d="M1804.7 247.315H1713.71C1697.6 247.315 1688.05 242.848 1688.05 231.234C1688.05 219.62 1699.39 214.558 1714.6 214.558C1729.82 214.558 1736.68 213.366 1736.68 199.072C1736.68 184.778 1724.75 182.396 1714.6 182.396H1501C1492.95 184.282 1476.84 183.409 1476.84 164.826C1476.84 146.244 1492.95 145.371 1501 147.257H1607.5C1614.84 147.257 1633.16 147.257 1633.16 128.966C1633.16 110.384 1616.24 109.735 1607.5 109.735H1582.66C1574.1 109.735 1557 105.506 1557 88.5918C1557 68 1574 68 1582.66 68H1636.2C1642.87 68.397 1656.19 68 1656.19 68H1856.4C1862.26 68.1985 1874 69.8457 1874 82.8457C1874 93.8457 1861.5 96.0365 1856.4 96.0365H1800.22C1793.86 96.7314 1781.13 101.754 1781.13 116.286C1781.13 130.819 1793.86 136.635 1800.22 137.727H1993.32C1998.89 136.933 2010.03 139.752 2010.03 157.382C2010.03 175.011 1998.89 178.426 1993.32 177.929H1788.29C1783.72 178.128 1774.57 181.443 1774.57 193.117C1774.57 204.79 1783.72 209.694 1788.29 210.686H1804.7C1812.26 209.793 1827.37 212.056 1827.37 228.256C1827.37 244.456 1812.26 247.712 1804.7 247.315Z" fill="#E6EDF6"/>
</g>
</svg>
