<svg width="828" height="251" viewBox="0 0 828 251" fill="none" xmlns="http://www.w3.org/2000/svg">
<path d="M702.917 28.0283H784.978C799.507 28.0283 808.117 32.0988 808.117 42.6821C808.117 53.2655 797.893 57.8787 784.171 57.8787C770.449 57.8787 764.261 58.9642 764.261 71.9899C764.261 85.0155 775.023 87.1865 784.171 87.1865H850.552C859.096 87.1865 871.723 90.8026 871.723 107.736C871.723 124.669 859.096 127.892 850.552 127.892H794.613H659.067C654.044 128.615 644 126.046 644 109.981C644 93.9164 654.044 90.8047 659.067 91.257H717.715C721.84 91.0761 730.091 88.0548 730.091 77.4172C730.091 66.7796 721.84 62.3111 717.715 61.4065H702.917C696.101 62.2206 682.469 60.1582 682.469 45.3958C682.469 30.6334 696.101 27.6664 702.917 28.0283Z" fill="#E6EDF6"/>
<path d="M-68.6995 58.031H22.2907C38.4004 58.031 47.9469 62.4979 47.9469 74.1118C47.9469 85.7256 36.6104 90.7881 21.3956 90.7881C6.18091 90.7881 -0.680664 91.9793 -0.680664 106.273C-0.680664 120.567 11.2525 122.95 21.3956 122.95H234.999C243.054 121.064 259.163 121.937 259.163 140.519C259.163 159.102 243.054 159.975 234.999 158.089H128.495C121.157 158.089 102.839 158.089 102.839 176.38C102.839 194.962 119.763 195.611 128.495 195.611H373.344C381.896 195.611 399 199.839 399 216.754C399 233.669 381.896 235.912 373.344 234.919H199.796C193.133 234.522 179.808 237.659 179.808 251H-350.399C-356.266 250.801 -368 246.593 -368 231.346C-368 216.099 -356.266 210.302 -350.399 209.309H-64.2246C-57.8602 208.614 -45.1315 203.592 -45.1315 189.059C-45.1315 174.527 -57.8602 168.71 -64.2246 167.618H-257.32C-262.889 168.412 -274.027 165.593 -274.027 147.964C-274.027 130.335 -262.889 126.92 -257.32 127.416H-52.2914C-47.717 127.218 -38.5684 123.903 -38.5684 112.229C-38.5684 100.556 -47.717 95.652 -52.2914 94.6594H-68.6995C-76.2571 95.5528 -91.3724 93.2895 -91.3724 77.0897C-91.3724 60.8898 -76.2571 57.634 -68.6995 58.031Z" fill="#E6EDF6"/>
</svg>
