<svg width="1920" height="429" viewBox="0 0 1920 429" fill="none" xmlns="http://www.w3.org/2000/svg">
<path d="M1703.9 428.976L2236.64 428.976C2249.13 428.976 2256.53 425.504 2256.53 416.478C2256.53 407.452 2247.74 403.518 2235.95 403.518C2224.16 403.518 2218.84 402.592 2218.84 391.483C2218.84 380.375 2228.09 378.523 2235.95 378.523L2359.61 378.523C2365.86 379.989 2378.34 379.31 2378.34 364.868C2378.34 350.427 2365.86 349.748 2359.61 351.214L2277.08 351.214C2270.45 352.68 2257.2 352.001 2257.2 337.559C2257.2 323.118 2270.45 321.204 2277.08 322.053L2500.5 322.053C2507.13 322.053 2520.39 318.767 2520.39 305.621C2520.39 292.476 2507.13 290.732 2500.5 291.504H2449.56C2444.4 291.812 2434.07 289.837 2434.07 279.469C2434.07 269.101 2444.4 266.354 2449.56 266.277H2602.05C2607.37 267.434 2618 266.555 2618 253.78C2618 241.005 2607.37 238.736 2602.05 239.199L2406.72 239.199C2400.63 241.051 2388.46 240.681 2388.46 224.388C2388.46 208.094 2400.63 206.953 2406.72 208.419L2474.41 208.419C2481.19 209.73 2494.75 208.048 2494.75 190.829C2494.75 173.611 2481.19 171.466 2474.41 172.546L1765.4 172.546C1758.01 170.849 1743.21 172.13 1743.21 190.829C1743.21 209.529 1731.19 212.97 1725.18 212.353L1311.19 212.353C1304.79 212.507 1292 215.917 1292 228.322C1292 240.727 1304.79 244.445 1311.19 244.754L1450.13 244.754C1455.83 244.985 1467.24 248.827 1467.24 262.343C1467.24 275.859 1455.83 279.083 1450.13 279.006H1436.71C1432.16 279.16 1423.07 282.431 1423.07 294.281C1423.07 306.13 1432.16 310.636 1436.71 311.407L1608.56 311.407C1613.49 311.947 1623.36 315.851 1623.36 327.145C1623.36 338.439 1614.39 343.808 1608.56 343.808L1425.11 343.808C1420.79 343.191 1411.32 345.382 1411.32 359.083C1411.32 372.784 1419.95 375.437 1424.27 375.052L1781.09 375.052C1784.64 375.206 1791.73 377.783 1791.73 386.855C1791.73 395.927 1784.64 399.738 1781.09 400.509H1703.9C1698.04 399.815 1686.33 401.574 1686.33 414.164C1686.33 426.754 1698.04 429.284 1703.9 428.976Z" fill="#E6EDF6"/>
<path d="M161.127 0.0288857H76.6508C61.6944 0.0288857 52.8314 4.18931 52.8314 15.0064C52.8314 25.8235 63.3563 30.5387 77.4818 30.5387C91.6072 30.5387 97.9776 31.6481 97.9776 44.9615C97.9776 58.2748 86.8987 60.4937 77.4818 60.4937H-120.829C-128.307 58.7371 -143.264 59.5507 -143.264 76.858C-143.264 94.1654 -128.307 94.979 -120.829 93.2224H-21.9507C-14.0109 91.4658 1.86877 92.2794 1.86877 109.587C1.86877 126.894 -14.0109 129.187 -21.9507 128.17H-249.27C-257.21 128.17 -273.089 132.108 -273.089 147.863C-273.089 163.617 -257.21 165.706 -249.27 164.782H-88.1466C-81.9609 164.412 -69.5896 166.779 -69.5896 179.204C-69.5896 191.63 -81.9609 194.922 -88.1466 195.014H-360.889C-367.259 193.627 -380 194.681 -380 209.992C-380 225.302 -367.259 228.02 -360.889 227.465H-97.0097C-89.7161 225.246 -75.129 225.69 -75.129 245.217C-75.129 264.743 -89.7161 266.111 -97.0097 264.354H-258.133C-266.257 262.783 -282.506 264.798 -282.506 285.434C-282.506 306.07 -266.5 307.5 -258.133 307.345H79.4205C89.5 308 106.01 305 106.01 285.434C106.01 263.023 120.412 258.9 127.613 259.639H182.177C189.839 259.454 205.165 255.368 205.165 240.501C205.165 225.635 189.839 221.178 182.177 220.809H106.01C99.1778 220.531 85.5139 215.927 85.5139 199.729C85.5139 183.531 99.1778 179.667 106.01 179.759H422.659C428.106 179.574 439 175.654 439 161.453C439 147.252 428.106 141.853 422.659 140.929H156.972C151.064 140.281 139.246 135.603 139.246 122.068C139.246 108.533 151.064 103.115 156.972 102.098H336.244C341.414 102.838 351.754 100.212 351.754 83.7921C351.754 67.3723 341.414 64.1919 336.244 64.6541H145.893C141.647 64.4692 133.153 61.3813 133.153 50.5087C133.153 39.6361 141.647 35.0689 145.893 34.1444H161.127C168.143 34.9764 182.177 32.8685 182.177 17.78C182.177 2.69155 168.143 -0.34093 161.127 0.0288857Z" fill="#E6EDF6"/>
</svg>
