<svg width="1920" height="2040" viewBox="0 0 1920 2040" fill="none" xmlns="http://www.w3.org/2000/svg">
<path d="M1593.9 1440.98L2126.64 1440.98C2139.13 1440.98 2146.53 1437.5 2146.53 1428.48C2146.53 1419.45 2137.74 1415.52 2125.95 1415.52C2114.16 1415.52 2108.84 1414.59 2108.84 1403.48C2108.84 1392.37 2118.09 1390.52 2125.95 1390.52H2249.61C2255.86 1391.99 2268.34 1391.31 2268.34 1376.87C2268.34 1362.43 2255.86 1361.75 2249.61 1363.21H2167.08C2160.45 1364.68 2147.2 1364 2147.2 1349.56C2147.2 1335.12 2160.45 1333.2 2167.08 1334.05H2390.5C2397.13 1334.05 2410.39 1330.77 2410.39 1317.62C2410.39 1304.48 2397.13 1302.73 2390.5 1303.5H2339.56C2334.4 1303.81 2324.07 1301.84 2324.07 1291.47C2324.07 1281.1 2334.4 1278.35 2339.56 1278.28H2492.05C2497.37 1279.43 2508 1278.55 2508 1265.78C2508 1253 2497.37 1250.74 2492.05 1251.2H2296.72C2290.63 1253.05 2278.46 1252.68 2278.46 1236.39C2278.46 1220.09 2290.63 1218.95 2296.72 1220.42H2364.41C2371.19 1221.73 2384.75 1220.05 2384.75 1202.83C2384.75 1185.61 2371.19 1183.47 2364.41 1184.55L1655.4 1184.55C1648.01 1182.85 1633.21 1184.13 1633.21 1202.83C1633.21 1221.53 1621.19 1224.97 1615.18 1224.35H1201.19C1194.79 1224.51 1182 1227.92 1182 1240.32C1182 1252.73 1194.79 1256.45 1201.19 1256.75H1340.13C1345.83 1256.99 1357.24 1260.83 1357.24 1274.34C1357.24 1287.86 1345.83 1291.08 1340.13 1291.01H1326.71C1322.16 1291.16 1313.07 1294.43 1313.07 1306.28C1313.07 1318.13 1322.16 1322.64 1326.71 1323.41H1498.56C1503.49 1323.95 1513.36 1327.85 1513.36 1339.14C1513.36 1350.44 1504.39 1355.81 1498.56 1355.81H1315.11C1310.79 1355.19 1301.32 1357.38 1301.32 1371.08C1301.32 1384.78 1309.95 1387.44 1314.27 1387.05H1671.09C1674.64 1387.21 1681.73 1389.78 1681.73 1398.85C1681.73 1407.93 1674.64 1411.74 1671.09 1412.51H1593.9C1588.04 1411.82 1576.33 1413.57 1576.33 1426.16C1576.33 1438.75 1588.04 1441.28 1593.9 1440.98Z" fill="#E6EDF6"/>
<path d="M218.127 846.029H133.651C118.694 846.029 109.831 850.189 109.831 861.006C109.831 871.824 120.356 876.539 134.482 876.539C148.607 876.539 154.978 877.648 154.978 890.961C154.978 904.275 143.899 906.494 134.482 906.494H-63.8292C-71.3074 904.737 -86.2637 905.551 -86.2637 922.858C-86.2637 940.165 -71.3074 940.979 -63.8292 939.222H35.0493C42.9891 937.466 58.8688 938.279 58.8688 955.587C58.8688 972.894 42.9891 975.187 35.0493 974.17H-192.27C-200.21 974.17 -216.089 978.108 -216.089 993.863C-216.089 1009.62 -200.21 1011.71 -192.27 1010.78H-31.1466C-24.9609 1010.41 -12.5896 1012.78 -12.5896 1025.2C-12.5896 1037.63 -24.9609 1040.92 -31.1466 1041.01H-303.889C-310.259 1039.63 -323 1040.68 -323 1055.99C-323 1071.3 -310.259 1074.02 -303.889 1073.47H-40.0097C-32.7161 1071.25 -18.129 1071.69 -18.129 1091.22C-18.129 1110.74 -32.7161 1112.11 -40.0097 1110.35H-201.133C-209.257 1108.78 -225.506 1110.8 -225.506 1131.43C-225.506 1152.07 -209.5 1153.5 -201.133 1153.35H136.421C146.5 1154 163.01 1151 163.01 1131.43C163.01 1109.02 177.412 1104.9 184.613 1105.64H239.177C246.839 1105.45 262.165 1101.37 262.165 1086.5C262.165 1071.63 246.839 1067.18 239.177 1066.81H163.01C156.178 1066.53 142.514 1061.93 142.514 1045.73C142.514 1029.53 156.178 1025.67 163.01 1025.76H479.659C485.106 1025.57 496 1021.65 496 1007.45C496 993.252 485.106 987.853 479.659 986.929H213.972C208.064 986.281 196.246 981.603 196.246 968.068C196.246 954.533 208.064 949.115 213.972 948.098H393.244C398.414 948.838 408.754 946.212 408.754 929.792C408.754 913.372 398.414 910.192 393.244 910.654H202.893C198.647 910.469 190.153 907.381 190.153 896.509C190.153 885.636 198.647 881.069 202.893 880.144H218.127C225.143 880.976 239.177 878.868 239.177 863.78C239.177 848.692 225.143 845.659 218.127 846.029Z" fill="#E6EDF6"/>
<path d="M131.301 1680.03H222.291C238.4 1680.03 247.947 1684.5 247.947 1696.11C247.947 1707.73 236.61 1712.79 221.396 1712.79C206.181 1712.79 199.319 1713.98 199.319 1728.27C199.319 1742.57 211.252 1744.95 221.396 1744.95H434.999C443.054 1743.06 459.163 1743.94 459.163 1762.52C459.163 1781.1 443.054 1781.98 434.999 1780.09H328.495C321.157 1780.09 302.839 1780.09 302.839 1798.38C302.839 1816.96 319.763 1817.61 328.495 1817.61H573.344C581.896 1817.61 599 1821.84 599 1838.75C599 1855.67 581.896 1857.91 573.344 1856.92H399.796C393.133 1856.52 379.808 1859.66 379.808 1873H-150.399C-156.266 1872.8 -168 1868.59 -168 1853.35C-168 1838.1 -156.266 1832.3 -150.399 1831.31H135.775C142.14 1830.61 154.868 1825.59 154.868 1811.06C154.868 1796.53 142.14 1790.71 135.775 1789.62H-57.3203C-62.889 1790.41 -74.0266 1787.59 -74.0266 1769.96C-74.0266 1752.33 -62.889 1748.92 -57.3203 1749.42H147.709C152.283 1749.22 161.432 1745.9 161.432 1734.23C161.432 1722.56 152.283 1717.65 147.709 1716.66H131.301C123.743 1717.55 108.628 1715.29 108.628 1699.09C108.628 1682.89 123.743 1679.63 131.301 1680.03Z" fill="#E6EDF6"/>
</svg>
