<svg width="828" height="2237" viewBox="0 0 828 2237" fill="none" xmlns="http://www.w3.org/2000/svg">
<path d="M873.863 1483.31H782.873C766.763 1483.31 757.216 1478.85 757.216 1467.23C757.216 1455.62 768.553 1450.56 783.768 1450.56C798.982 1450.56 805.844 1449.37 805.844 1435.07C805.844 1420.78 793.911 1418.4 783.768 1418.4H570.165C562.11 1420.28 546 1419.41 546 1400.83C546 1382.24 562.11 1381.37 570.165 1383.26H676.668C684.006 1383.26 702.324 1383.26 702.324 1364.97C702.324 1346.38 685.4 1345.73 676.668 1345.73H651.819C643.267 1345.73 626.163 1341.51 626.163 1324.59C626.163 1304 643.163 1304 651.819 1304H705.367C712.03 1304.4 725.355 1304 725.355 1304H925.562C931.429 1304.2 943.163 1305.85 943.163 1318.85C943.163 1329.85 930.663 1332.04 925.562 1332.04H869.388C863.023 1332.73 850.295 1337.75 850.295 1352.29C850.295 1366.82 863.023 1372.64 869.388 1373.73H1062.48C1068.05 1372.93 1079.19 1375.75 1079.19 1393.38C1079.19 1411.01 1068.05 1414.43 1062.48 1413.93H857.455C852.88 1414.13 843.732 1417.44 843.732 1429.12C843.732 1440.79 852.88 1445.69 857.455 1446.69H873.863C881.42 1445.79 896.536 1448.06 896.536 1464.26C896.536 1480.46 881.42 1483.71 873.863 1483.31Z" fill="#E6EDF6"/>
<path d="M-9.69946 481.031H81.2907C97.4004 481.031 106.947 485.498 106.947 497.112C106.947 508.726 95.6104 513.788 80.3956 513.788C65.1809 513.788 58.3193 514.979 58.3193 529.273C58.3193 543.567 70.2525 545.95 80.3956 545.95H293.999C302.054 544.064 318.163 544.937 318.163 563.519C318.163 582.102 302.054 582.975 293.999 581.089H187.495C180.157 581.089 161.839 581.089 161.839 599.38C161.839 617.962 178.763 618.611 187.495 618.611H432.344C440.896 618.611 458 622.839 458 639.754C458 656.669 440.896 658.912 432.344 657.919H258.796C252.133 657.522 238.808 660.659 238.808 674H-291.399C-297.266 673.801 -309 669.593 -309 654.346C-309 639.099 -297.266 633.302 -291.399 632.309H-5.22458C1.13977 631.614 13.8685 626.592 13.8685 612.059C13.8685 597.527 1.13977 591.71 -5.22458 590.618H-198.32C-203.889 591.412 -215.027 588.593 -215.027 570.964C-215.027 553.335 -203.889 549.92 -198.32 550.416H6.70859C11.283 550.218 20.4316 546.903 20.4316 535.229C20.4316 523.556 11.283 518.652 6.70859 517.659H-9.69946C-17.2571 518.553 -32.3724 516.29 -32.3724 500.09C-32.3724 483.89 -17.2571 480.634 -9.69946 481.031Z" fill="#E6EDF6"/>
<path d="M3.32675 2004.03H94.3169C110.427 2004.03 119.973 2008.5 119.973 2020.11C119.973 2031.72 108.637 2036.79 93.4218 2036.79C78.2071 2036.79 71.3456 2037.98 71.3456 2052.27C71.3456 2066.57 83.2787 2068.95 93.4218 2068.95H307.025C315.08 2067.06 331.189 2067.94 331.189 2086.52C331.189 2105.1 315.08 2105.97 307.025 2104.09H200.522C193.183 2104.09 174.865 2104.09 174.865 2122.38C174.865 2140.96 191.79 2141.61 200.522 2141.61H225.37C233.922 2141.61 251.026 2145.84 251.026 2162.75C251.026 2183.34 234.026 2183.34 225.37 2183.34H171.822C165.159 2182.95 151.834 2183.34 151.834 2183.34H-48.3724C-54.2396 2183.15 -65.9738 2181.5 -65.9738 2168.5C-65.9738 2157.5 -53.4738 2155.31 -48.3724 2155.31H7.80164C14.166 2154.61 26.8947 2149.59 26.8947 2135.06C26.8947 2120.53 14.166 2114.71 7.80164 2113.62H-185.294C-190.863 2114.41 -202 2111.59 -202 2093.96C-202 2076.33 -190.863 2072.92 -185.294 2073.42H19.7348C24.3092 2073.22 33.4579 2069.9 33.4579 2058.23C33.4579 2046.55 24.3092 2041.65 19.7348 2040.66H3.32675C-4.2309 2041.55 -19.3462 2039.29 -19.3462 2023.09C-19.3462 2006.89 -4.2309 2003.63 3.32675 2004.03Z" fill="#E6EDF6"/>
</svg>
