<svg width="828" height="3595" viewBox="0 0 828 3595" fill="none" xmlns="http://www.w3.org/2000/svg">
<path d="M243.863 1522.31H152.873C136.763 1522.31 127.216 1517.85 127.216 1506.23C127.216 1494.62 138.553 1489.56 153.768 1489.56C168.982 1489.56 175.844 1488.37 175.844 1474.07C175.844 1459.78 163.911 1457.4 153.768 1457.4H-59.8355C-67.8903 1459.28 -84 1458.41 -84 1439.83C-84 1421.24 -67.8903 1420.37 -59.8355 1422.26H46.6678C54.0063 1422.26 72.324 1422.26 72.324 1403.97C72.324 1385.38 55.3999 1384.73 46.6678 1384.73H21.8195C13.2674 1384.73 -3.83676 1380.51 -3.83676 1363.59C-3.83676 1343 13.1632 1343 21.8195 1343H75.3673C82.03 1343.4 95.3553 1343 95.3553 1343H295.562C301.429 1343.2 313.163 1344.85 313.163 1357.85C313.163 1368.85 300.663 1371.04 295.562 1371.04H239.388C233.023 1371.73 220.295 1376.75 220.295 1391.29C220.295 1405.82 233.023 1411.64 239.388 1412.73H432.484C438.052 1411.93 449.19 1414.75 449.19 1432.38C449.19 1450.01 438.052 1453.43 432.484 1452.93H227.455C222.88 1453.13 213.732 1456.44 213.732 1468.12C213.732 1479.79 222.88 1484.69 227.455 1485.69H243.863C251.42 1484.79 266.536 1487.06 266.536 1503.26C266.536 1519.46 251.42 1522.71 243.863 1522.31Z" fill="#E6EDF6"/>
<path d="M810.301 0.0310134H901.291C917.4 0.0310134 926.947 4.49789 926.947 16.1118C926.947 27.7256 915.61 32.7881 900.396 32.7881C885.181 32.7881 878.319 33.9793 878.319 48.2733C878.319 62.5673 890.252 64.9496 900.396 64.9496H1114C1122.05 63.0636 1138.16 63.9371 1138.16 82.5193C1138.16 101.102 1122.05 101.975 1114 100.089H1007.5C1000.16 100.089 981.839 100.089 981.839 118.38C981.839 136.962 998.763 137.611 1007.5 137.611H1252.34C1260.9 137.611 1278 141.839 1278 158.754C1278 175.669 1260.9 177.912 1252.34 176.919H1078.8C1072.13 176.522 1058.81 179.659 1058.81 193H528.601C522.734 192.801 511 188.593 511 173.346C511 158.099 522.734 152.302 528.601 151.309H814.775C821.14 150.614 833.868 145.592 833.868 131.059C833.868 116.527 821.14 110.71 814.775 109.618H621.68C616.111 110.412 604.973 107.593 604.973 89.9641C604.973 72.3348 616.111 68.9202 621.68 69.4165H826.709C831.283 69.2179 840.432 65.9025 840.432 54.2291C840.432 42.5557 831.283 37.652 826.709 36.6594H810.301C802.743 37.5528 787.628 35.2895 787.628 19.0897C787.628 2.88981 802.743 -0.366042 810.301 0.0310134Z" fill="#E6EDF6"/>
<path d="M702.917 1913.03H784.978C799.507 1913.03 808.117 1917.1 808.117 1927.68C808.117 1938.27 797.893 1942.88 784.171 1942.88C770.449 1942.88 764.261 1943.96 764.261 1956.99C764.261 1970.02 775.023 1972.19 784.171 1972.19H850.552C859.096 1972.19 871.723 1975.8 871.723 1992.74C871.723 2009.67 859.096 2012.89 850.552 2012.89H794.613H659.067C654.044 2013.62 644 2011.05 644 1994.98C644 1978.92 654.044 1975.8 659.067 1976.26H717.715C721.84 1976.08 730.091 1973.05 730.091 1962.42C730.091 1951.78 721.84 1947.31 717.715 1946.41H702.917C696.101 1947.22 682.469 1945.16 682.469 1930.4C682.469 1915.63 696.101 1912.67 702.917 1913.03Z" fill="#E6EDF6"/>
<path d="M21.3005 2503.03H112.291C128.4 2503.03 137.947 2507.5 137.947 2519.11C137.947 2530.73 126.61 2535.79 111.396 2535.79C96.1809 2535.79 89.3193 2536.98 89.3193 2551.27C89.3193 2565.57 101.252 2567.95 111.396 2567.95H324.999C333.054 2566.06 349.163 2566.94 349.163 2585.52C349.163 2604.1 333.054 2604.98 324.999 2603.09H218.495C211.157 2603.09 192.839 2603.09 192.839 2621.38C192.839 2639.96 209.763 2640.61 218.495 2640.61H463.344C471.896 2640.61 489 2644.84 489 2661.75C489 2678.67 471.896 2680.91 463.344 2679.92H289.796C283.133 2679.52 269.808 2682.66 269.808 2696H-260.399C-266.266 2695.8 -278 2691.59 -278 2676.35C-278 2661.1 -266.266 2655.3 -260.399 2654.31H25.7754C32.1398 2653.61 44.8685 2648.59 44.8685 2634.06C44.8685 2619.53 32.1398 2613.71 25.7754 2612.62H-167.32C-172.889 2613.41 -184.027 2610.59 -184.027 2592.96C-184.027 2575.33 -172.889 2571.92 -167.32 2572.42H37.7086C42.283 2572.22 51.4316 2568.9 51.4316 2557.23C51.4316 2545.56 42.283 2540.65 37.7086 2539.66H21.3005C13.7429 2540.55 -1.37241 2538.29 -1.37241 2522.09C-1.37241 2505.89 13.7429 2502.63 21.3005 2503.03Z" fill="#E6EDF6"/>
<path d="M848.863 3285.31H757.873C741.763 3285.31 732.216 3280.85 732.216 3269.23C732.216 3257.62 743.553 3252.56 758.768 3252.56C773.982 3252.56 780.844 3251.37 780.844 3237.07C780.844 3222.78 768.911 3220.4 758.768 3220.4H545.165C537.11 3222.28 521 3221.41 521 3202.83C521 3184.24 537.11 3183.37 545.165 3185.26H651.668C659.006 3185.26 677.324 3185.26 677.324 3166.97C677.324 3148.38 660.4 3147.73 651.668 3147.73H626.819C618.267 3147.73 601.163 3143.51 601.163 3126.59C601.163 3106 618.163 3106 626.819 3106H680.367C687.03 3106.4 700.355 3106 700.355 3106H900.562C906.429 3106.2 918.163 3107.85 918.163 3120.85C918.163 3131.85 905.663 3134.04 900.562 3134.04H844.388C838.023 3134.73 825.295 3139.75 825.295 3154.29C825.295 3168.82 838.023 3174.64 844.388 3175.73H1037.48C1043.05 3174.93 1054.19 3177.75 1054.19 3195.38C1054.19 3213.01 1043.05 3216.43 1037.48 3215.93H832.455C827.88 3216.13 818.732 3219.44 818.732 3231.12C818.732 3242.79 827.88 3247.69 832.455 3248.69H848.863C856.42 3247.79 871.536 3250.06 871.536 3266.26C871.536 3282.46 856.42 3285.71 848.863 3285.31Z" fill="#E6EDF6"/>
</svg>
