<svg width="1920" height="1017" viewBox="0 0 1920 1017" fill="none" xmlns="http://www.w3.org/2000/svg">
<path d="M1824.7 284.315H1733.71C1717.6 284.315 1708.05 279.848 1708.05 268.234C1708.05 256.62 1719.39 251.558 1734.6 251.558C1749.82 251.558 1756.68 250.366 1756.68 236.072C1756.68 221.778 1744.75 219.396 1734.6 219.396H1521C1512.95 221.282 1496.84 220.409 1496.84 201.826C1496.84 183.244 1512.95 182.371 1521 184.257H1627.5C1634.84 184.257 1653.16 184.257 1653.16 165.966C1653.16 147.384 1636.24 146.735 1627.5 146.735H1602.66C1594.1 146.735 1577 142.506 1577 125.592C1577 105 1594 105 1602.66 105H1656.2C1662.87 105.397 1676.19 105 1676.19 105H1876.4C1882.27 105.199 1894 106.846 1894 119.846C1894 130.846 1881.5 133.037 1876.4 133.037H1820.22C1813.86 133.731 1801.13 138.754 1801.13 153.286C1801.13 167.819 1813.86 173.635 1820.22 174.727H2013.32C2018.89 173.933 2030.03 176.752 2030.03 194.382C2030.03 212.011 2018.89 215.426 2013.32 214.929H1808.29C1803.72 215.128 1794.57 218.443 1794.57 230.117C1794.57 241.79 1803.72 246.694 1808.29 247.686H1824.7C1832.26 246.793 1847.37 249.056 1847.37 265.256C1847.37 281.456 1832.26 284.712 1824.7 284.315Z" fill="#E6EDF6"/>
<path d="M170.194 526.028H252.256C266.784 526.028 275.394 530.099 275.394 540.682C275.394 551.265 265.17 555.879 251.448 555.879C237.727 555.879 231.538 556.964 231.538 569.99C231.538 583.016 242.3 585.186 251.448 585.186H317.829C326.374 585.186 339 588.803 339 605.736C339 622.669 326.374 625.892 317.829 625.892H261.89H126.344C121.322 626.615 111.277 624.046 111.277 607.981C111.277 591.916 121.322 588.805 126.344 589.257H184.992C189.117 589.076 197.368 586.055 197.368 575.417C197.368 564.78 189.117 560.311 184.992 559.407H170.194C163.378 560.221 149.746 558.158 149.746 543.396C149.746 528.633 163.378 525.666 170.194 526.028Z" fill="#E6EDF6"/>
</svg>
