<svg width="67" height="68" viewBox="0 0 67 68" fill="none" xmlns="http://www.w3.org/2000/svg">
<path d="M67 34C67 52.5015 52.0015 67.5 33.5 67.5C14.9985 67.5 0 52.5015 0 34C0 15.4985 14.9985 0.5 33.5 0.5C52.0015 0.5 67 15.4985 67 34Z" fill="white" fill-opacity="0.7"/>
<path d="M41 49.5L26 34L41 18.5" stroke="#B5B5B5" stroke-width="5" stroke-linecap="round"/>
<path d="M33.5 1.5C51.4493 1.5 66 16.0507 66 34H68C68 14.9462 52.5538 -0.5 33.5 -0.5V1.5ZM1 34C1 16.0507 15.5507 1.5 33.5 1.5V-0.5C14.4462 -0.5 -1 14.9462 -1 34H1ZM33.5 66.5C15.5507 66.5 1 51.9493 1 34H-1C-1 53.0538 14.4462 68.5 33.5 68.5V66.5ZM33.5 68.5C52.5538 68.5 68 53.0538 68 34H66C66 51.9493 51.4493 66.5 33.5 66.5V68.5Z" fill="#B5B5B5"/>
</svg>
