<svg width="535" height="180" viewBox="0 0 535 180" fill="none" xmlns="http://www.w3.org/2000/svg">
<path d="M328.7 179.315H237.709C221.6 179.315 212.053 174.848 212.053 163.234C212.053 151.62 223.39 146.558 238.605 146.558C253.819 146.558 260.681 145.366 260.681 131.072C260.681 116.778 248.748 114.396 238.605 114.396H25.0014C16.9466 116.282 0.836914 115.409 0.836914 96.8264C0.836914 78.2442 16.9466 77.3707 25.0014 79.2567H131.505C138.843 79.2567 157.161 79.2567 157.161 60.966C157.161 42.3838 140.237 41.7349 131.505 41.7349H106.656C98.1043 41.7349 81.0002 37.5063 81.0002 20.5918C81.0002 -3.05176e-05 98.0001 -3.05176e-05 106.656 -3.05176e-05H160.204C166.867 0.397018 180.192 -3.05176e-05 180.192 -3.05176e-05H380.399C386.266 0.198502 398 1.8457 398 14.8457C398 25.8457 385.5 28.0365 380.399 28.0365H324.225C317.86 28.7314 305.132 33.7541 305.132 48.2863C305.132 62.8186 317.86 68.6355 324.225 69.7274H517.32C522.889 68.9332 534.027 71.7523 534.027 89.3816C534.027 107.011 522.889 110.426 517.32 109.929H312.292C307.717 110.128 298.569 113.443 298.569 125.117C298.569 136.79 307.717 141.694 312.292 142.686H328.7C336.257 141.793 351.373 144.056 351.373 160.256C351.373 176.456 336.257 179.712 328.7 179.315Z" fill="#E6EDF6"/>
</svg>
