<svg width="767" height="193" viewBox="0 0 767 193" fill="none" xmlns="http://www.w3.org/2000/svg">
<path d="M299.301 0.0310134H390.291C406.4 0.0310134 415.947 4.49789 415.947 16.1118C415.947 27.7256 404.61 32.7881 389.396 32.7881C374.181 32.7881 367.319 33.9793 367.319 48.2733C367.319 62.5673 379.252 64.9496 389.396 64.9496H602.999C611.054 63.0636 627.163 63.9371 627.163 82.5193C627.163 101.102 611.054 101.975 602.999 100.089H496.495C489.157 100.089 470.839 100.089 470.839 118.38C470.839 136.962 487.763 137.611 496.495 137.611H741.344C749.896 137.611 767 141.839 767 158.754C767 175.669 749.896 177.912 741.344 176.919H567.796C561.133 176.522 547.808 179.659 547.808 193H17.6014C11.7343 192.801 0 188.593 0 173.346C0 158.099 11.7343 152.302 17.6014 151.309H303.775C310.14 150.614 322.868 145.592 322.868 131.059C322.868 116.527 310.14 110.71 303.775 109.618H110.68C105.111 110.412 93.9734 107.593 93.9734 89.9641C93.9734 72.3348 105.111 68.9202 110.68 69.4165H315.709C320.283 69.2179 329.432 65.9025 329.432 54.2291C329.432 42.5557 320.283 37.652 315.709 36.6594H299.301C291.743 37.5528 276.628 35.2895 276.628 19.0897C276.628 2.88981 291.743 -0.366042 299.301 0.0310134Z" fill="#E6EDF6"/>
</svg>
