<svg width="228" height="100" viewBox="0 0 228 100" fill="none" xmlns="http://www.w3.org/2000/svg">
<path d="M59.194 0.0282615H141.256C155.784 0.0282615 164.394 4.09878 164.394 14.6821C164.394 25.2655 154.17 29.8787 140.448 29.8787C126.727 29.8787 120.538 30.9642 120.538 43.9899C120.538 57.0155 131.3 59.1865 140.448 59.1865H206.829C215.374 59.1865 228 62.8026 228 79.7359C228 96.6693 215.374 99.8916 206.829 99.8916H150.89H15.3442C10.3218 100.615 0.277222 98.0464 0.277222 81.9814C0.277222 65.9164 10.3218 62.8047 15.3442 63.257H73.9919C78.1174 63.0761 86.3684 60.0548 86.3684 49.4172C86.3684 38.7796 78.1174 34.3111 73.9919 33.4065H59.194C52.3779 34.2206 38.7459 32.1582 38.7459 17.3958C38.7459 2.63339 52.3779 -0.333562 59.194 0.0282615Z" fill="#E6EDF6"/>
</svg>
