<svg width="1326" height="257" viewBox="0 0 1326 257" fill="none" xmlns="http://www.w3.org/2000/svg">
<path d="M411.901 256.976L944.643 256.976C957.127 256.976 964.526 253.504 964.526 244.478C964.526 235.452 955.74 231.518 943.95 231.518C932.159 231.518 926.842 230.592 926.842 219.483C926.842 208.375 936.089 206.523 943.95 206.523L1067.61 206.523C1073.86 207.989 1086.34 207.31 1086.34 192.868C1086.34 178.427 1073.86 177.748 1067.61 179.214L985.078 179.214C978.451 180.68 965.196 180.001 965.196 165.559C965.196 151.118 978.451 149.204 985.078 150.053L1208.5 150.053C1215.13 150.053 1228.39 146.767 1228.39 133.621C1228.39 120.476 1215.13 118.732 1208.5 119.504H1157.56C1152.4 119.812 1142.07 117.837 1142.07 107.469C1142.07 97.1007 1152.4 94.3544 1157.56 94.2772L1310.05 94.2772C1315.37 95.4344 1326 94.5549 1326 81.7797C1326 69.0045 1315.37 66.7365 1310.05 67.1994L1114.72 67.1994C1108.63 69.0508 1096.46 68.6805 1096.46 52.3875C1096.46 36.0945 1108.63 34.9527 1114.72 36.4185L1182.41 36.4185C1189.19 37.73 1202.75 36.0482 1202.75 18.8295C1202.75 1.6107 1189.19 -0.533936 1182.41 0.546082L473.404 0.546082C466.005 -1.15109 451.209 0.129517 451.209 18.8295C451.209 37.5294 439.187 40.9701 433.176 40.3529L19.1887 40.3529C12.7925 40.5072 0 43.917 0 56.3219C0 68.7268 12.7925 72.4452 19.1887 72.7538L158.129 72.7538C163.832 72.9852 175.237 76.827 175.237 90.3428C175.237 103.859 163.832 107.083 158.129 107.006H144.711C140.165 107.16 131.071 110.431 131.071 122.281C131.071 134.13 140.165 138.636 144.711 139.407L316.56 139.407C321.492 139.947 331.356 143.851 331.356 155.145C331.356 166.439 322.388 171.808 316.56 171.808L133.105 171.808C128.79 171.191 119.322 173.382 119.322 187.083C119.322 200.784 127.953 203.437 132.268 203.052L489.094 203.052C492.639 203.206 499.729 205.783 499.729 214.855C499.729 223.927 492.639 227.738 489.094 228.509L411.901 228.509C406.045 227.815 394.331 229.574 394.331 242.164C394.331 254.754 406.045 257.284 411.901 256.976Z" fill="#E6EDF6"/>
</svg>
