<svg width="819" height="308" viewBox="0 0 819 308" fill="none" xmlns="http://www.w3.org/2000/svg">
<path d="M541.127 0.0288857H456.651C441.694 0.0288857 432.831 4.18931 432.831 15.0064C432.831 25.8235 443.356 30.5387 457.482 30.5387C471.607 30.5387 477.978 31.6481 477.978 44.9615C477.978 58.2748 466.899 60.4937 457.482 60.4937H259.171C251.693 58.7371 236.736 59.5507 236.736 76.858C236.736 94.1654 251.693 94.979 259.171 93.2224H358.049C365.989 91.4658 381.869 92.2794 381.869 109.587C381.869 126.894 365.989 129.187 358.049 128.17H130.73C122.79 128.17 106.911 132.108 106.911 147.863C106.911 163.617 122.79 165.706 130.73 164.782H291.853C298.039 164.412 310.41 166.779 310.41 179.204C310.41 191.63 298.039 194.922 291.853 195.014H19.111C12.7406 193.627 0 194.681 0 209.992C0 225.302 12.7406 228.02 19.111 227.465H282.99C290.284 225.246 304.871 225.69 304.871 245.217C304.871 264.743 290.284 266.111 282.99 264.354H121.867C113.743 262.783 97.4936 264.798 97.4936 285.434C97.4936 306.07 113.5 307.5 121.867 307.345H459.421C469.5 308 486.01 305 486.01 285.434C486.01 263.023 500.412 258.9 507.613 259.639H562.177C569.839 259.454 585.165 255.368 585.165 240.501C585.165 225.635 569.839 221.178 562.177 220.809H486.01C479.178 220.531 465.514 215.927 465.514 199.729C465.514 183.531 479.178 179.667 486.01 179.759H802.659C808.106 179.574 819 175.654 819 161.453C819 147.252 808.106 141.853 802.659 140.929H536.972C531.064 140.281 519.246 135.603 519.246 122.068C519.246 108.533 531.064 103.115 536.972 102.098H716.244C721.414 102.838 731.754 100.212 731.754 83.7921C731.754 67.3723 721.414 64.1919 716.244 64.6541H525.893C521.647 64.4692 513.153 61.3813 513.153 50.5087C513.153 39.6361 521.647 35.0689 525.893 34.1444H541.127C548.143 34.9764 562.177 32.8685 562.177 17.78C562.177 2.69155 548.143 -0.34093 541.127 0.0288857Z" fill="#E6EDF6"/>
</svg>
