<svg width="977" height="41" xmlns="http://www.w3.org/2000/svg"><g fill="none" fill-rule="evenodd" opacity=".7" stroke-linecap="square"><path stroke="#FFF" stroke-width="2" d="M3.5 22V1M60.5 22V1M517.5 22V1M973.5 22V1M288.5 22V1M745.5 22V1M174.5 22V1M631.5 22V1M402.5 22V1M859.5 22V1M117.5 22V1M574.5 22V1M345.5 22V1M802.5 22V1M231.5 22V1M688.5 22V1M459.5 22V1M916.5 22V1M14.5 22V10M471.5 22V10M927.5 22V10M243.5 22V10M699.5 22V10M129.5 22V10M585.5 22V10M357.5 22V10M813.5 22V10M72.5 22V10M528.5 22V10M300.5 22V10M756.5 22V10M186.5 22V10M642.5 22V10M414.5 22V10M870.5 22V10M37.5 22V10M494.5 22V10M950.5 22V10M266.5 22V10M722.5 22V10M151.5 22V10M608.5 22V10M380.5 22V10M836.5 22V10M94.5 22V10M551.5 22V10M323.5 22V10M779.5 22V10M208.5 22V10M665.5 22V10M437.5 22V10M893.5 22V10M26.5 22V10M482.5 22V10M939.5 22V10M254.5 22V10M710.5 22V10M140.5 22V10M596.5 22V10M368.5 22V10M825.5 22V10M83.5 22V10M539.5 22V10M311.5 22V10M768.5 22V10M197.5 22V10M653.5 22V10M425.5 22V10M882.5 22V10M49.5 22V10M505.5 22V10M962.5 22V10M277.5 22V10M733.5 22V10M163.5 22V10M619.5 22V10M391.5 22V10M847.5 22V10M106.5 22V10M562.5 22V10M334.5 22V10M790.5 22V10M220.5 22V10M676.5 22V10M448.5 22V10M904.5 22V10"/><path stroke="#A15858" stroke-width="6" d="M974 38H3"/></g></svg>