<?xml version="1.0" encoding="UTF-8"?>
<svg width="977px" height="41px" viewBox="0 0 977 41" version="1.1" xmlns="http://www.w3.org/2000/svg" xmlns:xlink="http://www.w3.org/1999/xlink">
    <title>Deco_line_02</title>
    <g id="Page-1" stroke="none" stroke-width="1" fill="none" fill-rule="evenodd" opacity="0.7" stroke-linecap="square">
        <g id="Index" transform="translate(-62.000000, -4136.000000)">
            <g id="first-take" transform="translate(65.000000, 3295.000000)">
                <g id="Deco_line_02" transform="translate(485.500000, 861.000000) rotate(-180.000000) translate(-485.500000, -861.000000) translate(0.000000, 842.000000)">
                    <line x1="970.5" y1="17" x2="970.5" y2="38" id="Line-4-Copy" stroke="#FFFFFF" stroke-width="2"></line>
                    <line x1="913.5" y1="17" x2="913.5" y2="38" id="Line-4-Copy-6" stroke="#FFFFFF" stroke-width="2"></line>
                    <line x1="456.5" y1="17" x2="456.5" y2="38" id="Line-4-Copy-42" stroke="#FFFFFF" stroke-width="2"></line>
                    <line x1="0.5" y1="17" x2="0.5" y2="38" id="Line-4-Copy-82" stroke="#FFFFFF" stroke-width="2"></line>
                    <line x1="685.5" y1="17" x2="685.5" y2="38" id="Line-4-Copy-22" stroke="#FFFFFF" stroke-width="2"></line>
                    <line x1="228.5" y1="17" x2="228.5" y2="38" id="Line-4-Copy-43" stroke="#FFFFFF" stroke-width="2"></line>
                    <line x1="799.5" y1="17" x2="799.5" y2="38" id="Line-4-Copy-12" stroke="#FFFFFF" stroke-width="2"></line>
                    <line x1="342.5" y1="17" x2="342.5" y2="38" id="Line-4-Copy-44" stroke="#FFFFFF" stroke-width="2"></line>
                    <line x1="571.5" y1="17" x2="571.5" y2="38" id="Line-4-Copy-23" stroke="#FFFFFF" stroke-width="2"></line>
                    <line x1="114.5" y1="17" x2="114.5" y2="38" id="Line-4-Copy-45" stroke="#FFFFFF" stroke-width="2"></line>
                    <line x1="856.5" y1="17" x2="856.5" y2="38" id="Line-4-Copy-7" stroke="#FFFFFF" stroke-width="2"></line>
                    <line x1="399.5" y1="17" x2="399.5" y2="38" id="Line-4-Copy-46" stroke="#FFFFFF" stroke-width="2"></line>
                    <line x1="628.5" y1="17" x2="628.5" y2="38" id="Line-4-Copy-24" stroke="#FFFFFF" stroke-width="2"></line>
                    <line x1="171.5" y1="17" x2="171.5" y2="38" id="Line-4-Copy-47" stroke="#FFFFFF" stroke-width="2"></line>
                    <line x1="742.5" y1="17" x2="742.5" y2="38" id="Line-4-Copy-13" stroke="#FFFFFF" stroke-width="2"></line>
                    <line x1="285.5" y1="17" x2="285.5" y2="38" id="Line-4-Copy-48" stroke="#FFFFFF" stroke-width="2"></line>
                    <line x1="514.5" y1="17" x2="514.5" y2="38" id="Line-4-Copy-25" stroke="#FFFFFF" stroke-width="2"></line>
                    <line x1="57.5" y1="17" x2="57.5" y2="38" id="Line-4-Copy-49" stroke="#FFFFFF" stroke-width="2"></line>
                    <line x1="959.5" y1="17" x2="959.5" y2="29" id="Line-4-Copy-2" stroke="#FFFFFF" stroke-width="2"></line>
                    <line x1="502.5" y1="17" x2="502.5" y2="29" id="Line-4-Copy-50" stroke="#FFFFFF" stroke-width="2"></line>
                    <line x1="46.5" y1="17" x2="46.5" y2="29" id="Line-4-Copy-90" stroke="#FFFFFF" stroke-width="2"></line>
                    <line x1="730.5" y1="17" x2="730.5" y2="29" id="Line-4-Copy-26" stroke="#FFFFFF" stroke-width="2"></line>
                    <line x1="274.5" y1="17" x2="274.5" y2="29" id="Line-4-Copy-51" stroke="#FFFFFF" stroke-width="2"></line>
                    <line x1="844.5" y1="17" x2="844.5" y2="29" id="Line-4-Copy-14" stroke="#FFFFFF" stroke-width="2"></line>
                    <line x1="388.5" y1="17" x2="388.5" y2="29" id="Line-4-Copy-52" stroke="#FFFFFF" stroke-width="2"></line>
                    <line x1="616.5" y1="17" x2="616.5" y2="29" id="Line-4-Copy-27" stroke="#FFFFFF" stroke-width="2"></line>
                    <line x1="160.5" y1="17" x2="160.5" y2="29" id="Line-4-Copy-53" stroke="#FFFFFF" stroke-width="2"></line>
                    <line x1="901.5" y1="17" x2="901.5" y2="29" id="Line-4-Copy-8" stroke="#FFFFFF" stroke-width="2"></line>
                    <line x1="445.5" y1="17" x2="445.5" y2="29" id="Line-4-Copy-54" stroke="#FFFFFF" stroke-width="2"></line>
                    <line x1="673.5" y1="17" x2="673.5" y2="29" id="Line-4-Copy-28" stroke="#FFFFFF" stroke-width="2"></line>
                    <line x1="217.5" y1="17" x2="217.5" y2="29" id="Line-4-Copy-55" stroke="#FFFFFF" stroke-width="2"></line>
                    <line x1="787.5" y1="17" x2="787.5" y2="29" id="Line-4-Copy-15" stroke="#FFFFFF" stroke-width="2"></line>
                    <line x1="331.5" y1="17" x2="331.5" y2="29" id="Line-4-Copy-56" stroke="#FFFFFF" stroke-width="2"></line>
                    <line x1="559.5" y1="17" x2="559.5" y2="29" id="Line-4-Copy-29" stroke="#FFFFFF" stroke-width="2"></line>
                    <line x1="103.5" y1="17" x2="103.5" y2="29" id="Line-4-Copy-57" stroke="#FFFFFF" stroke-width="2"></line>
                    <line x1="936.5" y1="17" x2="936.5" y2="29" id="Line-4-Copy-4" stroke="#FFFFFF" stroke-width="2"></line>
                    <line x1="479.5" y1="17" x2="479.5" y2="29" id="Line-4-Copy-58" stroke="#FFFFFF" stroke-width="2"></line>
                    <line x1="23.5" y1="17" x2="23.5" y2="29" id="Line-4-Copy-98" stroke="#FFFFFF" stroke-width="2"></line>
                    <line x1="707.5" y1="17" x2="707.5" y2="29" id="Line-4-Copy-30" stroke="#FFFFFF" stroke-width="2"></line>
                    <line x1="251.5" y1="17" x2="251.5" y2="29" id="Line-4-Copy-59" stroke="#FFFFFF" stroke-width="2"></line>
                    <line x1="822.5" y1="17" x2="822.5" y2="29" id="Line-4-Copy-16" stroke="#FFFFFF" stroke-width="2"></line>
                    <line x1="365.5" y1="17" x2="365.5" y2="29" id="Line-4-Copy-60" stroke="#FFFFFF" stroke-width="2"></line>
                    <line x1="593.5" y1="17" x2="593.5" y2="29" id="Line-4-Copy-31" stroke="#FFFFFF" stroke-width="2"></line>
                    <line x1="137.5" y1="17" x2="137.5" y2="29" id="Line-4-Copy-61" stroke="#FFFFFF" stroke-width="2"></line>
                    <line x1="879.5" y1="17" x2="879.5" y2="29" id="Line-4-Copy-9" stroke="#FFFFFF" stroke-width="2"></line>
                    <line x1="422.5" y1="17" x2="422.5" y2="29" id="Line-4-Copy-62" stroke="#FFFFFF" stroke-width="2"></line>
                    <line x1="650.5" y1="17" x2="650.5" y2="29" id="Line-4-Copy-32" stroke="#FFFFFF" stroke-width="2"></line>
                    <line x1="194.5" y1="17" x2="194.5" y2="29" id="Line-4-Copy-63" stroke="#FFFFFF" stroke-width="2"></line>
                    <line x1="765.5" y1="17" x2="765.5" y2="29" id="Line-4-Copy-17" stroke="#FFFFFF" stroke-width="2"></line>
                    <line x1="308.5" y1="17" x2="308.5" y2="29" id="Line-4-Copy-64" stroke="#FFFFFF" stroke-width="2"></line>
                    <line x1="536.5" y1="17" x2="536.5" y2="29" id="Line-4-Copy-33" stroke="#FFFFFF" stroke-width="2"></line>
                    <line x1="80.5" y1="17" x2="80.5" y2="29" id="Line-4-Copy-65" stroke="#FFFFFF" stroke-width="2"></line>
                    <line x1="947.5" y1="17" x2="947.5" y2="29" id="Line-4-Copy-3" stroke="#FFFFFF" stroke-width="2"></line>
                    <line x1="491.5" y1="17" x2="491.5" y2="29" id="Line-4-Copy-66" stroke="#FFFFFF" stroke-width="2"></line>
                    <line x1="34.5" y1="17" x2="34.5" y2="29" id="Line-4-Copy-106" stroke="#FFFFFF" stroke-width="2"></line>
                    <line x1="719.5" y1="17" x2="719.5" y2="29" id="Line-4-Copy-34" stroke="#FFFFFF" stroke-width="2"></line>
                    <line x1="263.5" y1="17" x2="263.5" y2="29" id="Line-4-Copy-67" stroke="#FFFFFF" stroke-width="2"></line>
                    <line x1="833.5" y1="17" x2="833.5" y2="29" id="Line-4-Copy-18" stroke="#FFFFFF" stroke-width="2"></line>
                    <line x1="377.5" y1="17" x2="377.5" y2="29" id="Line-4-Copy-68" stroke="#FFFFFF" stroke-width="2"></line>
                    <line x1="605.5" y1="17" x2="605.5" y2="29" id="Line-4-Copy-35" stroke="#FFFFFF" stroke-width="2"></line>
                    <line x1="148.5" y1="17" x2="148.5" y2="29" id="Line-4-Copy-69" stroke="#FFFFFF" stroke-width="2"></line>
                    <line x1="890.5" y1="17" x2="890.5" y2="29" id="Line-4-Copy-10" stroke="#FFFFFF" stroke-width="2"></line>
                    <line x1="434.5" y1="17" x2="434.5" y2="29" id="Line-4-Copy-70" stroke="#FFFFFF" stroke-width="2"></line>
                    <line x1="662.5" y1="17" x2="662.5" y2="29" id="Line-4-Copy-36" stroke="#FFFFFF" stroke-width="2"></line>
                    <line x1="205.5" y1="17" x2="205.5" y2="29" id="Line-4-Copy-71" stroke="#FFFFFF" stroke-width="2"></line>
                    <line x1="776.5" y1="17" x2="776.5" y2="29" id="Line-4-Copy-19" stroke="#FFFFFF" stroke-width="2"></line>
                    <line x1="320.5" y1="17" x2="320.5" y2="29" id="Line-4-Copy-72" stroke="#FFFFFF" stroke-width="2"></line>
                    <line x1="548.5" y1="17" x2="548.5" y2="29" id="Line-4-Copy-37" stroke="#FFFFFF" stroke-width="2"></line>
                    <line x1="91.5" y1="17" x2="91.5" y2="29" id="Line-4-Copy-73" stroke="#FFFFFF" stroke-width="2"></line>
                    <line x1="924.5" y1="17" x2="924.5" y2="29" id="Line-4-Copy-5" stroke="#FFFFFF" stroke-width="2"></line>
                    <line x1="468.5" y1="17" x2="468.5" y2="29" id="Line-4-Copy-74" stroke="#FFFFFF" stroke-width="2"></line>
                    <line x1="11.5" y1="17" x2="11.5" y2="29" id="Line-4-Copy-114" stroke="#FFFFFF" stroke-width="2"></line>
                    <line x1="696.5" y1="17" x2="696.5" y2="29" id="Line-4-Copy-38" stroke="#FFFFFF" stroke-width="2"></line>
                    <line x1="240.5" y1="17" x2="240.5" y2="29" id="Line-4-Copy-75" stroke="#FFFFFF" stroke-width="2"></line>
                    <line x1="810.5" y1="17" x2="810.5" y2="29" id="Line-4-Copy-20" stroke="#FFFFFF" stroke-width="2"></line>
                    <line x1="354.5" y1="17" x2="354.5" y2="29" id="Line-4-Copy-76" stroke="#FFFFFF" stroke-width="2"></line>
                    <line x1="582.5" y1="17" x2="582.5" y2="29" id="Line-4-Copy-39" stroke="#FFFFFF" stroke-width="2"></line>
                    <line x1="126.5" y1="17" x2="126.5" y2="29" id="Line-4-Copy-77" stroke="#FFFFFF" stroke-width="2"></line>
                    <line x1="867.5" y1="17" x2="867.5" y2="29" id="Line-4-Copy-11" stroke="#FFFFFF" stroke-width="2"></line>
                    <line x1="411.5" y1="17" x2="411.5" y2="29" id="Line-4-Copy-78" stroke="#FFFFFF" stroke-width="2"></line>
                    <line x1="639.5" y1="17" x2="639.5" y2="29" id="Line-4-Copy-40" stroke="#FFFFFF" stroke-width="2"></line>
                    <line x1="183.5" y1="17" x2="183.5" y2="29" id="Line-4-Copy-79" stroke="#FFFFFF" stroke-width="2"></line>
                    <line x1="753.5" y1="17" x2="753.5" y2="29" id="Line-4-Copy-21" stroke="#FFFFFF" stroke-width="2"></line>
                    <line x1="297.5" y1="17" x2="297.5" y2="29" id="Line-4-Copy-80" stroke="#FFFFFF" stroke-width="2"></line>
                    <line x1="525.5" y1="17" x2="525.5" y2="29" id="Line-4-Copy-41" stroke="#FFFFFF" stroke-width="2"></line>
                    <line x1="69.5" y1="17" x2="69.5" y2="29" id="Line-4-Copy-81" stroke="#FFFFFF" stroke-width="2"></line>
                    <line x1="0" y1="1" x2="971" y2="1" id="Line-3-Copy" stroke="#A15858" stroke-width="6"></line>
                </g>
            </g>
        </g>
    </g>
</svg>