<svg width="1376" height="43" xmlns="http://www.w3.org/2000/svg"><g fill="none" fill-rule="evenodd" opacity=".7" stroke-linecap="square"><path stroke="#FFF" stroke-width="2" d="M1372.5 21v21M1315.5 21v21M859.5 21v21M402.5 21v21M1087.5 21v21M630.5 21v21M174.5 21v21M1201.5 21v21M745.5 21v21M288.5 21v21M973.5 21v21M516.5 21v21M60.5 21v21M1258.5 21v21M802.5 21v21M345.5 21v21M1030.5 21v21M573.5 21v21M117.5 21v21M1144.5 21v21M688.5 21v21M231.5 21v21M916.5 21v21M459.5 21v21M3.5 21v21M1361.5 22v11M904.5 22v11M448.5 22v11M1132.5 22v11M676.5 22v11M220.5 22v11M1246.5 22v11M790.5 22v11M334.5 22v11M1018.5 22v11M562.5 22v11M106.5 22v11M1303.5 22v11M847.5 22v11M391.5 22v11M1075.5 22v11M619.5 22v11M163.5 22v11M1189.5 22v11M733.5 22v11M277.5 22v11M961.5 22v11M505.5 22v11M49.5 22v11M1338.5 22v11M881.5 22v11M425.5 22v11M1110.5 22v11M653.5 22v11M197.5 22v11M1224.5 22v11M767.5 22v11M311.5 22v11M995.5 22v11M539.5 22v11M83.5 22v11M1281.5 22v11M824.5 22v11M368.5 22v11M1053.5 22v11M596.5 22v11M140.5 22v11M1167.5 22v11M710.5 22v11M254.5 22v11M938.5 22v11M482.5 22v11M26.5 22v11M1349.5 22v11M893.5 22v11M437.5 22v11M1121.5 22v11M665.5 22v11M208.5 22v11M1235.5 22v11M779.5 22v11M322.5 22v11M1007.5 22v11M551.5 22v11M94.5 22v11M1292.5 22v11M836.5 22v11M380.5 22v11M1064.5 22v11M608.5 22v11M151.5 22v11M1178.5 22v11M722.5 22v11M265.5 22v11M950.5 22v11M494.5 22v11M37.5 22v11M1326.5 22v11M870.5 22v11M414.5 22v11M1098.5 22v11M642.5 22v11M186.5 22v11M1212.5 22v11M756.5 22v11M300.5 22v11M984.5 22v11M528.5 22v11M72.5 22v11M1269.5 22v11M813.5 22v11M357.5 22v11M1041.5 22v11M585.5 22v11M129.5 22v11M1155.5 22v11M699.5 22v11M243.5 22v11M927.5 22v11M471.5 22v11M14.5 22v11"/><path stroke="#A15858" stroke-width="6" d="M3 4l1369.43-.5"/></g></svg>