<?xml version="1.0" encoding="UTF-8"?>
<svg width="60px" height="25px" viewBox="0 0 60 25" version="1.1" xmlns="http://www.w3.org/2000/svg" xmlns:xlink="http://www.w3.org/1999/xlink">
    <title>Float_btn</title>
    <g id="Symbols" stroke="none" stroke-width="1" fill="none" fill-rule="evenodd">
        <g id="ALLBtn" transform="translate(-12.000000, -147.000000)">
            <g id="D_Float_btn" transform="translate(12.000000, 147.000000)">
                <path d="M10,0 L50,0 C55.5228475,-4.14344775e-15 60,4.4771525 60,10 L60,14 L60,14 L0,14 L0,10 C1.10000309e-15,4.4771525 4.4771525,2.79088747e-15 10,0 Z" id="up_bg" fill="#3B3A3A"></path>
                <rect id="Rectangle_bg" fill="#4B4B4B" x="0" y="14" width="60" height="11"></rect>
                <rect id="up_line" fill="#3F3F3F" x="18" y="18" width="24" height="2"></rect>
                <line x1="5.5" y1="5" x2="10" y2="10.2840305" id="close_left" stroke="#AAAAAA" stroke-linecap="square"></line>
                <line x1="10" y1="5" x2="5.5" y2="10.2840305" id="close_right" stroke="#AAAAAA" stroke-linecap="square"></line>
                <polyline id="arrow_01" stroke="#979797" points="50.1420152 5 47.5 7.64201523 50.1420152 10.2840305"></polyline>
                <polyline id="arrow_02" stroke="#979797" points="54.1420152 5 51.5 7.64201523 54.1420152 10.2840305"></polyline>
            </g>
        </g>
    </g>
</svg>