<?xml version="1.0" encoding="UTF-8"?>
<svg width="60px" height="49px" viewBox="0 0 60 49" version="1.1" xmlns="http://www.w3.org/2000/svg" xmlns:xlink="http://www.w3.org/1999/xlink">
    <title>H_About_icon</title>
    <defs>
        <path d="M30.9996028,129 C27.6856424,129 25,126.313563 25,122.999603 C25,119.685642 27.6856424,117 30.9996028,117 C34.3135632,117 37,119.685642 37,122.999603 C37,126.313563 34.3135632,129 30.9996028,129 Z" id="path-1"></path>
        <filter x="-41.7%" y="-41.7%" width="216.7%" height="216.7%" filterUnits="objectBoundingBox" id="filter-2">
            <feOffset dx="2" dy="2" in="SourceAlpha" result="shadowOffsetOuter1"></feOffset>
            <feGaussianBlur stdDeviation="2" in="shadowOffsetOuter1" result="shadowBlurOuter1"></feGaussianBlur>
            <feColorMatrix values="0 0 0 0 0.2   0 0 0 0 0.2   0 0 0 0 0.2  0 0 0 0.702305507 0" type="matrix" in="shadowBlurOuter1"></feColorMatrix>
        </filter>
        <path d="M30.4996254,131 L30.4996254,131 C24.7009669,131 20,135.610627 20,141.297852 C20,142.79039 21.2333107,144 22.7550933,144 L38.2441574,144 C39.7666893,144 41,142.79039 41,141.297852 C41,135.610627 36.2990331,131 30.4996254,131" id="path-3"></path>
        <filter x="-23.8%" y="-38.5%" width="166.7%" height="207.7%" filterUnits="objectBoundingBox" id="filter-4">
            <feOffset dx="2" dy="2" in="SourceAlpha" result="shadowOffsetOuter1"></feOffset>
            <feGaussianBlur stdDeviation="2" in="shadowOffsetOuter1" result="shadowBlurOuter1"></feGaussianBlur>
            <feColorMatrix values="0 0 0 0 0.2   0 0 0 0 0.2   0 0 0 0 0.2  0 0 0 0.702305507 0" type="matrix" in="shadowBlurOuter1"></feColorMatrix>
        </filter>
    </defs>
    <g id="Symbols" stroke="none" stroke-width="1" fill="none" fill-rule="evenodd">
        <g id="ALLBtn" transform="translate(-84.000000, -256.000000)">
            <g id="H_Float_btn" transform="translate(84.000000, 147.000000)">
                <rect id="Rectangle_bg" fill="#4B4B4B" x="0" y="109" width="60" height="49"></rect>
                <rect id="shape_background" fill="#262626" x="8" y="111" width="44" height="39"></rect>
                <g id="person_head">
                    <use fill="black" fill-opacity="1" filter="url(#filter-2)" xlink:href="#path-1"></use>
                    <use fill="#B0B0B0" fill-rule="evenodd" xlink:href="#path-1"></use>
                </g>
                <g id="person_figure">
                    <use fill="black" fill-opacity="1" filter="url(#filter-4)" xlink:href="#path-3"></use>
                    <use fill="#B0B0B0" fill-rule="evenodd" xlink:href="#path-3"></use>
                </g>
            </g>
        </g>
    </g>
</svg>