<?xml version="1.0" encoding="UTF-8"?>
<svg width="60px" height="39px" viewBox="0 0 60 39" version="1.1" xmlns="http://www.w3.org/2000/svg" xmlns:xlink="http://www.w3.org/1999/xlink">
    <title>H_Behance_icon</title>
    <defs>
        <path d="M26.71,46.3916667 C26.71,46.0783333 26.6566667,45.7766667 26.5483333,45.4883333 C26.4416667,45.2 26.2966667,44.95 26.1166667,44.735 C25.935,44.52 25.72,44.35 25.4733333,44.2266667 C25.225,44.1033333 24.9533333,44.0416667 24.6566667,44.0416667 L19.4133333,44.0416667 L19.4133333,48.6666667 L24.485,48.6666667 C24.7983333,48.6666667 25.09,48.6083333 25.3616667,48.4933333 C25.6333333,48.3783333 25.87,48.2183333 26.0666667,48.0116667 C26.265,47.8066667 26.4216667,47.5616667 26.5366667,47.2816667 C26.6516667,47.0016667 26.71,46.7033333 26.71,46.3916667 L26.71,46.3916667 Z M19.4133333,36.9183333 L19.4133333,41.3466667 L23.965,41.3466667 C24.5416667,41.3466667 25.0316667,41.1483333 25.4366667,40.7516667 C25.84,40.3566667 26.0416667,39.8133333 26.0416667,39.12 C26.0416667,38.4433333 25.8566667,37.9083333 25.485,37.5133333 C25.115,37.1183333 24.6566667,36.9183333 24.1133333,36.9183333 L19.4133333,36.9183333 Z M30.1483333,47.035 C30.1483333,47.7766667 30,48.4283333 29.7033333,48.9883333 C29.405,49.55 28.9983333,50.02 28.4783333,50.3966667 C27.9583333,50.7783333 27.3566667,51.0666667 26.6733333,51.2633333 C25.9883333,51.4616667 25.2583333,51.5616667 24.485,51.5616667 L16,51.5616667 L16,34 L25.3983333,34 C26.01,34 26.5616667,34.1333333 27.0566667,34.3966667 C27.55,34.66 27.9716667,35.0016667 28.3166667,35.4233333 C28.6633333,35.8433333 28.9316667,36.3216667 29.1216667,36.8566667 C29.3116667,37.3933333 29.405,37.9333333 29.405,38.4766667 C29.405,39.335 29.1916667,40.1383333 28.7633333,40.8883333 C28.3333333,41.6383333 27.7083333,42.195 26.8833333,42.5566667 C27.8883333,42.855 28.685,43.3866667 29.27,44.1533333 C29.855,44.92 30.1483333,45.88 30.1483333,47.035 L30.1483333,47.035 Z" id="path-1"></path>
        <filter x="-35.3%" y="-28.5%" width="199.0%" height="179.7%" filterUnits="objectBoundingBox" id="filter-2">
            <feOffset dx="2" dy="2" in="SourceAlpha" result="shadowOffsetOuter1"></feOffset>
            <feGaussianBlur stdDeviation="2" in="shadowOffsetOuter1" result="shadowBlurOuter1"></feGaussianBlur>
            <feColorMatrix values="0 0 0 0 0.2   0 0 0 0 0.2   0 0 0 0 0.2  0 0 0 0.702305507 0" type="matrix" in="shadowBlurOuter1"></feColorMatrix>
        </filter>
        <path d="M40.8001667,43.9876667 C40.7201667,43.046 40.3735,42.2893333 39.7585,41.7243333 C39.1418333,41.156 38.3951667,40.8726667 37.5168333,40.8726667 C37.0851667,40.8726667 36.6818333,40.9493333 36.3068333,41.101 C35.9318333,41.251 35.6001667,41.4626667 35.3118333,41.7343333 C35.0251667,42.0076667 34.7885,42.3343333 34.6051667,42.7176667 C34.4218333,43.101 34.3135,43.5243333 34.2818333,43.9876667 L40.8001667,43.9876667 Z M37.5401667,51.561 C36.5335,51.561 35.6235,51.3876667 34.8085,51.0443333 C33.1951667,50.3576667 32.0551667,49.2043333 31.3935,47.5826667 C31.0818333,46.7993333 30.9268333,45.976 30.9268333,45.1143333 C30.9268333,44.2193333 31.0785,43.3776667 31.3818333,42.586 C32.0318333,40.9443333 33.1701667,39.7743333 34.7968333,39.076 C35.6201667,38.7243333 36.5418333,38.5476667 37.5651667,38.5476667 C38.5868333,38.5476667 39.5018333,38.7243333 40.3085,39.076 C42.9601667,40.231 44.2101667,42.801 44.0951667,45.5926667 C44.0868333,45.7843333 44.0668333,45.946 44.0351667,46.0726667 L34.3301667,46.0726667 C34.3768333,46.5676667 34.4968333,47.0076667 34.6885,47.391 C34.8801667,47.7726667 35.1285,48.1026667 35.4318333,48.3726667 C35.7351667,48.6443333 36.0785,48.8526667 36.4618333,48.996 C36.8451667,49.141 37.2451667,49.2126667 37.6601667,49.2126667 C38.3001667,49.2126667 38.9018333,49.056 39.4701667,48.7443333 C40.0368333,48.4326667 40.4235,48.0226667 40.6318333,47.5093333 L43.3885,48.2776667 C42.9235,49.236 42.1868333,50.0226667 41.1718333,50.6376667 C40.1568333,51.2526667 38.9468333,51.561 37.5401667,51.561 L37.5401667,51.561 Z" id="path-3"></path>
        <filter x="-37.9%" y="-38.4%" width="206.3%" height="207.6%" filterUnits="objectBoundingBox" id="filter-4">
            <feOffset dx="2" dy="2" in="SourceAlpha" result="shadowOffsetOuter1"></feOffset>
            <feGaussianBlur stdDeviation="2" in="shadowOffsetOuter1" result="shadowBlurOuter1"></feGaussianBlur>
            <feColorMatrix values="0 0 0 0 0.2   0 0 0 0 0.2   0 0 0 0 0.2  0 0 0 0.702305507 0" type="matrix" in="shadowBlurOuter1"></feColorMatrix>
        </filter>
        <polygon id="path-5" points="33.3155 36.919 41.7188333 36.919 41.7188333 34.834 33.3155 34.834"></polygon>
        <filter x="-59.5%" y="-239.8%" width="266.6%" height="771.5%" filterUnits="objectBoundingBox" id="filter-6">
            <feOffset dx="2" dy="2" in="SourceAlpha" result="shadowOffsetOuter1"></feOffset>
            <feGaussianBlur stdDeviation="2" in="shadowOffsetOuter1" result="shadowBlurOuter1"></feGaussianBlur>
            <feColorMatrix values="0 0 0 0 0.2   0 0 0 0 0.2   0 0 0 0 0.2  0 0 0 0.702305507 0" type="matrix" in="shadowBlurOuter1"></feColorMatrix>
        </filter>
    </defs>
    <g id="Symbols" stroke="none" stroke-width="1" fill="none" fill-rule="evenodd">
        <g id="ALLBtn" transform="translate(-84.000000, -172.000000)">
            <g id="H_Float_btn" transform="translate(84.000000, 147.000000)">
                <rect id="Rectangle_bg" fill="#4B4B4B" x="0" y="25" width="60" height="39"></rect>
                <rect id="shape_background" fill="#262626" x="8" y="26" width="44" height="33"></rect>
                <g id="B-shape">
                    <use fill="black" fill-opacity="1" filter="url(#filter-2)" xlink:href="#path-1"></use>
                    <use fill="#B0B0B0" fill-rule="evenodd" xlink:href="#path-1"></use>
                </g>
                <g id="E-shape">
                    <use fill="black" fill-opacity="1" filter="url(#filter-4)" xlink:href="#path-3"></use>
                    <use fill="#B0B0B0" fill-rule="evenodd" xlink:href="#path-3"></use>
                </g>
                <g id="B_line">
                    <use fill="black" fill-opacity="1" filter="url(#filter-6)" xlink:href="#path-5"></use>
                    <use fill="#B0B0B0" fill-rule="evenodd" xlink:href="#path-5"></use>
                </g>
            </g>
        </g>
    </g>
</svg>