<svg width="237" height="70" fill="none" xmlns="http://www.w3.org/2000/svg"><path d="M129.25 19.518c2.327 0 3.552.256 4.269 3.842.427 2.134-1.708 3.144-3.842 3.201-11.702.316-17.752.908-20.288.825-3.171-.104-5.963.242-6.906-3.208-.923-3.38 1.797-3.787 3.356-3.787l23.411-.873zM29.389 16.984c.427-3.842 2.878-5.122 4.695-5.122 2.135 0 3.842 1.28 3.842 4.482 0 3.201-1.708 4.861-3.842 5.335-1.92.427-5.146-.64-4.695-4.695zM167.795 16.984c.427-3.842 2.878-5.122 4.696-5.122 2.134 0 3.841 1.28 3.841 4.482 0 3.201-1.707 4.861-3.841 5.335-1.921.427-5.147-.64-4.696-4.695z" fill="#6E97CB"/><path fill-rule="evenodd" clip-rule="evenodd" d="M32.57 23.788c-1.423-.071-4.567.47-5.762 3.201-1.494 3.415-2.775 10.031-2.988 13.233-.214 3.201 1.067 7.043 5.122 6.83 3.244-.171 4.624-1.637 4.909-2.348.142.64.896 2.006 2.774 2.347 2.348.427 5.336.214 6.83-4.695 1.494-4.909 3.842-10.671 5.976-12.805 2.134-2.135 2.988-2.135 3.628-1.708.64.427.427 2.775-.854 5.976-1.28 3.201-2.988 10.244-.853 12.165 2.134 1.921 8.323 2.775 12.592-5.762.07 1.707 1.323 5.42 5.762 6.616 4.44 1.195 8.537-1.779 10.031-3.415-.782 3.201-3.159 11.184-6.403 17.501-4.055 7.897-7.573 5.047-7.896 4.695-.45-.489-2.348-2.774.427-6.83 2.22-3.243.924-5.477 0-6.189-.996-1.209-3.586-2.902-5.976 0-2.988 3.629-2.348 10.245-.64 12.806 1.707 2.561 6.616 6.616 14.939 3.415 7.164-2.756 9.427-9.78 12.232-18.488.454-1.41.922-2.862 1.427-4.349 2.903-8.537 4.624-14.513 5.122-16.433.64-1.708 1.11-5.25-2.134-5.763-4.055-.64-5.976 1.28-6.403 4.269-.853-1.423-3.67-4.269-8.11-4.269-5.549 0-10.67 2.988-12.592 11.952-.355 1.138-1.28 3.713-2.134 4.909-1.067 1.494-2.134 1.92-2.561 1.494-.427-.427-.854-.854.427-3.842l.02-.045c1.294-3.022 4.652-10.855-.02-13.828-4.696-2.988-10.672 2.988-11.525 4.055v-1.707c.071-1.21-.64-3.5-4.055-2.988-3.515.527-4.425 2.936-4.875 4.128-.097.255-.172.454-.247.567-.095.143-.317.888-.64 1.971-1.127 3.787-3.487 11.713-5.977 12.542-.569.143-1.45-.341-.426-3.415 1.024-3.073 2.845-8.679 3.628-11.098.711-1.707 1.152-5.036-2.775-4.695zm47.442 5.48c-.641-1.042-3.022-2.322-5.549-.427-3.415 2.561-4.504 5.788-4.931 8.776-.427 2.988 1.303 7.658 5.998 4.457 4.695-3.202 6.19-10.031 4.482-12.806zM165.214 26.863c1.195-2.731 4.34-3.272 5.763-3.2 3.926-.342 3.486 2.987 2.774 4.695-.782 2.418-2.604 8.024-3.628 11.098-1.024 3.073-.142 3.557.427 3.414 2.489-.83 4.849-8.755 5.976-12.541.323-1.084.545-1.829.64-1.971.075-.114.151-.313.247-.568.45-1.192 1.36-3.6 4.875-4.128 3.415-.512 4.126 1.779 4.055 2.988v1.708c.854-1.068 6.83-7.044 11.525-4.056 4.672 2.973 1.315 10.806.02 13.828l-.02.045c-1.28 2.988-.854 3.415-.427 3.842.427.426 1.494 0 2.561-1.494.854-1.196 1.779-3.77 2.135-4.91 1.92-8.963 7.043-11.95 12.592-11.95 4.439 0 7.256 2.845 8.11 4.268.427-2.988 2.347-4.91 6.403-4.269 3.244.512 2.774 4.055 2.134 5.763-.498 1.92-2.22 7.896-5.122 16.433-.506 1.486-.974 2.94-1.428 4.348a190.01 190.01 0 01-1.63 4.914c2.479.445 5.201-.112 10.719-3.348.853-.5 1.92-.854 2.347-.213.265.397-.194 1.158-1.494 2.134a5.84 5.84 0 00-.376.335c-1.325 1.234-5.322 4.955-12.373 4.186-2.035 4.887-4.634 8.638-9.425 10.48-8.323 3.202-13.232-.853-14.939-3.414-1.696-2.543-1.565-7.838 2.266-10.465 1.449-1.263 5.981-3.633 13.718-2.403.509.081.99.17 1.445.267 1.464-3.924 2.594-7.476 3.059-9.382-1.494 1.637-5.591 4.61-10.03 3.415-4.44-1.195-5.692-4.909-5.763-6.616-4.268 8.537-10.458 7.683-12.592 5.762-2.134-1.92-.427-8.963.854-12.165 1.28-3.201 1.494-5.549.853-5.976-.64-.427-1.494-.427-3.628 1.708-2.134 2.134-4.482 7.896-5.976 12.805-1.494 4.909-4.482 5.122-6.829 4.695-1.878-.341-2.633-1.707-2.775-2.347-.284.711-1.665 2.177-4.909 2.347-4.055.214-5.335-3.628-5.122-6.83.214-3.2 1.494-9.817 2.988-13.232zm48.476 29.403c-2.303-.405-4.324-.46-6.066-.275l-.137.018c-.229.03-.485.062-.761.102-1.661.269-3.036.761-4.13 1.363-.724.476-1.352 1.115-1.762 1.981-1.608 3.394 2.021 5.472 2.901 5.975l.109.063c.618.365 4.886 1.859 7.897-4.695a108.615 108.615 0 001.949-4.532zm-.82-27.55c2.528-1.896 4.908-.616 5.549.426 1.708 2.774.214 9.604-4.481 12.805-4.696 3.202-6.426-1.468-5.999-4.456.427-2.988 1.517-6.215 4.931-8.776zM38.267 1.194c-.266-.19-.811-.217-1.64.433C32.08 5.195 24.865 3.11 20.45 1.599 15.225-.192 7.46-2.481.747 7.166c-.48.69-1.155 2.348-.427 2.988.539.474 2.035-.091 2.742-.75C4.33 8.222 8.355 5.655 14.945 6.82a14.866 14.866 0 00-.752 2.053L3.503 42.646c-.427 1.565-.427 4.653 2.987 4.482 4.15-.208 4.87-2.23 5.888-5.09.03-.08.059-.163.088-.246.854-2.39 6.778-20.397 10.05-31.638.14-.48.245-.896.307-1.261 10.873 2.134 14.298-3.279 14.671-3.989.484-.921 1.525-3.176.773-3.71zM176.137 1.194c-.266-.19-.81-.217-1.639.433-4.547 3.568-11.763 1.484-16.177-.028-5.226-1.791-12.991-4.08-19.703 5.567-.48.69-1.155 2.348-.427 2.988.538.474 2.034-.091 2.742-.75 1.266-1.181 5.292-3.748 11.882-2.583a14.93 14.93 0 00-.752 2.053l-10.69 33.772c-.427 1.565-.427 4.653 2.988 4.482 4.15-.208 4.87-2.23 5.888-5.09l.087-.246c.854-2.39 6.778-20.397 10.051-31.638.14-.48.244-.896.306-1.261 10.873 2.134 14.299-3.279 14.672-3.989.484-.921 1.524-3.176.772-3.71z" fill="#6E97CB"/></svg>