<svg width="50" height="50" viewBox="0 0 50 50" fill="none" xmlns="http://www.w3.org/2000/svg">
<path d="M24.9999 8.90991C21.8245 8.91371 18.7801 10.2469 16.5347 12.6171C14.2893 14.9872 13.0263 18.2007 13.0227 21.5525C13.0227 32.3706 23.9111 40.5452 24.3739 40.89C24.5593 41.0204 24.7771 41.0899 24.9999 41.0899C25.2227 41.0899 25.4406 41.0204 25.626 40.89C26.0888 40.5452 36.9772 32.3706 36.9772 21.5525C36.9736 18.2007 35.7105 14.9872 33.4651 12.6171C31.2198 10.2469 28.1754 8.91371 24.9999 8.90991ZM24.9999 16.9552C25.8613 16.9552 26.7034 17.2249 27.4196 17.73C28.1359 18.2352 28.6941 18.9532 29.0238 19.7932C29.3534 20.6333 29.4397 21.5576 29.2716 22.4494C29.1036 23.3412 28.6887 24.1604 28.0796 24.8033C27.4705 25.4463 26.6945 25.8841 25.8496 26.0615C25.0048 26.2389 24.1291 26.1479 23.3332 25.7999C22.5374 25.452 21.8572 24.8627 21.3786 24.1067C20.9 23.3507 20.6446 22.4618 20.6446 21.5525C20.6446 20.3333 21.1034 19.1639 21.9202 18.3017C22.737 17.4396 23.8448 16.9552 24.9999 16.9552Z" fill="#A67B4D"/>
</svg>
