<svg width="102" height="102" viewBox="0 0 102 102" fill="none" xmlns="http://www.w3.org/2000/svg">
<path d="M81.5 49.0455V81.5455C81.5 82.329 81.1935 83.0806 80.6479 83.6346C80.1024 84.1887 79.3624 84.5 78.5909 84.5H20.4091C19.6376 84.5 18.8976 84.1887 18.3521 83.6346C17.8065 83.0806 17.5 82.329 17.5 81.5455V22.4545C17.5 21.671 17.8065 20.9195 18.3521 20.3654C18.8976 19.8113 19.6376 19.5 20.4091 19.5H52.4091" fill="#FDD6AC"/>
<path fill-rule="evenodd" clip-rule="evenodd" d="M20.5 22.5H52.4091C54.0659 22.5 55.4091 21.1569 55.4091 19.5C55.4091 17.8431 54.0659 16.5 52.4091 16.5H20.4091C18.8268 16.5 17.3188 17.1388 16.2144 18.2606C15.1114 19.3807 14.5 20.8902 14.5 22.4545V81.5455C14.5 83.1098 15.1114 84.6193 16.2144 85.7394C17.3188 86.8612 18.8268 87.5 20.4091 87.5H78.5909C80.1732 87.5 81.6812 86.8612 82.7857 85.7394C83.8886 84.6193 84.5 83.1098 84.5 81.5455V49.0455C84.5 47.3886 83.1569 46.0455 81.5 46.0455C79.8431 46.0455 78.5 47.3886 78.5 49.0455V81.5H20.5V22.5Z" fill="#A67B4D"/>
<path d="M49.8077 64.5H37.5V52.1923L65.1923 24.5L77.5 36.8077L49.8077 64.5Z" fill="#F8EDE1"/>
<path d="M49.5 64.5H37.5V52.5L73.5 16.5L85.5 28.5L49.5 64.5Z" fill="#FDD6AC"/>
<path fill-rule="evenodd" clip-rule="evenodd" d="M71.3787 14.3787C72.5503 13.2071 74.4497 13.2071 75.6213 14.3787L87.6213 26.3787C88.7929 27.5503 88.7929 29.4497 87.6213 30.6213L51.6213 66.6213C51.0587 67.1839 50.2956 67.5 49.5 67.5H37.5C35.8431 67.5 34.5 66.1569 34.5 64.5V52.5C34.5 51.7043 34.8161 50.9413 35.3787 50.3787L71.3787 14.3787ZM40.5 53.7426V61.5H48.2574L81.2574 28.5L73.5 20.7426L40.5 53.7426Z" fill="#A67B4D"/>
<path fill-rule="evenodd" clip-rule="evenodd" d="M62.2886 23.4728C63.4081 22.2515 65.3058 22.169 66.5272 23.2886L78.5272 34.2886C79.7485 35.4081 79.8311 37.3058 78.7115 38.5272C77.5919 39.7485 75.6942 39.8311 74.4728 38.7115L62.4728 27.7115C61.2515 26.5919 61.169 24.6942 62.2886 23.4728Z" fill="#A67B4D"/>
</svg>
