<svg width="102" height="102" viewBox="0 0 102 102" fill="none" xmlns="http://www.w3.org/2000/svg">
<path d="M78.0833 20.5H23.9167C22.4801 20.5 21.1023 21.0736 20.0865 22.0946C19.0707 23.1157 18.5 24.5005 18.5 25.9444V64.0556C18.5 65.4995 19.0707 66.8843 20.0865 67.9054C21.1023 68.9264 22.4801 69.5 23.9167 69.5H78.0833C79.5199 69.5 80.8977 68.9264 81.9135 67.9054C82.9293 66.8843 83.5 65.4995 83.5 64.0556V25.9444C83.5 24.5005 82.9293 23.1157 81.9135 22.0946C80.8977 21.0736 79.5199 20.5 78.0833 20.5ZM45.5833 55.8889V34.1111L61.8333 45L45.5833 55.8889Z" fill="#FDD6AC"/>
<path fill-rule="evenodd" clip-rule="evenodd" d="M78.0833 66.5C79.4036 66.5 80.5 65.4201 80.5 64.0556V25.9444C80.5 24.5799 79.4036 23.5 78.0833 23.5L23.9167 23.5C22.5964 23.5 21.5 24.5799 21.5 25.9444V64.0556C21.5 65.4201 22.5964 66.5 23.9167 66.5L78.0833 66.5ZM86.5 64.0556C86.5 68.7048 82.7462 72.5 78.0833 72.5L23.9167 72.5C19.2538 72.5 15.5 68.7048 15.5 64.0556V25.9444C15.5 21.2952 19.2538 17.5 23.9167 17.5L78.0833 17.5C82.7462 17.5 86.5 21.2952 86.5 25.9444V64.0556Z" fill="#A67B4D"/>
<path fill-rule="evenodd" clip-rule="evenodd" d="M36.5 81.5C36.5 79.8431 37.8431 78.5 39.5 78.5H61.5C63.1569 78.5 64.5 79.8431 64.5 81.5C64.5 83.1569 63.1569 84.5 61.5 84.5H39.5C37.8431 84.5 36.5 83.1569 36.5 81.5Z" fill="#A67B4D"/>
<path fill-rule="evenodd" clip-rule="evenodd" d="M44.0457 32.8761C44.9996 32.3474 46.1652 32.378 47.09 32.956L63.09 42.956C63.9671 43.5042 64.5 44.4656 64.5 45.5C64.5 46.5344 63.9671 47.4958 63.09 48.044L47.09 58.044C46.1652 58.622 44.9996 58.6526 44.0457 58.1239C43.0918 57.5953 42.5 56.5906 42.5 55.5V35.5C42.5 34.4094 43.0918 33.4048 44.0457 32.8761ZM48.5 40.9127V50.0873L55.8396 45.5L48.5 40.9127Z" fill="#A67B4D"/>
</svg>
