<svg width="102" height="102" viewBox="0 0 102 102" fill="none" xmlns="http://www.w3.org/2000/svg">
<path d="M61.5814 36.2979C60.6927 34.771 60.4529 32.9571 60.9148 31.2551C61.3766 29.5531 62.5023 28.1026 64.0441 27.2225C65.5859 26.3424 67.4176 26.105 69.1362 26.5624C70.8548 27.0198 72.3195 28.1345 73.2082 29.6614L79.9095 41.1758C83.4641 47.2745 84.4267 54.5219 82.5856 61.3236C80.7445 68.1253 76.2504 73.924 70.092 77.4442C63.9337 80.9645 56.6155 81.9178 49.7474 80.0945C42.8793 78.2711 37.0239 73.8205 33.4693 67.7218L19.3965 43.5649C18.9565 42.8089 18.6711 41.9744 18.5568 41.1091C18.4424 40.2439 18.5012 39.3648 18.7299 38.5221C19.1918 36.8201 20.3174 35.3695 21.8592 34.4895C23.401 33.6094 25.2327 33.372 26.9513 33.8294C28.6699 34.2867 30.1346 35.4015 31.0233 36.9284L25.6622 27.7368C24.8611 26.2201 24.6826 24.4555 25.1642 22.8116C25.6458 21.1677 26.7501 19.7716 28.2465 18.915C29.7429 18.0584 31.5157 17.8075 33.1945 18.2147C34.8733 18.6219 36.3283 19.6558 37.2555 21.1003L39.9361 25.7127C39.1349 24.196 38.9565 22.4314 39.438 20.7875C39.9196 19.1435 41.0239 17.7475 42.5204 16.8908C44.0168 16.0342 45.7895 15.7833 47.4683 16.1906C49.1471 16.5978 50.6021 17.6317 51.5294 19.0762L61.5814 36.2979Z" fill="#FDD6AC"/>
<path fill-rule="evenodd" clip-rule="evenodd" d="M47.3342 20.1096C46.3238 19.8743 45.2619 20.0228 44.3809 20.5069C43.5037 20.989 42.8992 21.7493 42.6418 22.5928C42.6369 22.609 42.6342 22.6202 42.6329 22.6267C42.6323 22.6295 42.6319 22.6316 42.6317 22.6332C42.6319 22.6346 42.6321 22.6365 42.6325 22.6389C42.6335 22.6449 42.6354 22.6548 42.639 22.6692C42.6462 22.6983 42.6601 22.7454 42.6873 22.815C42.7461 22.9656 42.8425 23.1628 43.0125 23.4678C43.0884 23.6041 43.168 23.7427 43.2611 23.9047C43.2714 23.9225 43.2818 23.9406 43.2923 23.959C43.3949 24.1376 43.5111 24.3404 43.6285 24.5537C44.4272 26.0054 43.8979 27.8296 42.4463 28.6284C40.9947 29.4271 39.1704 28.8978 38.3717 27.4462C38.3157 27.3444 38.2423 27.217 38.1579 27.0707C37.8452 26.5281 37.3821 25.7246 37.0978 24.9961C36.6495 23.8473 36.414 22.4444 36.9031 20.8416C37.6343 18.4455 39.2967 16.4546 41.4913 15.2486C43.6821 14.0447 46.2593 13.6987 48.695 14.2659C51.1326 14.8336 53.2863 16.2841 54.6767 18.3635C54.7163 18.4228 54.7539 18.4835 54.7892 18.5454L63.6064 34.0144C64.4269 35.4538 63.9251 37.2858 62.4857 38.1063C61.0462 38.9268 59.2142 38.425 58.3937 36.9856L49.6377 21.6239C49.1213 20.8933 48.3099 20.3368 47.3342 20.1096Z" fill="#A67B4D"/>
<path fill-rule="evenodd" clip-rule="evenodd" d="M32.8955 20.6226C31.7773 20.3597 30.6008 20.5246 29.6204 21.0685C28.6432 21.6106 27.9566 22.4734 27.6622 23.4474C27.3741 24.4005 27.471 25.4235 27.9439 26.3206L33.7754 36.01C34.6297 37.4295 34.1716 39.2729 32.752 40.1273C31.3324 40.9817 29.489 40.5235 28.6346 39.1039L22.7654 29.3519C22.7434 29.3153 22.7221 29.2782 22.7017 29.2407C21.4427 26.9309 21.1578 24.2293 21.9189 21.7113C22.6789 19.197 24.4104 17.0973 26.7097 15.8218C29.0058 14.548 31.7108 14.1805 34.2685 14.7818C36.8279 15.3834 39.0796 16.9187 40.5291 19.1071C40.5531 19.1434 40.5763 19.1802 40.5988 19.2175L53.0708 39.9537C53.9248 41.3736 53.4661 43.2168 52.0463 44.0708C50.6265 44.9248 48.7832 44.4661 47.9292 43.0462L35.4955 22.3737C34.9127 21.5202 33.9921 20.8804 32.8955 20.6226Z" fill="#A67B4D"/>
<path fill-rule="evenodd" clip-rule="evenodd" d="M68.3602 30.127C67.4071 29.8718 66.3917 30.0046 65.5381 30.4948C64.6849 30.9848 64.0652 31.7904 63.8113 32.7318C63.5575 33.6729 63.6889 34.6763 64.1782 35.5221L64.1801 35.5253L67.5307 41.3344C67.9288 42.0247 68.036 42.8449 67.8286 43.6143C67.6212 44.3836 67.1162 45.0389 66.4251 45.4354C65.2423 46.1141 64.2063 47.0183 63.3761 48.0957C62.5459 49.1731 61.9377 50.4025 61.5859 51.7134C61.2341 53.0243 61.1455 54.3913 61.325 55.7362C61.5045 57.0811 61.9487 58.3779 62.6326 59.5523C63.4663 60.9841 62.9815 62.8207 61.5497 63.6544C60.1179 64.4882 58.2813 64.0033 57.4476 62.5715C56.3656 60.7135 55.6621 58.6604 55.3777 56.53C55.0934 54.3996 55.2338 52.2343 55.791 50.1582C56.3481 48.0822 57.3108 46.1368 58.6234 44.4334C59.3193 43.5304 60.1062 42.7048 60.9701 41.9688L58.9845 38.5264C58.9839 38.5253 58.9833 38.5243 58.9827 38.5232M58.9827 38.5232C57.6961 36.2972 57.3487 33.6518 58.0183 31.1693C58.6881 28.6859 60.3196 26.5727 62.5501 25.2918C64.7801 24.0111 67.428 23.666 69.9121 24.3312C72.3965 24.9964 74.5172 26.6187 75.805 28.845L82.5054 40.4282C86.4598 47.2545 87.5312 55.3678 85.4826 62.9825C83.434 70.597 78.4344 77.0854 71.5877 81.0231C64.7413 84.9605 56.607 86.0263 48.9732 83.9873C41.3392 81.9482 34.8276 76.9702 30.8734 70.1443L16.7997 45.8379C16.162 44.7355 15.7482 43.5183 15.5823 42.2557C15.4164 40.9931 15.5018 39.7103 15.8334 38.4808C16.5032 35.9974 18.1348 33.8841 20.3652 32.6032C22.5953 31.3225 25.2432 30.9775 27.7273 31.6427C30.2116 32.3079 32.3322 33.93 33.62 36.1562C33.62 36.1563 33.62 36.1561 33.62 36.1562L40.9904 48.8743C41.8212 50.3078 41.3325 52.1434 39.899 52.9742C38.4655 53.8049 36.6299 53.3163 35.7991 51.8827L28.4265 39.1607C27.937 38.3145 27.1282 37.6936 26.1753 37.4385C25.2223 37.1833 24.2068 37.3161 23.3532 37.8063C22.5001 38.2962 21.8803 39.1018 21.6264 40.0432C21.5007 40.5095 21.4683 40.9957 21.5312 41.4741C21.594 41.9522 21.7507 42.4138 21.9927 42.8325C21.9929 42.8328 21.993 42.8331 21.9932 42.8334C21.9933 42.8334 21.9932 42.8333 21.9932 42.8334L36.0652 67.1367C39.2202 72.583 44.4194 76.5606 50.5216 78.1905C56.624 79.8205 63.1261 78.968 68.5964 75.8219C74.0664 72.676 78.055 67.4959 79.6886 61.4237C81.3222 55.3518 80.4684 48.8817 77.3136 43.4357L70.6113 31.8493C70.1218 31.0031 69.313 30.3822 68.3602 30.127" fill="#A67B4D"/>
<path fill-rule="evenodd" clip-rule="evenodd" d="M25.1183 71.337C26.589 70.5739 28.3998 71.1476 29.1628 72.6183C31.4451 77.0171 34.5796 80.7687 38.3166 83.6126C39.6351 84.6159 39.8906 86.4982 38.8872 87.8167C37.8839 89.1351 36.0016 89.3906 34.6831 88.3872C30.2098 84.9831 26.5097 80.533 23.837 75.3815C23.0739 73.9108 23.6476 72.1 25.1183 71.337Z" fill="#A67B4D"/>
<path fill-rule="evenodd" clip-rule="evenodd" d="M74.6247 20.973C72.4539 19.6705 69.999 18.993 67.5084 19.0001C65.8516 19.0047 64.5047 17.6654 64.5 16.0085C64.4953 14.3517 65.8347 13.0047 67.4916 13.0001C71.0865 12.99 74.6131 13.9689 77.7116 15.828C80.8092 17.6865 83.3637 20.355 85.1268 23.5509C85.9271 25.0016 85.3999 26.8264 83.9491 27.6268C82.4984 28.4271 80.6736 27.8999 79.8732 26.4491C78.6112 24.1615 76.7964 22.276 74.6247 20.973Z" fill="#A67B4D"/>
</svg>
