<svg width="48" height="48" viewBox="0 0 48 48" fill="none" xmlns="http://www.w3.org/2000/svg">
<path d="M8 22V14H18.3478L21.3913 16.3529L22 19.1765L17.5789 22H8Z" fill="#FDD6AC"/>
<path d="M8 34V22H17.5455L23 24.7262V31.9134L17.5455 34H8Z" fill="#FDD6AC"/>
<path d="M33 21C37.3636 21 38.8182 25.4 39 27H27C27 24 29.5091 21 33 21Z" fill="#FDD6AC"/>
<path d="M27.6429 16.6667C27.6429 16.3425 27.7708 16.0316 27.9985 15.8024C28.2262 15.5732 28.5351 15.4444 28.8571 15.4444H38.5714C38.8935 15.4444 39.2023 15.5732 39.4301 15.8024C39.6578 16.0316 39.7857 16.3425 39.7857 16.6667C39.7857 16.9908 39.6578 17.3017 39.4301 17.5309C39.2023 17.7601 38.8935 17.8889 38.5714 17.8889H28.8571C28.5351 17.8889 28.2262 17.7601 27.9985 17.5309C27.7708 17.3017 27.6429 16.9908 27.6429 16.6667ZM41 27.6666C41 27.9908 40.8721 28.3017 40.6443 28.5309C40.4166 28.7601 40.1078 28.8889 39.7857 28.8889H29.0089C29.2806 29.9374 29.8896 30.8658 30.7409 31.5292C31.5921 32.1926 32.6377 32.5534 33.7143 32.5555C34.3523 32.5586 34.9846 32.4332 35.5737 32.1865C36.1629 31.9399 36.697 31.5771 37.1446 31.1194C37.3723 30.8908 37.6807 30.7625 38.0022 30.7625C38.3238 30.7625 38.6322 30.8908 38.8598 31.1194C38.9741 31.2318 39.0649 31.3661 39.1269 31.5143C39.1889 31.6626 39.2208 31.8218 39.2208 31.9826C39.2208 32.1434 39.1889 32.3026 39.1269 32.4509C39.0649 32.5991 38.9741 32.7334 38.8598 32.8458C38.1876 33.5312 37.3862 34.0748 36.5027 34.4447C35.6192 34.8146 34.6712 35.0034 33.7143 35C32.2733 35 30.8647 34.5699 29.6666 33.7641C28.4684 32.9583 27.5346 31.813 26.9832 30.473C26.4317 29.133 26.2874 27.6585 26.5686 26.236C26.8497 24.8135 27.5436 23.5068 28.5625 22.4812C29.5814 21.4556 30.8796 20.7572 32.2929 20.4742C33.7062 20.1913 35.1711 20.3365 36.5024 20.8915C37.8337 21.4466 38.9716 22.3865 39.7721 23.5925C40.5727 24.7984 41 26.2162 41 27.6666ZM38.4196 26.4444C38.1521 25.3928 37.5445 24.4607 36.6926 23.7951C35.8406 23.1295 34.7928 22.7682 33.7143 22.7682C32.6358 22.7682 31.588 23.1295 30.736 23.7951C29.8841 24.4607 29.2764 25.3928 29.0089 26.4444H38.4196ZM24.6071 28.5833C24.6071 30.2851 23.9355 31.9172 22.7399 33.1206C21.5444 34.3239 19.9229 35 18.2321 35H8.21429C7.89224 35 7.58338 34.8712 7.35566 34.642C7.12793 34.4128 7 34.1019 7 33.7777V14.2222C7 13.8981 7.12793 13.5872 7.35566 13.358C7.58338 13.1288 7.89224 13 8.21429 13H16.4107C17.5229 13.0016 18.6109 13.3268 19.5437 13.9364C20.4765 14.546 21.2143 15.4141 21.6682 16.436C22.1221 17.458 22.2728 18.5903 22.1022 19.6964C21.9315 20.8026 21.4467 21.8356 20.7063 22.6708C21.8622 23.1608 22.8489 23.9831 23.5428 25.0348C24.2367 26.0865 24.6069 27.3208 24.6071 28.5833ZM9.42857 22.1666H16.4107C17.2963 22.1666 18.1457 21.8125 18.7719 21.1822C19.3982 20.5519 19.75 19.697 19.75 18.8055C19.75 17.9141 19.3982 17.0592 18.7719 16.4289C18.1457 15.7986 17.2963 15.4444 16.4107 15.4444H9.42857V22.1666ZM22.1786 28.5833C22.1746 27.531 21.7575 26.523 21.0183 25.779C20.279 25.0349 19.2776 24.6151 18.2321 24.6111H9.42857V32.5555H18.2321C19.2776 32.5515 20.279 32.1317 21.0183 31.3876C21.7575 30.6436 22.1746 29.6356 22.1786 28.5833Z" fill="#A67B4D"/>
</svg>
