<svg width="48" height="48" viewBox="0 0 48 48" fill="none" xmlns="http://www.w3.org/2000/svg">
<path d="M40 20V29.7211C39.9988 30.0236 39.901 30.3174 39.7217 30.5579C38.5565 32.1602 33.6174 38 24 38C14.3826 38 9.44348 32.1602 8.27826 30.5579C8.09895 30.3174 8.00125 30.0236 8 29.7211V20" fill="#ADD3FF"/>
<path fill-rule="evenodd" clip-rule="evenodd" d="M8.00001 18.25C8.96651 18.25 9.75001 19.0335 9.75001 20V29.6054C10.8582 31.0976 15.3344 36.25 24 36.25C32.6657 36.25 37.1418 31.0976 38.25 29.6054V20C38.25 19.0335 39.0335 18.25 40 18.25C40.9665 18.25 41.75 19.0335 41.75 20V29.7211L41.75 29.7283C41.7472 30.3978 41.5325 31.0525 41.132 31.5941C39.7982 33.4255 34.4004 39.75 24 39.75C13.5998 39.75 8.20203 33.4257 6.86809 31.5942C6.46753 31.0526 6.25279 30.3978 6.25003 29.7283L6.25 29.7211H6.25001V20C6.25001 19.0335 7.03352 18.25 8.00001 18.25Z" fill="#284870"/>
<path d="M3 17L24 6L45 17L24 28L3 17Z" fill="#FDD6AC"/>
<path fill-rule="evenodd" clip-rule="evenodd" d="M23.188 4.44979C23.6966 4.1834 24.3034 4.1834 24.812 4.44979L45.812 15.4498C46.3887 15.7519 46.75 16.349 46.75 17C46.75 17.651 46.3887 18.2481 45.812 18.5502L24.812 29.5502C24.3034 29.8166 23.6966 29.8166 23.188 29.5502L2.18799 18.5502C1.61133 18.2481 1.25 17.651 1.25 17C1.25 16.349 1.61133 15.7519 2.18799 15.4498L23.188 4.44979ZM6.77149 17L24 26.0245L41.2285 17L24 7.97554L6.77149 17Z" fill="#284870"/>
<path fill-rule="evenodd" clip-rule="evenodd" d="M21.4845 15.1246C21.9681 14.2877 23.0384 14.0013 23.8753 14.4848L33.8753 20.2626C34.4165 20.5752 34.7498 21.1528 34.7498 21.7778V42C34.7498 42.9665 33.9663 43.75 32.9998 43.75C32.0333 43.75 31.2498 42.9665 31.2498 42V22.7878L22.1243 17.5153C21.2875 17.0318 21.001 15.9614 21.4845 15.1246Z" fill="#284870"/>
</svg>
