<svg width="49" height="48" viewBox="0 0 49 48" fill="none" xmlns="http://www.w3.org/2000/svg">
<path d="M11.6001 14H38.0635V32.5434C38.0635 32.8327 37.9473 33.1101 37.7406 33.3147C37.5338 33.5192 37.2533 33.6341 36.9609 33.6341H12.7027C12.4103 33.6341 12.1298 33.5192 11.9231 33.3147C11.7163 33.1101 11.6001 32.8327 11.6001 32.5434V14Z" fill="#FDD6AC"/>
<path fill-rule="evenodd" clip-rule="evenodd" d="M10.6001 14C10.6001 13.4477 11.0478 13 11.6001 13H38.0635C38.6158 13 39.0635 13.4477 39.0635 14V32.5434C39.0635 33.1014 38.8393 33.6343 38.4438 34.0256C38.0487 34.4165 37.5151 34.6341 36.9609 34.6341H12.7027C12.1486 34.6341 11.6149 34.4165 11.2198 34.0256C10.8243 33.6343 10.6001 33.1014 10.6001 32.5434V14ZM12.6001 15V32.5434C12.6001 32.5639 12.6083 32.5859 12.6263 32.6037C12.6448 32.622 12.672 32.6341 12.7027 32.6341H36.9609C36.9916 32.6341 37.0188 32.622 37.0373 32.6037C37.0554 32.5859 37.0635 32.5639 37.0635 32.5434V15H12.6001Z" fill="#A67B4D"/>
<path fill-rule="evenodd" clip-rule="evenodd" d="M10.858 13.3297C11.2282 12.9199 11.8605 12.8877 12.2704 13.2579L24.8318 24.6037L37.3932 13.2579C37.8031 12.8877 38.4354 12.9199 38.8056 13.3297C39.1758 13.7396 39.1437 14.3719 38.7338 14.7421L25.5021 26.6933C25.1214 27.0372 24.5422 27.0372 24.1615 26.6933L10.9298 14.7421C10.52 14.3719 10.4878 13.7396 10.858 13.3297Z" fill="#A67B4D"/>
</svg>
