<svg width="48" height="48" viewBox="0 0 48 48" fill="none" xmlns="http://www.w3.org/2000/svg">
<circle cx="24" cy="24" r="19" fill="#ADD3FF"/>
<path d="M35.5 26.986L21.8182 26.986L21.971 12.4424C29.5 12.4424 35.5 19.5001 35.5 26.986Z" fill="#FDD6AC"/>
<path fill-rule="evenodd" clip-rule="evenodd" d="M24 6.75C14.4731 6.75 6.75 14.4731 6.75 24C6.75 33.5269 14.4731 41.25 24 41.25C33.5269 41.25 41.25 33.5269 41.25 24C41.25 14.4731 33.5269 6.75 24 6.75ZM3.25 24C3.25 12.5401 12.5401 3.25 24 3.25C35.4599 3.25 44.75 12.5401 44.75 24C44.75 35.4599 35.4599 44.75 24 44.75C12.5401 44.75 3.25 35.4599 3.25 24Z" fill="#284870"/>
<path fill-rule="evenodd" clip-rule="evenodd" d="M22 11.25C22.9665 11.25 23.75 12.0335 23.75 13V25.25H35.5C36.4665 25.25 37.25 26.0335 37.25 27C37.25 27.9665 36.4665 28.75 35.5 28.75H22C21.0335 28.75 20.25 27.9665 20.25 27V13C20.25 12.0335 21.0335 11.25 22 11.25Z" fill="#284870"/>
</svg>
