<svg width="102" height="102" viewBox="0 0 102 102" fill="none" xmlns="http://www.w3.org/2000/svg">
<path d="M71.9116 16.5H29.3566L9 40.8478L50.8233 86.5L93 40.8478L71.9116 16.5Z" fill="#FDD6AC"/>
<path fill-rule="evenodd" clip-rule="evenodd" d="M27.7283 14.5406C28.2981 13.8799 29.1275 13.5 30 13.5H72C72.8725 13.5 73.7019 13.8799 74.2717 14.5406L95.2717 38.8884C96.2666 40.042 96.2391 41.758 95.2078 42.879L53.2078 88.5312C52.6397 89.1486 51.839 89.5 51 89.5C50.161 89.5 49.3603 89.1486 48.7922 88.5312L6.79221 42.879C5.76086 41.758 5.73335 40.042 6.72826 38.8884L27.7283 14.5406ZM31.3742 19.5L13.0172 40.7834L51 82.0691L88.9828 40.7834L70.6258 19.5H31.3742Z" fill="#A67B4D"/>
<path fill-rule="evenodd" clip-rule="evenodd" d="M50.5 13.5C51.4147 13.5 52.2794 13.9173 52.8486 14.6333L72.3486 39.167C73.0282 40.0222 73.1894 41.1791 72.7693 42.1875L53.8264 87.6538C53.365 88.7613 52.288 89.4874 51.0882 89.4998C49.8884 89.5123 48.7967 88.8086 48.3124 87.7108L28.2552 42.2445C27.8054 41.2247 27.958 40.0396 28.6515 39.167L48.1515 14.6333C48.7206 13.9173 49.5853 13.5 50.5 13.5ZM50.5 21.3214L34.4764 41.4813L50.9784 78.8886L66.5498 41.5143L50.5 21.3214Z" fill="#A67B4D"/>
<path fill-rule="evenodd" clip-rule="evenodd" d="M7 40.5C7 38.8431 8.34315 37.5 10 37.5H92C93.6569 37.5 95 38.8431 95 40.5C95 42.1569 93.6569 43.5 92 43.5H10C8.34315 43.5 7 42.1569 7 40.5Z" fill="#A67B4D"/>
</svg>
