<svg width="102" height="102" viewBox="0 0 102 102" fill="none" xmlns="http://www.w3.org/2000/svg">
<g clip-path="url(#clip0_1277_2345)">
<path d="M80.5 21.5H21.5V64.5H80.5V21.5Z" fill="#FDD6AC"/>
<path fill-rule="evenodd" clip-rule="evenodd" d="M21.5 18.5C23.1569 18.5 24.5 19.8431 24.5 21.5V64.5C24.5 66.1569 23.1569 67.5 21.5 67.5C19.8431 67.5 18.5 66.1569 18.5 64.5V21.5C18.5 19.8431 19.8431 18.5 21.5 18.5Z" fill="#A67B4D"/>
<path fill-rule="evenodd" clip-rule="evenodd" d="M80.5 18.5C82.1569 18.5 83.5 19.8431 83.5 21.5V64.5C83.5 66.1569 82.1569 67.5 80.5 67.5C78.8431 67.5 77.5 66.1569 77.5 64.5V21.5C77.5 19.8431 78.8431 18.5 80.5 18.5Z" fill="#A67B4D"/>
<path fill-rule="evenodd" clip-rule="evenodd" d="M39.5 38.5C41.1569 38.5 42.5 39.8431 42.5 41.5V49.5C42.5 51.1569 41.1569 52.5 39.5 52.5C37.8431 52.5 36.5 51.1569 36.5 49.5V41.5C36.5 39.8431 37.8431 38.5 39.5 38.5Z" fill="#A67B4D"/>
<path fill-rule="evenodd" clip-rule="evenodd" d="M53.5 35.5C55.1569 35.5 56.5 36.8431 56.5 38.5V49.5C56.5 51.1569 55.1569 52.5 53.5 52.5C51.8431 52.5 50.5 51.1569 50.5 49.5V38.5C50.5 36.8431 51.8431 35.5 53.5 35.5Z" fill="#A67B4D"/>
<path fill-rule="evenodd" clip-rule="evenodd" d="M63.5 32.5C65.1569 32.5 66.5 33.8431 66.5 35.5V49.5C66.5 51.1569 65.1569 52.5 63.5 52.5C61.8431 52.5 60.5 51.1569 60.5 49.5V35.5C60.5 33.8431 61.8431 32.5 63.5 32.5Z" fill="#A67B4D"/>
<path d="M82.625 11.5H19.375C17.7872 11.5 16.5 12.6193 16.5 14V19C16.5 20.3807 17.7872 21.5 19.375 21.5H82.625C84.2128 21.5 85.5 20.3807 85.5 19V14C85.5 12.6193 84.2128 11.5 82.625 11.5Z" fill="#FDD6AC"/>
<path fill-rule="evenodd" clip-rule="evenodd" d="M19.5 14.5V18.5H82.5V14.5H19.5ZM13.5 14C13.5 10.5824 16.5378 8.5 19.375 8.5H82.625C85.4623 8.5 88.5 10.5824 88.5 14V19C88.5 22.4176 85.4623 24.5 82.625 24.5H19.375C16.5378 24.5 13.5 22.4176 13.5 19V14Z" fill="#A67B4D"/>
<path fill-rule="evenodd" clip-rule="evenodd" d="M51.5 61.5C53.1569 61.5 54.5 62.8431 54.5 64.5V75.5C54.5 77.1569 53.1569 78.5 51.5 78.5C49.8431 78.5 48.5 77.1569 48.5 75.5V64.5C48.5 62.8431 49.8431 61.5 51.5 61.5Z" fill="#A67B4D"/>
<path d="M51 90.5C55.1421 90.5 58.5 87.1421 58.5 83C58.5 78.8579 55.1421 75.5 51 75.5C46.8579 75.5 43.5 78.8579 43.5 83C43.5 87.1421 46.8579 90.5 51 90.5Z" fill="#FDD6AC"/>
<path fill-rule="evenodd" clip-rule="evenodd" d="M51 78.5C48.5147 78.5 46.5 80.5147 46.5 83C46.5 85.4853 48.5147 87.5 51 87.5C53.4853 87.5 55.5 85.4853 55.5 83C55.5 80.5147 53.4853 78.5 51 78.5ZM40.5 83C40.5 77.201 45.201 72.5 51 72.5C56.799 72.5 61.5 77.201 61.5 83C61.5 88.799 56.799 93.5 51 93.5C45.201 93.5 40.5 88.799 40.5 83Z" fill="#A67B4D"/>
<path fill-rule="evenodd" clip-rule="evenodd" d="M13.5 64.5C13.5 62.8431 14.8431 61.5 16.5 61.5H85.5C87.1569 61.5 88.5 62.8431 88.5 64.5C88.5 66.1569 87.1569 67.5 85.5 67.5H16.5C14.8431 67.5 13.5 66.1569 13.5 64.5Z" fill="#A67B4D"/>
</g>
<defs>
<clipPath id="clip0_1277_2345">
<rect width="85" height="85" fill="white" transform="translate(8.5 8.5)"/>
</clipPath>
</defs>
</svg>
