<svg width="102" height="102" viewBox="0 0 102 102" fill="none" xmlns="http://www.w3.org/2000/svg">
<path d="M57.5 62.5H72.5C76.4782 62.5 80.2936 60.9723 83.1066 58.253C85.9196 55.5338 87.5 51.8456 87.5 48C87.5 44.1544 85.9196 40.4662 83.1066 37.747C80.2936 35.0277 76.4782 33.5 72.5 33.5H57.5V62.5Z" fill="#FDD6AC"/>
<path d="M72.7 63.4294C76.6252 63.4294 80.3896 61.8565 83.1652 59.0567C85.9407 56.2569 87.5 52.4595 87.5 48.5C87.5 44.5405 85.9407 40.7431 83.1652 37.9433C80.3896 35.1435 76.6252 33.5706 72.7 33.5706H57.9C57.9 33.5706 37.735 33.5706 18.347 17.1855C17.9158 16.8255 17.3922 16.5963 16.837 16.5243C16.2818 16.4524 15.7178 16.5407 15.2104 16.7791C14.703 17.0174 14.273 17.396 13.9702 17.8709C13.6675 18.3458 13.5044 18.8976 13.5 19.4622V77.5378C13.5044 78.1024 13.6675 78.6542 13.9702 79.1291C14.273 79.604 14.703 79.9826 15.2104 80.2209C15.7178 80.4593 16.2818 80.5476 16.837 80.4757C17.3922 80.4037 17.9158 80.1745 18.347 79.8145C37.735 63.4294 57.9 63.4294 57.9 63.4294H72.7Z" fill="#FDD6AC"/>
<path fill-rule="evenodd" clip-rule="evenodd" d="M13.9349 14.0637C14.9592 13.5826 16.0994 13.4037 17.2225 13.5492C18.3455 13.6947 19.4018 14.1582 20.2695 14.8824L20.2834 14.8942C29.5799 22.7507 39.0527 26.6717 46.1878 28.6293C49.7552 29.6081 52.7307 30.0939 54.7941 30.3348C55.8252 30.4551 56.6268 30.5141 57.1584 30.543C57.4241 30.5574 57.6222 30.5643 57.7475 30.5676C57.8102 30.5692 57.8546 30.57 57.8803 30.5703L57.9 30.5706H57.9022H72.7C77.4293 30.5706 81.9596 32.466 85.2957 35.8312C88.6309 39.1956 90.5 43.7532 90.5 48.5C90.5 53.2468 88.6309 57.8044 85.2957 61.1688C81.9596 64.5341 77.4293 66.4294 72.7 66.4294H57.9051C57.9049 66.4294 57.9053 66.4294 57.9051 66.4294H57.9038H57.9L57.8803 66.4297C57.8546 66.43 57.8102 66.4308 57.7475 66.4324C57.6222 66.4357 57.4241 66.4426 57.1584 66.457C56.6268 66.4859 55.8252 66.5449 54.7941 66.6652C52.7307 66.9061 49.7552 67.3919 46.1878 68.3707C39.0527 70.3284 29.5799 74.2493 20.2834 82.1058L20.2695 82.1176C19.4018 82.8418 18.3456 83.3053 17.2225 83.4508C16.0994 83.5963 14.9592 83.4174 13.9349 82.9363C12.911 82.4553 12.047 81.6931 11.4405 80.7417C10.8341 79.7905 10.5089 78.6878 10.5001 77.5613L10.5 77.5378V19.4622L10.5001 19.4387C10.5089 18.3122 10.8341 17.2095 11.4405 16.2583C12.047 15.3069 12.911 14.5447 13.9349 14.0637ZM57.9 63.4294V60.4294H72.7C75.8211 60.4294 78.8197 59.179 81.0346 56.9447C83.2505 54.7094 84.5 51.6723 84.5 48.5C84.5 45.3277 83.2505 42.2906 81.0346 40.0554C78.8197 37.821 75.8211 36.5706 72.7 36.5706H57.9V33.5706C57.9 36.5706 57.8987 36.5706 57.8974 36.5706L57.8943 36.5706L57.8868 36.5705L57.8661 36.5704L57.8028 36.5698C57.751 36.5691 57.6799 36.5679 57.5901 36.5655C57.4106 36.5608 57.1565 36.5517 56.833 36.5341C56.1861 36.499 55.2607 36.43 54.0985 36.2943C51.775 36.0231 48.4976 35.4848 44.6002 34.4155C36.8289 32.2832 26.563 28.0306 16.5 19.5523V77.4477C26.563 68.9694 36.8289 64.7168 44.6002 62.5845C48.4976 61.5152 51.775 60.9769 54.0985 60.7057C55.2607 60.57 56.1861 60.501 56.833 60.4659C57.1565 60.4483 57.4106 60.4392 57.5901 60.4345C57.6799 60.4321 57.751 60.4309 57.8028 60.4302L57.8661 60.4296L57.8868 60.4295L57.8974 60.4295C57.8987 60.4294 57.9 60.4294 57.9 63.4294Z" fill="#A67B4D"/>
<path fill-rule="evenodd" clip-rule="evenodd" d="M57.5001 30.5C59.157 30.5 60.5001 31.8431 60.5001 33.5V78.7661L64.9065 81.4475C64.9395 81.4677 64.9946 81.4901 65.0677 81.4975C65.141 81.505 65.2113 81.4952 65.268 81.4751C65.3042 81.4624 65.3278 81.4481 65.3412 81.4382C65.345 81.4254 65.3488 81.4126 65.3527 81.3998L71.1327 62.6176C71.62 61.0341 73.2988 60.1454 74.8824 60.6327C76.4659 61.12 77.3546 62.7988 76.8673 64.3824L71.0984 83.1287C70.8316 84.0656 70.3342 84.908 69.6702 85.5955C68.995 86.2945 68.1667 86.8145 67.2665 87.1325C66.3668 87.4504 65.4061 87.5629 64.4605 87.4667C63.5166 87.3707 62.5966 87.0675 61.7783 86.5675C61.7767 86.5665 61.7752 86.5656 61.7737 86.5647L57.3912 83.8978C56.5353 83.3853 55.804 82.6665 55.288 81.7859C54.7706 80.9029 54.493 79.8955 54.5001 78.8589V33.5C54.5001 31.8431 55.8433 30.5 57.5001 30.5Z" fill="#A67B4D"/>
</svg>
