<svg width="48" height="48" viewBox="0 0 48 48" fill="none" xmlns="http://www.w3.org/2000/svg">
<path d="M31.2 7H40.2C40.6774 7 41.1352 7.17407 41.4728 7.48391C41.8104 7.79375 42 8.21399 42 8.65217V43.3478C42 43.786 41.8104 44.2062 41.4728 44.5161C41.1352 44.8259 40.6774 45 40.2 45H7.8C7.32261 45 6.86477 44.8259 6.52721 44.5161C6.18964 44.2062 6 43.786 6 43.3478V8.65217C6 8.21399 6.18964 7.79375 6.52721 7.48391C6.86477 7.17407 7.32261 7 7.8 7H16.8" fill="#ADD3FF"/>
<path fill-rule="evenodd" clip-rule="evenodd" d="M15.25 33C15.25 32.0335 16.0335 31.25 17 31.25H31C31.9665 31.25 32.75 32.0335 32.75 33C32.75 33.9665 31.9665 34.75 31 34.75H17C16.0335 34.75 15.25 33.9665 15.25 33Z" fill="#284870"/>
<path fill-rule="evenodd" clip-rule="evenodd" d="M15.25 24C15.25 23.0335 16.0335 22.25 17 22.25H31C31.9665 22.25 32.75 23.0335 32.75 24C32.75 24.9665 31.9665 25.75 31 25.75H17C16.0335 25.75 15.25 24.9665 15.25 24Z" fill="#284870"/>
<path fill-rule="evenodd" clip-rule="evenodd" d="M7.75 8.75617C7.76438 8.75245 7.7813 8.75 7.8 8.75H16.8C17.7665 8.75 18.55 7.9665 18.55 7C18.55 6.0335 17.7665 5.25 16.8 5.25H7.8C6.90457 5.25 6.01883 5.57511 5.34384 6.19467C4.66383 6.81884 4.25 7.69911 4.25 8.65217V43.3478C4.25 44.3009 4.66383 45.1812 5.34384 45.8053C6.01884 46.4249 6.90458 46.75 7.8 46.75H40.2C41.0954 46.75 41.9812 46.4249 42.6562 45.8053C43.3362 45.1812 43.75 44.3009 43.75 43.3478V8.65217C43.75 7.69912 43.3362 6.81884 42.6562 6.19467C41.9812 5.57511 41.0954 5.25 40.2 5.25H31.2C30.2335 5.25 29.45 6.0335 29.45 7C29.45 7.9665 30.2335 8.75 31.2 8.75H40.2C40.2187 8.75 40.2356 8.75245 40.25 8.75618V43.2438C40.2356 43.2476 40.2187 43.25 40.2 43.25H7.8C7.7813 43.25 7.76438 43.2476 7.75 43.2438V8.75617Z" fill="#284870"/>
<path d="M16 12V10.3333C16 8.1232 16.8429 6.00358 18.3431 4.44078C19.8434 2.87797 21.8783 2 24 2C26.1217 2 28.1566 2.87797 29.6569 4.44078C31.1571 6.00358 32 8.1232 32 10.3333V12H16Z" fill="#FDD6AC"/>
<path fill-rule="evenodd" clip-rule="evenodd" d="M24 3.5C22.2963 3.5 20.6494 4.20442 19.4252 5.47957C18.1991 6.75681 17.5 8.50171 17.5 10.3333V10.5H30.5V10.3333C30.5 8.50171 29.8009 6.75681 28.5748 5.47957C27.3506 4.20442 25.7037 3.5 24 3.5ZM17.2611 3.40198C19.0375 1.55153 21.4602 0.5 24 0.5C26.5398 0.5 28.9625 1.55153 30.7389 3.40198C32.5134 5.25035 33.5 7.74468 33.5 10.3333V12C33.5 12.8284 32.8284 13.5 32 13.5H16C15.1716 13.5 14.5 12.8284 14.5 12V10.3333C14.5 7.74468 15.4866 5.25035 17.2611 3.40198Z" fill="#284870"/>
</svg>
