<svg width="102" height="102" viewBox="0 0 102 102" fill="none" xmlns="http://www.w3.org/2000/svg">
<path d="M85.4 20.5H29.6C28.7778 20.5 27.9893 20.8227 27.408 21.397C26.8266 21.9713 26.5 22.7503 26.5 23.5625V32.75H73C73.8222 32.75 74.6107 33.0727 75.192 33.647C75.7734 34.2213 76.1 35.0003 76.1 35.8125V69.5H85.4C86.2222 69.5 87.0107 69.1773 87.592 68.603C88.1734 68.0287 88.5 67.2497 88.5 66.4375V23.5625C88.5 22.7503 88.1734 21.9713 87.592 21.397C87.0107 20.8227 86.2222 20.5 85.4 20.5Z" fill="#FDD6AC"/>
<path fill-rule="evenodd" clip-rule="evenodd" d="M16.5015 36.5512C16.5012 36.5519 16.5 36.5536 16.5 36.5625V79.4375C16.5 79.4457 16.501 79.4478 16.5014 79.4486L16.5015 79.4488C16.5027 79.4516 16.5067 79.4593 16.5163 79.4688C16.526 79.4783 16.5377 79.4861 16.55 79.4913C16.5604 79.4956 16.5754 79.5 16.6 79.5H72.4C72.4246 79.5 72.4396 79.4956 72.45 79.4913C72.4623 79.4861 72.474 79.4783 72.4837 79.4688C72.4933 79.4593 72.4973 79.4516 72.4985 79.4488L72.4986 79.4486C72.499 79.4478 72.5 79.4457 72.5 79.4375V36.5625C72.5 36.5536 72.4988 36.5519 72.4985 36.5512C72.4973 36.5484 72.4933 36.5407 72.4837 36.5312C72.474 36.5217 72.4623 36.5139 72.45 36.5087C72.4396 36.5044 72.4246 36.5 72.4 36.5H16.6C16.5754 36.5 16.5604 36.5044 16.55 36.5087C16.5377 36.5139 16.526 36.5217 16.5163 36.5312C16.5067 36.5407 16.5027 36.5484 16.5015 36.5512ZM10.5 36.5625C10.5 33.18 13.2656 30.5 16.6 30.5H72.4C75.7344 30.5 78.5 33.18 78.5 36.5625V79.4375C78.5 82.82 75.7344 85.5 72.4 85.5H16.6C13.2656 85.5 10.5 82.82 10.5 79.4375V36.5625Z" fill="#A67B4D"/>
<path fill-rule="evenodd" clip-rule="evenodd" d="M29.6 23.5C29.5618 23.5 29.5324 23.5153 29.5163 23.5312C29.5016 23.5458 29.5 23.5578 29.5 23.5625V32.75C29.5 34.4069 28.1569 35.75 26.5 35.75C24.8431 35.75 23.5 34.4069 23.5 32.75V23.5625C23.5 21.9428 24.1517 20.3968 25.2996 19.2628C26.4463 18.13 27.9939 17.5 29.6 17.5H85.4C87.0061 17.5 88.5537 18.13 89.7004 19.2628C90.8483 20.3969 91.5 21.9428 91.5 23.5625V66.4375C91.5 68.0572 90.8484 69.6031 89.7004 70.7372C88.5537 71.87 87.0061 72.5 85.4 72.5H76.1C74.4431 72.5 73.1 71.1569 73.1 69.5C73.1 67.8431 74.4431 66.5 76.1 66.5H85.4C85.4382 66.5 85.4676 66.4847 85.4837 66.4688C85.4984 66.4542 85.5 66.4422 85.5 66.4375V23.5625C85.5 23.5578 85.4984 23.5458 85.4837 23.5312C85.4676 23.5153 85.4382 23.5 85.4 23.5H29.6Z" fill="#A67B4D"/>
<path fill-rule="evenodd" clip-rule="evenodd" d="M10.5 45.5C10.5 43.8431 11.8431 42.5 13.5 42.5H75.5C77.1569 42.5 78.5 43.8431 78.5 45.5C78.5 47.1569 77.1569 48.5 75.5 48.5H13.5C11.8431 48.5 10.5 47.1569 10.5 45.5Z" fill="#A67B4D"/>
</svg>
