<svg width="48" height="48" viewBox="0 0 48 48" fill="none" xmlns="http://www.w3.org/2000/svg">
<ellipse cx="15.5" cy="21" rx="9.5" ry="9" fill="#ADD3FF"/>
<path fill-rule="evenodd" clip-rule="evenodd" d="M15.5 13.75C11.2198 13.75 7.75 17.2198 7.75 21.5C7.75 25.7802 11.2198 29.25 15.5 29.25C19.7802 29.25 23.25 25.7802 23.25 21.5C23.25 17.2198 19.7802 13.75 15.5 13.75ZM4.25 21.5C4.25 15.2868 9.2868 10.25 15.5 10.25C21.7132 10.25 26.75 15.2868 26.75 21.5C26.75 27.7132 21.7132 32.75 15.5 32.75C9.2868 32.75 4.25 27.7132 4.25 21.5Z" fill="#284870"/>
<path d="M29 12C32.8333 11.1666 40.3 12.0999 41.5 20.4999C42.6899 28.8289 34.9657 30.8001 31.0981 30.9953C31.0551 31.0197 31.0218 31.0217 31 30.9999C31.0324 30.9985 31.0651 30.997 31.0981 30.9953C32.0382 30.4602 37.6069 19.1723 29 12Z" fill="#FDD6AC"/>
<path d="M16.0028 31C7.50296 31 1.83691 37.6409 2.00358 39.1409C16.5 34 28.0029 37.9742 30.0027 39.1409C30.3361 37.9742 24.5028 31 16.0028 31Z" fill="#ADD3FF"/>
<path fill-rule="evenodd" clip-rule="evenodd" d="M31.7681 10.25L31.773 10.25C34.9095 10.25 37.9412 11.4062 40.1956 13.5003C42.4542 15.5985 43.7499 18.4729 43.7499 21.5C43.7499 24.5271 42.4542 27.4015 40.1956 29.4997C37.9412 31.5938 34.9095 32.75 31.773 32.75C30.8065 32.75 30.023 31.9665 30.023 31C30.023 30.0335 30.8065 29.25 31.773 29.25C34.0612 29.25 36.232 28.4045 37.8135 26.9354C39.3907 25.4703 40.2499 23.5121 40.2499 21.5C40.2499 19.488 39.3907 17.5297 37.8135 16.0647C36.2326 14.5961 34.0627 13.7506 31.7755 13.75C30.9814 13.7525 30.1919 13.8515 29.4275 14.0441C28.4902 14.2802 27.5391 13.7119 27.303 12.7747C27.0668 11.8374 27.6352 10.8863 28.5724 10.6502C29.6153 10.3874 30.6895 10.2531 31.7681 10.25Z" fill="#284870"/>
<path fill-rule="evenodd" clip-rule="evenodd" d="M16.0001 32.75C13.5237 32.75 11.0863 33.3238 8.89454 34.4197C6.70305 35.5154 4.82462 37.0992 3.41349 39.0319C2.84357 39.8125 1.74877 39.9833 0.968184 39.4134C0.187603 38.8434 0.0168307 37.7486 0.586753 36.9681C2.3332 34.5761 4.64733 32.6301 7.32929 31.2892C10.011 29.9483 12.9848 29.25 16.0001 29.25C19.0155 29.25 21.9892 29.9483 24.671 31.2892C27.3529 32.6301 29.667 34.5761 31.4135 36.9681C31.9834 37.7486 31.8126 38.8434 31.0321 39.4134C30.2515 39.9833 29.1567 39.8125 28.5868 39.0319C27.1756 37.0992 25.2972 35.5154 23.1057 34.4197C20.914 33.3238 18.4766 32.75 16.0001 32.75Z" fill="#284870"/>
<path fill-rule="evenodd" clip-rule="evenodd" d="M38.6146 34.1729C36.5687 33.0713 34.3004 32.4985 32.001 32.5C31.1725 32.5005 30.5005 31.8294 30.5 31.001C30.4995 30.1725 31.1706 29.5005 31.999 29.5C34.7996 29.4982 37.5569 30.1961 40.0369 31.5315C42.5165 32.8667 44.6437 34.7985 46.242 37.159C46.7065 37.8449 46.527 38.7776 45.841 39.242C45.1551 39.7065 44.2224 39.527 43.758 38.841C42.4263 36.8744 40.6608 35.2747 38.6146 34.1729Z" fill="#284870"/>
</svg>
