<svg width="48" height="48" viewBox="0 0 48 48" fill="none" xmlns="http://www.w3.org/2000/svg">
<g clip-path="url(#clip0_1277_2491)">
<path d="M27.9167 29.1724V20L38 20.4828V34H16V29.1724H27.9167Z" fill="#FDD6AC"/>
<path fill-rule="evenodd" clip-rule="evenodd" d="M27 20C27 19.4477 27.4477 19 28 19H38C38.5523 19 39 19.4477 39 20C39 20.5523 38.5523 21 38 21H28C27.4477 21 27 20.5523 27 20Z" fill="#A67B4D"/>
<path fill-rule="evenodd" clip-rule="evenodd" d="M27 24.5C27 23.9477 27.4477 23.5 28 23.5H38C38.5523 23.5 39 23.9477 39 24.5C39 25.0523 38.5523 25.5 38 25.5H28C27.4477 25.5 27 25.0523 27 24.5Z" fill="#A67B4D"/>
<path fill-rule="evenodd" clip-rule="evenodd" d="M15 29C15 28.4477 15.4477 28 16 28H38C38.5523 28 39 28.4477 39 29C39 29.5523 38.5523 30 38 30H16C15.4477 30 15 29.5523 15 29Z" fill="#A67B4D"/>
<path fill-rule="evenodd" clip-rule="evenodd" d="M15 34C15 33.4477 15.4477 33 16 33H38C38.5523 33 39 33.4477 39 34C39 34.5523 38.5523 35 38 35H16C15.4477 35 15 34.5523 15 34Z" fill="#A67B4D"/>
<path fill-rule="evenodd" clip-rule="evenodd" d="M11.7428 12.0337C12.1808 11.9172 12.6424 12.1097 12.8677 12.503L17.5 20.5885L22.1323 12.503C22.3576 12.1097 22.8192 11.9172 23.2572 12.0337C23.6952 12.1503 24 12.5469 24 13.0001V24.0001C24 24.5524 23.5523 25.0001 23 25.0001C22.4477 25.0001 22 24.5524 22 24.0001V16.7572L18.3677 23.0972C18.1895 23.4082 17.8585 23.6001 17.5 23.6001C17.1415 23.6001 16.8105 23.4082 16.6323 23.0972L13 16.7572V24.0001C13 24.5524 12.5523 25.0001 12 25.0001C11.4477 25.0001 11 24.5524 11 24.0001V13.0001C11 12.5469 11.3048 12.1503 11.7428 12.0337Z" fill="#A67B4D"/>
<path fill-rule="evenodd" clip-rule="evenodd" d="M9.5 13C9.5 12.4477 9.94772 12 10.5 12H12C12.5523 12 13 12.4477 13 13C13 13.5523 12.5523 14 12 14H10.5C9.94772 14 9.5 13.5523 9.5 13Z" fill="#A67B4D"/>
<path fill-rule="evenodd" clip-rule="evenodd" d="M22 13C22 12.4477 22.4477 12 23 12H24C24.5523 12 25 12.4477 25 13C25 13.5523 24.5523 14 24 14H23C22.4477 14 22 13.5523 22 13Z" fill="#A67B4D"/>
<path fill-rule="evenodd" clip-rule="evenodd" d="M9.5 24.5C9.5 23.9477 9.94772 23.5 10.5 23.5H13C13.5523 23.5 14 23.9477 14 24.5C14 25.0523 13.5523 25.5 13 25.5H10.5C9.94772 25.5 9.5 25.0523 9.5 24.5Z" fill="#A67B4D"/>
<path fill-rule="evenodd" clip-rule="evenodd" d="M20.5 24.5C20.5 23.9477 20.9477 23.5 21.5 23.5H24C24.5523 23.5 25 23.9477 25 24.5C25 25.0523 24.5523 25.5 24 25.5H21.5C20.9477 25.5 20.5 25.0523 20.5 24.5Z" fill="#A67B4D"/>
</g>
<defs>
<clipPath id="clip0_1277_2491">
<rect width="32" height="24" fill="white" transform="translate(8 12)"/>
</clipPath>
</defs>
</svg>
