<svg width="48" height="48" viewBox="0 0 48 48" fill="none" xmlns="http://www.w3.org/2000/svg">
<path d="M34.087 14H14.913C14.4088 14 14 14.4088 14 14.913V34.087C14 34.5912 14.4088 35 14.913 35H34.087C34.5912 35 35 34.5912 35 34.087V14.913C35 14.4088 34.5912 14 34.087 14Z" fill="#FDD6AC"/>
<path fill-rule="evenodd" clip-rule="evenodd" d="M15 15V34H34V15H15ZM13 14.913C13 13.8565 13.8565 13 14.913 13H34.087C35.1435 13 36 13.8565 36 14.913V34.087C36 35.1435 35.1435 36 34.087 36H14.913C13.8565 36 13 35.1435 13 34.087V14.913Z" fill="#A67B4D"/>
<path fill-rule="evenodd" clip-rule="evenodd" d="M24 22C24.5523 22 25 22.4477 25 23V30C25 30.5523 24.5523 31 24 31C23.4477 31 23 30.5523 23 30V23C23 22.4477 23.4477 22 24 22Z" fill="#A67B4D"/>
<path fill-rule="evenodd" clip-rule="evenodd" d="M19.5 22C20.0523 22 20.5 22.4477 20.5 23V30C20.5 30.5523 20.0523 31 19.5 31C18.9477 31 18.5 30.5523 18.5 30V23C18.5 22.4477 18.9477 22 19.5 22Z" fill="#A67B4D"/>
<path fill-rule="evenodd" clip-rule="evenodd" d="M27 24C26.5237 24 26.0292 24.2195 25.6379 24.6759C25.2426 25.1371 25 25.7914 25 26.5C25 27.0523 24.5523 27.5 24 27.5C23.4477 27.5 23 27.0523 23 26.5C23 25.3521 23.3895 24.2259 24.1194 23.3743C24.8534 22.518 25.885 22 27 22C28.115 22 29.1466 22.518 29.8806 23.3743C30.6105 24.2259 31 25.3521 31 26.5V30C31 30.5523 30.5523 31 30 31C29.4477 31 29 30.5523 29 30V26.5C29 25.7914 28.7574 25.1371 28.3621 24.6759C27.9708 24.2195 27.4763 24 27 24Z" fill="#A67B4D"/>
<path d="M20.625 18.5C20.625 19.1213 20.1213 19.625 19.5 19.625C18.8787 19.625 18.375 19.1213 18.375 18.5C18.375 17.8787 18.8787 17.375 19.5 17.375C20.1213 17.375 20.625 17.8787 20.625 18.5Z" fill="#A67B4D" stroke="#A67B4D" stroke-width="0.75"/>
</svg>
