<svg width="773" height="794" fill="none" xmlns="http://www.w3.org/2000/svg"><path d="M423.527 444.75c7.568.001 11.555.834 13.888 12.5 1.389 6.944-5.555 10.229-12.499 10.416-38.077 1.027-57.758 2.952-66.013 2.681-10.317-.337-19.399.791-22.467-10.436-3.005-10.994 5.845-12.321 10.917-12.321l76.174-2.84zM98.618 436.505c1.39-12.5 9.363-16.666 15.277-16.666 6.945 0 12.499 4.166 12.499 14.582 0 10.417-5.555 15.817-12.499 17.361-6.249 1.388-16.744-2.084-15.277-15.277zM548.941 436.505c1.39-12.5 9.363-16.666 15.277-16.666 6.945 0 12.5 4.166 12.5 14.582 0 10.417-5.556 15.817-12.5 17.361-6.249 1.388-16.744-2.084-15.277-15.277z" fill="#516F96"/><path fill-rule="evenodd" clip-rule="evenodd" d="M108.967 458.643c-4.629-.231-14.86 1.528-18.749 10.416-4.86 11.111-9.027 32.637-9.722 43.053-.694 10.417 3.472 22.916 16.666 22.221 10.555-.555 15.046-5.323 15.972-7.638.463 2.083 2.916 6.527 9.027 7.638 7.638 1.389 17.36.695 22.221-15.277 4.861-15.971 12.499-34.72 19.443-41.664 6.944-6.944 9.722-6.944 11.805-5.555 2.084 1.389 1.389 9.027-2.777 19.443-4.167 10.416-9.722 33.332-2.778 39.581 6.944 6.25 27.082 9.028 40.97-18.749.232 5.556 4.305 17.638 18.749 21.527 14.444 3.889 27.776-5.787 32.637-11.11-2.546 10.416-10.277 36.386-20.832 56.941-13.194 25.693-24.642 16.42-25.693 15.277-1.462-1.591-7.639-9.027 1.389-22.221 7.222-10.555 3.009-17.823 0-20.138-3.241-3.935-11.666-9.444-19.444 0-9.721 11.805-7.638 33.332-2.083 41.664 5.555 8.333 21.527 21.527 48.609 11.111 23.31-8.966 30.672-31.821 39.798-60.154 1.477-4.584 3-9.312 4.644-14.148 9.444-27.776 15.045-47.219 16.665-53.469 2.084-5.555 3.611-17.082-6.944-18.749-13.193-2.083-19.443 4.166-20.832 13.888-2.777-4.629-11.944-13.888-26.387-13.888-18.055 0-34.721 9.722-40.97 38.887-1.158 3.703-4.167 12.083-6.944 15.971-3.472 4.861-6.944 6.25-8.333 4.861-1.389-1.389-2.778-2.778 1.389-12.499l.063-.148c4.214-9.831 15.137-35.316-.063-44.989-15.277-9.721-34.721 9.722-37.498 13.194v-5.555c.231-3.935-2.084-11.389-13.194-9.722-11.437 1.716-14.397 9.553-15.862 13.429-.314.831-.559 1.48-.804 1.848-.309.464-1.031 2.887-2.081 6.413-3.668 12.321-11.347 38.107-19.446 40.807-1.851.463-4.722-1.111-1.388-11.111 3.333-9.999 9.258-28.239 11.805-36.109 2.314-5.555 3.749-16.388-9.028-15.277zm154.364 17.83c-2.086-3.39-9.832-7.556-18.055-1.389-11.11 8.333-14.655 18.831-16.044 28.553-1.389 9.722 4.239 24.916 19.516 14.5 15.277-10.416 20.138-32.637 14.583-41.664zM540.54 468.649c3.889-8.888 14.12-10.647 18.749-10.416 12.777-1.111 11.342 9.722 9.028 15.277-2.546 7.87-8.472 26.11-11.805 36.11-3.333 9.999-.463 11.573 1.389 11.11 8.098-2.699 15.777-28.486 19.446-40.807 1.05-3.526 1.771-5.949 2.08-6.413.245-.367.491-1.016.804-1.847 1.465-3.877 4.425-11.714 15.862-13.43 11.111-1.666 13.425 5.787 13.194 9.722v5.555c2.777-3.472 22.221-22.915 37.498-13.193 15.2 9.673 4.277 35.157.063 44.989l-.063.147c-4.167 9.722-2.778 11.111-1.389 12.499 1.389 1.389 4.861 0 8.333-4.86 2.778-3.889 5.787-12.268 6.944-15.972 6.25-29.165 22.915-38.887 40.97-38.887 14.444 0 23.61 9.259 26.387 13.889 1.389-9.722 7.639-15.972 20.833-13.889 10.555 1.667 9.027 13.194 6.944 18.749-1.621 6.25-7.222 25.693-16.666 53.47-1.644 4.835-3.167 9.563-4.644 14.147-1.791 5.562-3.515 10.913-5.304 15.989 8.065 1.445 16.922-.367 34.875-10.895 2.777-1.629 6.25-2.777 7.639-.694.861 1.292-.631 3.77-4.862 6.944-.269.202-.677.581-1.224 1.09-4.311 4.014-17.316 16.121-40.259 13.621-6.621 15.9-15.077 28.105-30.663 34.099-27.082 10.416-43.053-2.777-48.609-11.11-5.517-8.276-5.092-25.507 7.379-34.052 4.717-4.111 19.463-11.819 44.631-7.815 1.655.264 3.219.555 4.701.867 4.761-12.768 8.437-24.324 9.952-30.524-4.86 5.324-18.193 14.999-32.637 11.11-14.443-3.888-18.517-15.971-18.749-21.526-13.888 27.776-34.026 24.998-40.97 18.749-6.944-6.25-1.388-29.165 2.778-39.581 4.166-10.417 4.861-18.055 2.778-19.444-2.084-1.389-4.861-1.389-11.805 5.555s-14.583 25.693-19.444 41.665c-4.861 15.971-14.582 16.666-22.221 15.277-6.111-1.111-8.564-5.556-9.027-7.639-.926 2.315-5.417 7.083-15.972 7.639-13.193.694-17.36-11.805-16.665-22.221.694-10.416 4.86-31.943 9.721-43.054zm157.725 95.666c-7.498-1.318-14.074-1.495-19.741-.894l-.443.057c-.743.095-1.573.201-2.466.331-5.41.874-9.89 2.479-13.451 4.439-2.356 1.549-4.397 3.627-5.731 6.444-5.23 11.041 6.579 17.802 9.44 19.44l.004.002.351.203c2.01 1.187 15.898 6.048 25.693-15.277 2.186-4.758 4.32-9.75 6.344-14.745zm-2.667-89.641c8.223-6.167 15.969-2 18.055 1.389 5.555 9.027.694 31.248-14.583 41.664-15.276 10.417-20.905-4.778-19.516-14.5 1.389-9.721 4.934-20.22 16.044-28.553zM127.506 385.129c-.865-.615-2.638-.705-5.332 1.409-14.796 11.61-38.276 4.83-52.636-.091-17.003-5.827-42.266-13.274-64.108 18.115-1.56 2.242-3.756 7.638-1.388 9.722 1.752 1.541 6.62-.298 8.921-2.444 4.12-3.841 17.218-12.191 38.658-8.403-.831 1.778-1.646 3.979-2.447 6.68L14.39 520c-1.388 5.092-1.388 15.138 9.722 14.583 13.503-.676 15.847-7.259 19.158-16.558l.285-.803c2.778-7.777 22.054-66.366 32.701-102.938.455-1.562.794-2.916.997-4.105 35.379 6.946 46.527-10.667 47.739-12.977 1.576-2.999 4.961-10.335 2.514-12.073zM576.093 385.129c-.865-.615-2.637-.705-5.332 1.409-14.796 11.61-38.275 4.83-52.636-.091-17.003-5.827-42.266-13.274-64.108 18.115-1.56 2.242-3.756 7.638-1.388 9.722 1.752 1.541 6.619-.298 8.921-2.444 4.121-3.841 17.219-12.191 38.658-8.403-.831 1.778-1.646 3.979-2.446 6.68L462.978 520c-1.389 5.092-1.389 15.138 9.721 14.583 13.503-.676 15.847-7.259 19.158-16.558l.286-.803c2.777-7.777 22.053-66.366 32.7-102.938.455-1.562.794-2.916.997-4.105 35.379 6.946 46.527-10.667 47.74-12.977 1.575-2.999 4.96-10.335 2.513-12.073z" fill="#516F96"/><path d="M424.14 438.506c7.569 0 11.556.833 13.889 12.499 1.388 6.944-5.556 10.229-12.5 10.416-38.076 1.028-57.758 2.952-66.012 2.682-10.317-.338-19.399.79-22.468-10.437-3.005-10.994 5.846-12.321 10.918-12.321l76.173-2.839zM99.23 430.26c1.39-12.5 9.363-16.666 15.277-16.666 6.945 0 12.499 4.166 12.499 14.582s-5.555 15.817-12.499 17.36c-6.249 1.389-16.744-2.083-15.277-15.276zM549.555 430.26c1.389-12.5 9.362-16.666 15.277-16.666 6.944 0 12.499 4.166 12.499 14.582s-5.555 15.817-12.499 17.36c-6.25 1.389-16.744-2.083-15.277-15.276z" fill="#6E97CB"/><path fill-rule="evenodd" clip-rule="evenodd" d="M109.577 452.398c-4.629-.232-14.86 1.528-18.749 10.416-4.86 11.111-9.027 32.637-9.721 43.053-.695 10.416 3.472 22.916 16.665 22.221 10.555-.555 15.046-5.323 15.972-7.638.463 2.083 2.917 6.527 9.027 7.638 7.639 1.389 17.361.695 22.221-15.277 4.861-15.971 12.5-34.72 19.444-41.664 6.944-6.944 9.722-6.944 11.805-5.555 2.083 1.388 1.389 9.027-2.778 19.443-4.166 10.416-9.722 33.332-2.778 39.581 6.945 6.25 27.082 9.028 40.97-18.749.232 5.556 4.306 17.638 18.749 21.527 14.444 3.889 27.777-5.787 32.638-11.111-2.547 10.416-10.278 36.387-20.833 56.942-13.193 25.693-24.642 16.42-25.693 15.277-1.462-1.591-7.638-9.028 1.389-22.221 7.222-10.555 3.009-17.823 0-20.138-3.24-3.935-11.666-9.444-19.443 0-9.722 11.805-7.639 33.331-2.083 41.664 5.555 8.333 21.526 21.527 48.608 11.111 23.31-8.966 30.672-31.821 39.799-60.154 1.476-4.585 2.999-9.312 4.643-14.148 9.444-27.776 15.046-47.219 16.666-53.469 2.083-5.555 3.611-17.082-6.944-18.749-13.194-2.083-19.444 4.166-20.832 13.888-2.778-4.629-11.944-13.888-26.388-13.888-18.054 0-34.72 9.722-40.97 38.887-1.157 3.703-4.166 12.082-6.944 15.971-3.472 4.861-6.944 6.25-8.333 4.861-1.389-1.389-2.778-2.778 1.389-12.499l.063-.148c4.214-9.831 15.137-35.316-.063-44.989-15.277-9.722-34.72 9.722-37.498 13.194v-5.555c.231-3.935-2.083-11.389-13.194-9.722-11.437 1.715-14.397 9.553-15.861 13.429-.314.831-.559 1.48-.805 1.848-.309.463-1.03 2.887-2.08 6.413-3.669 12.321-11.348 38.107-19.446 40.807-1.852.463-4.722-1.111-1.389-11.111 3.333-9.999 9.259-28.239 11.805-36.109 2.314-5.555 3.749-16.388-9.028-15.277zm154.364 17.83c-2.086-3.39-9.832-7.556-18.054-1.389-11.111 8.333-14.656 18.831-16.045 28.553-1.389 9.722 4.24 24.916 19.517 14.5s20.137-32.637 14.582-41.664zM541.153 462.404c3.889-8.888 14.12-10.647 18.749-10.416 12.777-1.111 11.342 9.722 9.028 15.277-2.546 7.87-8.472 26.11-11.805 36.109-3.333 10-.463 11.574 1.389 11.111 8.098-2.7 15.777-28.486 19.446-40.807 1.05-3.526 1.771-5.949 2.08-6.413.245-.367.49-1.016.804-1.847 1.465-3.877 4.425-11.714 15.862-13.43 11.11-1.666 13.425 5.787 13.194 9.722v5.555c2.777-3.472 22.221-22.915 37.498-13.194 15.2 9.673 4.277 35.158.063 44.99l-.063.147c-4.167 9.722-2.778 11.11-1.389 12.499 1.389 1.389 4.861 0 8.333-4.861 2.777-3.888 5.786-12.267 6.944-15.971 6.249-29.165 22.915-38.887 40.97-38.887 14.444 0 23.61 9.259 26.387 13.888 1.389-9.721 7.639-15.971 20.833-13.888 10.555 1.667 9.027 13.194 6.944 18.749-1.621 6.25-7.222 25.693-16.666 53.47-1.644 4.835-3.167 9.563-4.644 14.147-1.791 5.562-3.515 10.913-5.304 15.989 8.064 1.445 16.921-.368 34.873-10.895 2.778-1.629 6.25-2.778 7.639-.695.861 1.292-.631 3.771-4.862 6.944-.269.203-.676.582-1.223 1.091-4.312 4.014-17.317 16.121-40.258 13.621-6.621 15.9-15.077 28.104-30.663 34.099-27.082 10.416-43.053-2.777-48.609-11.11-5.516-8.274-5.092-25.499 7.37-34.047 4.711-4.109 19.458-11.826 44.638-7.82 1.656.264 3.22.555 4.702.867 4.762-12.768 8.438-24.324 9.953-30.524-4.86 5.324-18.193 14.999-32.637 11.11-14.443-3.888-18.517-15.971-18.749-21.526-13.888 27.776-34.026 24.998-40.97 18.749-6.944-6.25-1.389-29.165 2.778-39.582 4.166-10.416 4.861-18.054 2.777-19.443-2.083-1.389-4.86-1.389-11.804 5.555-6.945 6.944-14.583 25.693-19.444 41.665-4.861 15.971-14.582 16.665-22.221 15.277-6.111-1.111-8.564-5.556-9.027-7.639-.926 2.315-5.417 7.083-15.972 7.639-13.194.694-17.36-11.805-16.666-22.221.695-10.416 4.861-31.943 9.722-43.054zm157.725 95.666c-7.493-1.317-14.066-1.495-19.73-.895l-.454.058c-.75.095-1.588.202-2.489.335-5.395.873-9.865 2.474-13.419 4.428-2.359 1.55-4.404 3.63-5.74 6.45-5.23 11.042 6.578 17.803 9.44 19.441l.154.088.201.117c2.01 1.187 15.898 6.048 25.693-15.277 2.186-4.758 4.32-9.75 6.344-14.745zm-2.667-89.641c8.223-6.167 15.969-2.001 18.055 1.389 5.555 9.027.694 31.248-14.583 41.664-15.277 10.416-20.905-4.778-19.516-14.5 1.389-9.721 4.934-20.22 16.044-28.553zM128.118 378.884c-.865-.615-2.637-.705-5.332 1.409-14.796 11.61-38.275 4.83-52.636-.091-17.003-5.827-42.266-13.274-64.108 18.115-1.56 2.242-3.756 7.638-1.388 9.721 1.752 1.542 6.62-.297 8.921-2.443 4.12-3.841 17.219-12.191 38.659-8.403-.832 1.778-1.647 3.979-2.447 6.68L15.003 513.755c-1.389 5.092-1.389 15.138 9.721 14.582 13.504-.675 15.847-7.258 19.158-16.558l.286-.802c2.778-7.777 22.053-66.366 32.7-102.938.455-1.562.794-2.916.997-4.106 35.379 6.947 46.527-10.667 47.74-12.976 1.575-2.999 4.96-10.335 2.513-12.073zM576.707 378.884c-.865-.615-2.637-.705-5.332 1.409-14.796 11.61-38.275 4.83-52.635-.091-17.004-5.827-42.267-13.274-64.108 18.115-1.561 2.242-3.757 7.638-1.389 9.721 1.752 1.542 6.62-.297 8.921-2.443 4.121-3.841 17.219-12.192 38.66-8.403-.832 1.778-1.647 3.979-2.447 6.68l-34.784 109.883c-1.389 5.092-1.389 15.138 9.722 14.582 13.503-.675 15.846-7.258 19.157-16.558l.286-.802c2.777-7.777 22.053-66.366 32.701-102.938.454-1.562.793-2.916.996-4.105 35.378 6.945 46.526-10.668 47.739-12.977 1.575-2.999 4.96-10.335 2.513-12.073z" fill="#6E97CB"/><path fill-rule="evenodd" clip-rule="evenodd" d="M381.951 181.088c-3.018-.477-9.913.286-13.345 7.149l-17.113 57.667c-.953 3.495-.953 10.39 6.672 10.009 9.268-.463 10.876-4.982 13.148-11.364l.196-.551c1.628-4.557 6.581-21.595 12.543-42.1l3.141-10.802c1.11-3.812.954-9.03-5.242-10.008zm-28.075 81.497c-4.059 0-9.532 2.86-10.485 11.438-1.007 9.056 6.196 11.439 10.485 10.485 4.766-1.059 8.578-4.765 8.578-11.914s-3.812-10.009-8.578-10.009zM426.713 181.088c-3.018-.477-9.913.286-13.344 7.149l-17.114 57.667c-.953 3.495-.953 10.39 6.672 10.009 9.268-.463 10.876-4.982 13.149-11.364l.196-.551c1.627-4.557 6.581-21.595 12.542-42.1l3.142-10.802c1.11-3.812.953-9.03-5.243-10.008zm-27.938 81.497c-4.06 0-9.532 2.86-10.486 11.438-1.006 9.056 6.196 11.439 10.486 10.485 4.766-1.059 8.578-4.765 8.578-11.914s-3.812-10.009-8.578-10.009zM123.682 188.237c3.431-6.863 10.326-7.626 13.344-7.149 6.196.978 6.353 6.196 5.243 10.008a16041.153 16041.153 0 01-11.531 39.408c.534-.164 1.078-.326 1.634-.487 9.216-2.675 16.726-2.819 22.777-1.621 4.484-15.272 9.576-32.434 11.428-38.253 2.669-8.388 10.008-9.214 13.344-8.578 7.149 1.361 6.145 8.578 5.242 11.438-3.485 11.039-9.07 29.586-13.347 44.179 2.903 2.886 4.49 5.553 5.069 6.526.075.126.133.224.175.29.521.821.477 1.43 0 1.906-.477.477-1.722.477-2.741-.14a68.512 68.512 0 00-4.304-2.405c-1.881 6.49-3.321 11.609-3.915 13.984-2.383 9.531-4.289 17.497 0 18.11 3.336.477 6.672-8.102 10.008-16.681 3.813-22.876 17.634-26.689 26.213-27.165 9.239-.514 18.647 5.061 14.298 18.11-3.632 10.894-16.052 14.006-22.442 15.101-.128 8.838 3.228 14.792 11.956 12.065 4.494-1.404 9.097-7.607 12.739-14.124.611-5.626 1.95-11.489 3.367-16.378 4.607-15.886 14.012-47.85 16.681-56.238 2.669-8.388 10.009-9.214 13.345-8.578 7.148 1.361 6.145 8.578 5.242 11.438-5.719 18.11-17.087 56.432-19.064 64.34-2.383 9.531-4.289 17.497 0 18.11 3.097.442 6.193-6.916 9.29-14.835.686-4.951 1.864-9.966 3.102-14.237 2.196-7.57 4.421-15.869 6.437-23.391v-.001l.001-.001v-.002c2.215-8.261 4.178-15.585 5.575-19.975 2.669-8.388 10.008-9.214 13.344-8.579 7.149 1.362 6.146 8.579 5.243 11.439-5.72 18.11-12.419 43.564-14.396 51.472-2.383 9.532-4.289 17.497 0 18.11 3.152.45 6.304-7.181 9.456-15.26.039-.769.097-1.56.174-2.374 1.952-20.493 19.064-25.736 28.119-25.259 9.043.476 13.821 7.625 13.821 12.868 3.813 1.525 4.017 7.625 3.336 12.391-.816 5.715-3.38 13.526-10.087 19.544 1.843 1.168 4.779 1.348 7.704-1.382 5.86-5.47 8.748-12.682 10.198-16.301.318-.796.568-1.418.763-1.81.143-.284.274-.566.401-.839l.002-.003v-.001c.726-1.557 1.313-2.817 2.934-2.493 1.906.382 1.559 2.383.476 4.766-2.383 5.243-6.672 14.438-12.868 19.54-4.644 3.825-9.617 2.726-12.644.911-.229.158-.463.314-.7.468-9.089 5.908-27.987 7.296-31.217-11.634-4.284 8.525-10.479 18.742-22.736 14.97-4.743-1.459-6.669-6.475-6.998-12.765-4.245 7.958-10.385 16.215-21.598 12.765-4.681-1.44-6.619-6.345-6.985-12.521-4.695 6.8-10.151 10.977-15.793 12.045-17.634 3.336-25.736-8.261-26.689-14.775-4.289 8.579-10.485 19.064-22.876 15.251-10.485-3.226-7.206-23.829-3.336-37.174.712-2.454 1.538-5.292 2.436-8.367-6.418-.576-12.973.308-19.96 2.648-.666.223-1.362.464-2.084.713-.976.338-1.999.692-3.061 1.041-4.551 15.402-8.368 28.142-9.265 30.654l-.086.243-.11.308c-2.272 6.382-3.88 10.901-13.148 11.364-7.625.381-7.625-6.513-6.672-10.008l9.138-30.798c-4.832-1.405-9.545-4.663-13.648-11.01-.61-.944-.572-1.913.063-2.528.466-.451 1.43-.477 2.47.169 5.339 3.309 9.615 4.678 13.637 4.868l14.076-47.441zm70.304 71.837c1.246-9.121 6.538-19.9 12.623-20.77 7.149-1.021 6.672 9.056 2.86 12.868l-.147.147c-2.91 2.912-4.681 4.684-15.336 7.755zm109.889-16.473c5.084-2.859 8.579-1.429 10.485 2.383-2.859.953-7.657 7.626-9.055 12.868-1.906 7.149-1.43 13.345 0 17.634-2.383.953-10.048 1.063-10.485-8.102-.408-8.579 2.277-20.97 9.055-24.783zm5.243 17.158c1.43-5.72 5.242-10.962 7.149-10.485 3.336.953.335 11.552-.953 14.774-.954 2.383-3.337 7.149-6.196 9.532-.953-2.383-1.43-8.102 0-13.821z" fill="#9EB6D5"/><path d="M537.567 182.636c3.608-7.215 10.857-8.017 14.03-7.516 6.514 1.029 6.679 6.514 5.512 10.523-7.683 26.39-23.551 80.574-25.555 86.186-2.505 7.015-4.009 12.026-14.03 12.527-8.017.4-8.017-6.848-7.015-10.523l27.058-91.197zM586.784 180.272c5.834-3.599 11.214 2.194 11.894 4.208 3.616 7.38-.171 12.774-4.865 15.483l-13.862 7.676c-2.459 1.579-6.26 3.612-8.052 3.843-1.791.232-4.935-1.324-2.713-5.815 2.889-5.838 11.161-21.425 17.598-25.395zM578.824 236.84c2.884-8.182 8.396-9.184 13.53-8.018 7.894 1.794 8.017 7.016 7.015 10.523 7.015-7.516 16.034-14.531 24.553-10.523 6.814 3.207 7.85 11.024 7.516 14.532l4.509-5.512c9.02-11.188 20.044-13.529 28.061-7.015 7.894 6.414.278 24.388-2.127 30.401-2.005 5.011-2.761 9.559-.88 10.186 1.882.627 3.983-.665 6.013-3.507 3.697-5.176 6.685-13.279 7.394-14.696.501-1.002 1.503-2.505 3.006-2.004 1.503.501.958 2.335.624 3.17-8.641 18.376-14.872 25.82-22.047 28.562-7.641 2.92-15.534 0-16.035-9.019-.501-9.02 3.007-13.028 6.514-25.054 2.806-9.621.956-11.65-1.503-11.525-7.639.387-15.155 12.362-18.663 26.393-.613 2.451-2.107 8.326-3.508 12.527-1.837 5.511-6.514 7.015-11.023 7.015-4.679 0-8.018-.864-9.02-3.508-1.274-3.362 1.115-8.767 1.626-10.358 4.51-14.03 6.101-25.044 6.514-29.063.379-3.672-4.131-5.175-9.52 3.007-6.846 10.394-11.024 24.052-12.527 29.062-1.503 5.011-5.134 10.86-14.531 11.024-8.026.14-7.684-6.514-6.514-10.022 2.338-8.852 8.153-28.434 11.023-36.578z" fill="#9EB6D4"/></svg>