<svg width="1366" height="434" fill="none" xmlns="http://www.w3.org/2000/svg"><path d="M222.365 190.329c4.783-9.567 14.395-10.63 18.602-9.965 8.637 1.363 8.856 8.637 7.309 13.952-10.188 34.99-31.226 106.832-33.884 114.273-3.322 9.301-5.315 15.945-18.602 16.609-10.63.532-10.63-9.079-9.302-13.952l35.877-120.917zM287.622 187.194c7.736-4.771 14.868 2.91 15.771 5.58 4.794 9.785-.227 16.937-6.452 20.528l-18.379 10.179c-3.26 2.093-8.3 4.788-10.675 5.095-2.376.307-6.544-1.755-3.598-7.71 3.831-7.741 14.798-28.407 23.333-33.672zM277.069 262.197c3.824-10.848 11.132-12.177 17.939-10.63 10.467 2.379 10.63 9.301 9.301 13.952 9.301-9.966 21.26-19.267 32.555-13.952 9.035 4.252 10.408 14.617 9.965 19.267l5.98-7.308c11.959-14.834 26.575-17.938 37.205-9.301 10.467 8.504.368 32.336-2.821 40.309-2.657 6.644-3.66 12.674-1.165 13.505 2.494.832 5.281-.882 7.972-4.65 4.902-6.862 8.863-17.606 9.803-19.485.664-1.329 1.993-3.322 3.986-2.658 1.993.665 1.271 3.097.828 4.205-11.458 24.364-19.719 34.234-29.233 37.869-10.131 3.871-20.596 0-21.26-11.959-.665-11.958 3.986-17.273 8.637-33.219 3.72-12.756 1.267-15.446-1.993-15.28-10.129.513-20.095 16.391-24.746 34.994-.812 3.25-2.793 11.039-4.65 16.609-2.436 7.309-8.637 9.302-14.617 9.302-6.203 0-10.63-1.145-11.958-4.651-1.69-4.458 1.478-11.624 2.156-13.734 5.979-18.603 8.088-33.206 8.637-38.534.501-4.869-5.478-6.862-12.623 3.986-9.078 13.782-14.617 31.89-16.61 38.534-1.993 6.644-6.807 14.399-19.267 14.617-10.642.186-10.187-8.637-8.637-13.288 3.1-11.737 10.811-37.702 14.616-48.5zM852.654 238.746c7.241 0 11.056.798 13.288 11.959 1.329 6.644-5.315 9.786-11.959 9.966-36.43.983-55.26 2.824-63.158 2.565-9.871-.323-18.56.756-21.496-9.985-2.875-10.519 5.593-11.788 10.446-11.788l72.879-2.717zM541.793 230.856c1.33-11.959 8.958-15.945 14.617-15.945 6.644 0 11.959 3.986 11.959 13.952s-5.315 15.133-11.959 16.61c-5.979 1.328-16.02-1.994-14.617-14.617zM972.643 230.856c1.33-11.959 8.958-15.945 14.617-15.945 6.644 0 11.959 3.986 11.959 13.952s-5.315 15.133-11.959 16.61c-5.979 1.328-16.02-1.994-14.617-14.617z" fill="#516F96"/><path fill-rule="evenodd" clip-rule="evenodd" d="M551.695 252.037c-4.429-.221-14.217 1.462-17.938 9.966-4.65 10.63-8.637 31.226-9.301 41.192-.664 9.965 3.322 21.924 15.945 21.26 10.099-.532 14.395-5.094 15.281-7.308.443 1.993 2.79 6.245 8.637 7.308 7.308 1.329 16.609.664 21.26-14.616 4.651-15.281 11.959-33.219 18.603-39.863 6.644-6.644 9.301-6.644 11.294-5.315 1.993 1.328 1.329 8.637-2.657 18.602-3.987 9.966-9.302 31.891-2.658 37.87 6.644 5.979 25.911 8.637 39.199-17.938.221 5.315 4.119 16.875 17.938 20.596 13.819 3.72 26.575-5.537 31.226-10.631-2.436 9.966-9.833 34.814-19.932 54.48-12.623 24.582-23.576 15.71-24.582 14.616-1.399-1.522-7.308-8.637 1.329-21.26 6.91-10.099 2.879-17.053 0-19.267-3.1-3.765-11.162-9.036-18.603 0-9.301 11.294-7.308 31.89-1.993 39.863 5.315 7.972 20.596 20.595 46.507 10.63 22.302-8.578 29.346-30.446 38.077-57.553 1.413-4.386 2.87-8.91 4.443-13.536 9.036-26.575 14.395-45.178 15.945-51.157 1.993-5.315 3.455-16.344-6.643-17.939-12.624-1.993-18.603 3.987-19.932 13.288-2.657-4.429-11.427-13.288-25.246-13.288-17.274 0-33.219 9.302-39.199 37.206-1.107 3.543-3.986 11.56-6.644 15.281-3.321 4.65-6.643 5.979-7.972 4.65-1.329-1.329-2.658-2.657 1.329-11.959l.06-.141c4.032-9.406 14.483-33.789-.06-43.043-14.617-9.302-33.219 9.301-35.877 12.623v-5.315c.222-3.765-1.993-10.896-12.623-9.302-10.942 1.642-13.775 9.14-15.176 12.849-.3.795-.535 1.416-.769 1.768-.296.443-.986 2.762-1.991 6.135-3.51 11.789-10.857 36.46-18.605 39.043-1.772.443-4.518-1.063-1.329-10.63s8.859-27.019 11.295-34.548c2.214-5.315 3.587-15.68-8.638-14.617zm147.688 17.059c-1.996-3.243-9.407-7.229-17.274-1.329-10.63 7.973-14.022 18.018-15.351 27.319-1.329 9.301 4.056 23.839 18.673 13.873 14.616-9.966 19.266-31.226 13.952-39.863zM964.607 261.611c3.721-8.504 13.51-10.187 17.939-9.966 12.224-1.063 10.851 9.302 8.637 14.617-2.436 7.529-8.106 24.98-11.295 34.548-3.189 9.567-.442 11.073 1.329 10.63 7.749-2.583 15.095-27.254 18.605-39.043 1.008-3.373 1.698-5.692 1.988-6.135.24-.352.47-.973.77-1.768 1.4-3.709 4.24-11.207 15.18-12.849 10.63-1.594 12.84 5.537 12.62 9.302v5.315c2.66-3.322 21.26-21.925 35.88-12.623 14.54 9.254 4.09 33.637.06 43.043l-.06.141c-3.99 9.302-2.66 10.63-1.33 11.959 1.33 1.329 4.65 0 7.97-4.651 2.66-3.72 5.54-11.737 6.65-15.28 5.97-27.904 21.92-37.206 39.19-37.206 13.82 0 22.59 8.859 25.25 13.288 1.33-9.301 7.31-15.281 19.93-13.288 10.1 1.595 8.64 12.624 6.65 17.939-1.55 5.979-6.91 24.582-15.95 51.157-1.57 4.626-3.03 9.15-4.44 13.536-1.72 5.321-3.37 10.44-5.08 15.297 7.72 1.382 16.19-.352 33.37-10.424 2.66-1.558 5.98-2.657 7.31-.664.82 1.236-.61 3.607-4.66 6.644-.25.193-.64.556-1.17 1.043-4.12 3.84-16.56 15.424-38.51 13.032-6.34 15.212-14.43 26.889-29.34 32.625-25.91 9.965-41.19-2.658-46.51-10.63-5.27-7.916-4.87-24.396 7.05-32.574 4.51-3.932 18.62-11.315 42.71-7.483 1.59.253 3.08.531 4.5.83 4.56-12.216 8.07-23.272 9.52-29.205-4.65 5.094-17.4 14.351-31.22 10.63-13.82-3.72-17.72-15.28-17.94-20.595-13.29 26.575-32.55 23.917-39.2 17.938-6.64-5.979-1.33-27.904 2.66-37.87 3.99-9.965 4.65-17.274 2.66-18.602-2-1.329-4.65-1.329-11.3 5.315-6.64 6.643-13.95 24.582-18.6 39.862-4.65 15.281-13.95 15.946-21.261 14.617-5.846-1.063-8.194-5.315-8.637-7.308-.886 2.214-5.182 6.776-15.281 7.308-12.623.664-16.609-11.295-15.945-21.26.665-9.966 4.651-30.562 9.301-41.192zm150.903 91.529c-7.17-1.26-13.46-1.43-18.87-.856l-.44.055c-.72.092-1.52.194-2.38.32-5.16.836-9.44 2.368-12.84 4.237-2.26 1.483-4.21 3.473-5.49 6.172-5 10.564 6.29 17.032 9.03 18.6.14.077.25.143.34.196 1.92 1.135 15.21 5.786 24.58-14.616 2.09-4.553 4.14-9.329 6.07-14.108zm-2.55-85.765c7.87-5.9 15.28-1.914 17.27 1.329 5.32 8.637.67 29.897-13.95 39.863-14.62 9.966-20-4.572-18.67-13.873 1.33-9.301 4.72-19.346 15.35-27.319zM569.43 181.702c-.828-.588-2.523-.674-5.101 1.349-14.156 11.107-36.621 4.621-50.36-.088-16.268-5.574-40.439-12.699-61.336 17.332-1.492 2.145-3.594 7.308-1.328 9.301 1.676 1.475 6.333-.285 8.535-2.338 3.943-3.674 16.475-11.665 36.99-8.039-.796 1.701-1.575 3.806-2.341 6.391l-33.28 105.131c-1.329 4.872-1.329 14.484 9.302 13.952 12.919-.646 15.161-6.944 18.329-15.842l.273-.767c2.658-7.441 21.1-63.497 31.287-98.488.435-1.494.759-2.789.953-3.927 33.847 6.645 44.512-10.206 45.672-12.416 1.507-2.869 4.746-9.888 2.405-11.551zM998.62 181.702c-.828-.588-2.523-.674-5.101 1.349-14.157 11.107-36.621 4.621-50.36-.088-16.268-5.574-40.439-12.699-61.336 17.332-1.493 2.145-3.594 7.308-1.329 9.301 1.677 1.475 6.334-.285 8.536-2.338 3.943-3.674 16.475-11.665 36.989-8.039-.795 1.701-1.574 3.806-2.34 6.391l-33.28 105.131c-1.329 4.872-1.329 14.484 9.301 13.952 12.919-.646 15.162-6.944 18.329-15.842l.274-.767c2.657-7.441 21.099-63.497 31.287-98.488.434-1.494.759-2.789.953-3.927 33.847 6.645 44.512-10.206 45.672-12.416 1.507-2.869 4.745-9.888 2.405-11.551z" fill="#516F96"/><path d="M216.48 186.807c4.784-9.567 14.395-10.63 18.603-9.965 8.636 1.363 8.855 8.637 7.308 13.952-10.187 34.99-31.226 106.832-33.884 114.273-3.322 9.301-5.315 15.945-18.602 16.609-10.63.532-10.63-9.079-9.302-13.951l35.877-120.918zM281.737 183.672c7.736-4.771 14.869 2.91 15.771 5.58 4.794 9.785-.227 16.937-6.451 20.528l-18.38 10.179c-3.26 2.093-8.299 4.788-10.675 5.095-2.376.307-6.544-1.755-3.598-7.71 3.831-7.741 14.798-28.407 23.333-33.672zM271.185 258.675c3.823-10.848 11.131-12.177 17.938-10.63 10.467 2.379 10.63 9.302 9.301 13.952 9.302-9.966 21.26-19.267 32.555-13.952 9.035 4.252 10.408 14.617 9.966 19.267l5.979-7.308c11.959-14.834 26.575-17.938 37.205-9.301 10.467 8.504.369 32.336-2.82 40.309-2.658 6.644-3.66 12.674-1.166 13.506 2.494.831 5.281-.883 7.973-4.651 4.901-6.862 8.863-17.606 9.802-19.485.665-1.329 1.993-3.322 3.986-2.658 1.994.665 1.271 3.097.828 4.205-11.458 24.364-19.718 34.234-29.233 37.869-10.131 3.871-20.596 0-21.26-11.959-.664-11.958 3.986-17.273 8.637-33.219 3.721-12.756 1.267-15.446-1.993-15.28-10.129.513-20.095 16.391-24.745 34.994-.813 3.25-2.794 11.039-4.651 16.609-2.436 7.309-8.637 9.302-14.616 9.302-6.204 0-10.631-1.145-11.959-4.651-1.689-4.458 1.478-11.624 2.156-13.734 5.979-18.603 8.088-33.206 8.637-38.534.501-4.869-5.478-6.862-12.623 3.986-9.078 13.782-14.617 31.89-16.61 38.534-1.993 6.644-6.807 14.399-19.267 14.617-10.642.186-10.187-8.637-8.637-13.288 3.101-11.737 10.811-37.702 14.617-48.5zM846.769 233.224c7.242 0 11.056.798 13.288 11.959 1.329 6.644-5.315 9.786-11.959 9.966-36.43.983-55.26 2.824-63.157 2.565-9.872-.323-18.561.756-21.497-9.985-2.875-10.519 5.593-11.788 10.446-11.788l72.879-2.717zM535.909 225.334c1.329-11.959 8.957-15.945 14.616-15.945 6.644 0 11.959 3.986 11.959 13.952s-5.315 15.133-11.959 16.61c-5.979 1.328-16.02-1.993-14.616-14.617zM966.759 225.334c1.33-11.959 8.958-15.945 14.616-15.945 6.645 0 11.959 3.986 11.959 13.952s-5.315 15.133-11.959 16.61c-5.979 1.328-16.02-1.993-14.616-14.617z" fill="#6E97CB"/><path fill-rule="evenodd" clip-rule="evenodd" d="M545.811 246.516c-4.429-.222-14.218 1.461-17.939 9.965-4.65 10.63-8.636 31.226-9.301 41.192-.664 9.965 3.322 21.924 15.945 21.26 10.099-.532 14.395-5.094 15.281-7.308.443 1.993 2.791 6.245 8.637 7.308 7.308 1.329 16.61.664 21.26-14.616 4.651-15.281 11.959-33.219 18.603-39.863 6.644-6.644 9.301-6.644 11.294-5.315 1.994 1.329 1.329 8.637-2.657 18.602-3.986 9.966-9.301 31.891-2.658 37.87 6.644 5.979 25.911 8.637 39.199-17.938.221 5.315 4.119 16.875 17.938 20.596 13.819 3.72 26.575-5.537 31.226-10.631-2.436 9.966-9.833 34.814-19.931 54.48-12.624 24.582-23.577 15.71-24.582 14.616-1.399-1.522-7.309-8.637 1.328-21.26 6.91-10.099 2.879-17.053 0-19.267-3.1-3.765-11.161-9.036-18.602 0-9.302 11.294-7.309 31.89-1.993 39.863 5.315 7.972 20.595 20.595 46.506 10.63 22.302-8.578 29.346-30.446 38.078-57.553 1.412-4.386 2.869-8.91 4.442-13.536 9.036-26.575 14.395-45.178 15.946-51.157 1.993-5.315 3.454-16.344-6.644-17.938-12.623-1.994-18.603 3.986-19.932 13.287-2.657-4.429-11.427-13.287-25.246-13.287-17.274 0-33.219 9.301-39.199 37.205-1.107 3.543-3.986 11.56-6.643 15.281-3.322 4.65-6.644 5.979-7.973 4.65-1.329-1.329-2.657-2.657 1.329-11.959l.06-.141c4.032-9.406 14.483-33.789-.06-43.043-14.616-9.302-33.219 9.301-35.877 12.623v-5.315c.222-3.765-1.993-10.896-12.623-9.301-10.942 1.641-13.775 9.139-15.176 12.848-.3.795-.534 1.416-.769 1.768-.296.443-.986 2.762-1.991 6.136-3.51 11.788-10.856 36.459-18.605 39.042-1.771.443-4.518-1.063-1.329-10.63 3.19-9.567 8.859-27.018 11.295-34.548 2.214-5.315 3.587-15.679-8.637-14.616zm147.687 17.058c-1.996-3.243-9.407-7.229-17.274-1.329-10.63 7.973-14.022 18.018-15.351 27.319-1.328 9.301 4.056 23.839 18.673 13.873 14.616-9.966 19.267-31.226 13.952-39.863zM958.723 256.089c3.721-8.504 13.509-10.187 17.939-9.966 12.224-1.063 10.851 9.302 8.637 14.617-2.436 7.529-8.106 24.98-11.295 34.548-3.189 9.567-.442 11.073 1.329 10.63 7.749-2.583 15.095-27.254 18.605-39.043 1.005-3.373 1.695-5.692 1.991-6.135.235-.352.469-.973.769-1.768 1.401-3.709 4.232-11.207 15.172-12.849 10.63-1.594 12.85 5.537 12.63 9.302v5.315c2.65-3.322 21.26-21.925 35.87-12.623 14.55 9.254 4.1 33.637.06 43.043l-.06.141c-3.98 9.302-2.65 10.63-1.32 11.959 1.32 1.329 4.65 0 7.97-4.651 2.66-3.72 5.53-11.737 6.64-15.28 5.98-27.904 21.93-37.206 39.2-37.206 13.82 0 22.59 8.859 25.25 13.288 1.33-9.301 7.3-15.281 19.93-13.288 10.1 1.595 8.63 12.624 6.64 17.939-1.55 5.979-6.91 24.582-15.94 51.157-1.58 4.626-3.03 9.15-4.45 13.536-1.71 5.321-3.36 10.44-5.07 15.297 7.71 1.382 16.19-.352 33.36-10.424 2.66-1.558 5.98-2.657 7.31-.664.83 1.236-.6 3.607-4.65 6.644-.26.193-.65.556-1.17 1.043-4.13 3.84-16.57 15.423-38.52 13.032-6.33 15.212-14.42 26.889-29.33 32.625-25.91 9.965-41.2-2.658-46.51-10.63-5.28-7.916-4.87-24.393 7.05-32.572 4.5-3.931 18.61-11.318 42.71-7.485 1.58.253 3.08.531 4.5.83 4.55-12.216 8.07-23.272 9.52-29.205-4.65 5.094-17.41 14.351-31.23 10.63-13.82-3.72-17.71-15.28-17.93-20.595-13.29 26.575-32.56 23.917-39.2 17.938-6.65-5.979-1.33-27.904 2.65-37.87 3.99-9.965 4.66-17.274 2.66-18.602-1.99-1.329-4.65-1.329-11.29 5.315-6.65 6.643-13.95 24.582-18.6 39.863-4.66 15.28-13.957 15.945-21.265 14.616-5.846-1.063-8.194-5.315-8.637-7.308-.886 2.214-5.182 6.776-15.281 7.308-12.623.664-16.609-11.295-15.945-21.26.664-9.966 4.651-30.562 9.301-41.192zm150.907 91.529c-7.17-1.26-13.46-1.43-18.88-.857l-.43.056c-.72.092-1.53.194-2.39.321-5.16.836-9.43 2.366-12.83 4.234-2.26 1.483-4.22 3.474-5.49 6.174-5.01 10.564 6.29 17.032 9.03 18.6.13.077.25.143.34.196 1.92 1.135 15.21 5.786 24.58-14.616 2.09-4.553 4.13-9.329 6.07-14.108zm-2.56-85.765c7.87-5.9 15.28-1.914 17.28 1.329 5.31 8.637.66 29.897-13.95 39.863-14.62 9.966-20-4.572-18.68-13.873 1.33-9.301 4.72-19.346 15.35-27.319zM563.546 176.18c-.828-.588-2.523-.674-5.101 1.349-14.157 11.107-36.621 4.621-50.36-.088-16.268-5.574-40.439-12.699-61.336 17.332-1.493 2.145-3.594 7.308-1.329 9.301 1.677 1.475 6.334-.285 8.536-2.338 3.943-3.674 16.475-11.665 36.99-8.039-.796 1.702-1.575 3.806-2.341 6.391l-33.28 105.131c-1.329 4.872-1.329 14.484 9.301 13.952 12.919-.646 15.162-6.944 18.329-15.842l.274-.767c2.657-7.441 21.099-63.497 31.287-98.488.435-1.494.759-2.789.953-3.927 33.847 6.645 44.512-10.206 45.672-12.416 1.507-2.869 4.746-9.888 2.405-11.551zM992.735 176.18c-.828-.588-2.523-.674-5.101 1.349-14.157 11.107-36.621 4.621-50.36-.088-16.268-5.574-40.439-12.699-61.336 17.332-1.493 2.145-3.594 7.308-1.328 9.301 1.676 1.475 6.333-.285 8.535-2.338 3.943-3.674 16.475-11.665 36.99-8.039-.796 1.702-1.575 3.807-2.341 6.391l-33.28 105.131c-1.329 4.872-1.329 14.484 9.301 13.952 12.92-.646 15.162-6.944 18.329-15.842l.274-.767c2.658-7.441 21.1-63.497 31.287-98.488.435-1.494.759-2.789.953-3.927 33.847 6.645 44.512-10.206 45.672-12.416 1.507-2.869 4.746-9.888 2.405-11.551z" fill="#6E97CB"/><path fill-rule="evenodd" clip-rule="evenodd" d="M796.338 37.1c-2.662-.42-8.743.253-11.77 6.306l-15.094 50.861c-.84 3.083-.84 9.163 5.885 8.827 8.174-.409 9.593-4.393 11.597-10.023l.173-.485c1.435-4.02 5.804-19.047 11.062-37.131.9-3.1 1.828-6.288 2.77-9.527.979-3.363.841-7.964-4.623-8.827zm-24.762 71.879c-3.581 0-8.407 2.522-9.248 10.088-.888 7.986 5.465 10.088 9.248 9.247 4.203-.934 7.566-4.203 7.566-10.508 0-6.305-3.363-8.827-7.566-8.827zM835.811 37.1c-2.662-.42-8.743.253-11.769 6.306l-15.094 50.861c-.841 3.083-.841 9.163 5.885 8.827 8.173-.409 9.592-4.393 11.596-10.023l.173-.485c1.435-4.02 5.804-19.047 11.062-37.131l2.771-9.527c.979-3.363.841-7.964-4.624-8.827zm-24.639 71.879c-3.58 0-8.406 2.522-9.247 10.088-.888 7.986 5.464 10.088 9.247 9.247 4.204-.934 7.566-4.203 7.566-10.508 0-6.305-3.362-8.827-7.566-8.827zM568.552 43.406c3.027-6.053 9.108-6.725 11.77-6.305 5.464.863 5.603 5.464 4.624 8.827-2.656 9.121-6.477 22.2-10.17 34.756.471-.144.951-.287 1.441-.43 8.128-2.358 14.75-2.486 20.087-1.43 3.955-13.468 8.446-28.605 10.079-33.737 2.354-7.398 8.827-8.126 11.769-7.566 6.305 1.201 5.42 7.566 4.624 10.088-3.075 9.736-8 26.093-11.772 38.963 2.561 2.546 3.961 4.9 4.472 5.758.067.111.118.198.155.256.459.724.42 1.26 0 1.681-.421.42-1.52.42-2.418-.124a60.533 60.533 0 00-3.798-2.122c-1.658 5.725-2.929 10.239-3.453 12.334-2.101 8.407-3.783 15.433 0 15.973 2.943.42 5.885-7.146 8.827-14.712 3.363-20.176 15.553-23.539 23.119-23.96 8.149-.452 16.447 4.465 12.61 15.974-3.202 9.607-14.157 12.352-19.792 13.318-.113 7.795 2.847 13.047 10.545 10.641 3.963-1.239 8.024-6.71 11.236-12.459.539-4.961 1.719-10.131 2.97-14.443 4.063-14.011 12.358-42.202 14.712-49.6 2.353-7.398 8.827-8.126 11.769-7.566 6.305 1.201 5.42 7.566 4.624 10.088-5.045 15.973-15.071 49.772-16.814 56.746-2.102 8.407-3.783 15.433 0 15.973 2.731.39 5.461-6.098 8.192-13.081.604-4.368 1.644-8.792 2.736-12.56 1.936-6.675 3.898-13.993 5.676-20.626l.001-.003v-.001h.001c1.953-7.288 3.685-13.748 4.917-17.62 2.354-7.398 8.827-8.127 11.77-7.567 6.304 1.201 5.419 7.566 4.623 10.089-5.044 15.972-10.953 38.422-12.696 45.396-2.102 8.407-3.783 15.433 0 15.973 2.78.397 5.559-6.333 8.339-13.458a48.94 48.94 0 01.154-2.095c1.721-18.074 16.814-22.698 24.8-22.278 7.976.42 12.19 6.726 12.19 11.35 3.363 1.345 3.543 6.725 2.942 10.929-.72 5.039-2.981 11.929-8.897 17.236 1.626 1.03 4.216 1.189 6.795-1.219 5.169-4.824 7.716-11.184 8.994-14.377.281-.701.501-1.25.674-1.595.124-.25.24-.497.351-.737l.002-.002.002-.005c.64-1.373 1.158-2.485 2.587-2.199 1.681.337 1.376 2.102.42 4.204-2.101 4.623-5.884 12.733-11.349 17.234-4.096 3.373-8.482 2.404-11.151.802-.203.14-.408.278-.618.413-8.016 5.211-24.683 6.435-27.532-10.26-3.779 7.518-9.243 16.529-20.052 13.203-4.183-1.287-5.882-5.71-6.173-11.258-3.743 7.019-9.159 14.301-19.047 11.258-4.129-1.271-5.838-5.597-6.161-11.045-4.141 5.999-8.954 9.683-13.93 10.624-15.552 2.943-22.698-7.285-23.539-13.03-3.783 7.566-9.247 16.814-20.176 13.451-9.247-2.846-6.355-21.017-2.942-32.787.628-2.164 1.356-4.667 2.148-7.38-5.66-.507-11.44.273-17.602 2.336-.588.197-1.201.41-1.838.63-.86.297-1.763.61-2.699.917-4.014 13.584-7.381 24.821-8.172 27.036l-.173.486c-2.004 5.629-3.422 9.614-11.596 10.023-6.726.336-6.726-5.745-5.885-8.827l8.059-27.163c-4.261-1.24-8.418-4.112-12.036-9.71-.538-.833-.505-1.688.055-2.23.411-.397 1.261-.42 2.18.149 4.708 2.919 8.479 4.126 12.026 4.294l12.414-41.842zm62.006 63.358c1.098-8.044 5.766-17.551 11.133-18.318 6.305-.9 5.885 7.987 2.522 11.35l-.129.128c-2.567 2.569-4.129 4.132-13.526 6.84zm96.918-14.528c4.483-2.522 7.566-1.261 9.247 2.101-2.522.841-6.753 6.726-7.986 11.35-1.682 6.305-1.261 11.769 0 15.552-2.102.841-8.863.937-9.248-7.146-.36-7.566 2.008-18.495 7.987-21.857zm4.623 15.132c1.262-5.044 4.624-9.668 6.305-9.247 2.943.84.296 10.189-.84 13.03-.841 2.102-2.943 6.305-5.465 8.407-.84-2.102-1.261-7.146 0-12.19z" fill="#9EB6D5"/></svg>