<?xml version="1.0" encoding="UTF-8"?>
<svg width="122px" height="123px" viewBox="0 0 122 123" version="1.1" xmlns="http://www.w3.org/2000/svg" xmlns:xlink="http://www.w3.org/1999/xlink">
    <title>LineBg</title>
    <g id="Page-1" stroke="none" stroke-width="1" fill="none" fill-rule="evenodd" opacity="0.4" stroke-linecap="square">
        <g id="Index" transform="translate(-1798.000000, -3479.000000)" stroke="#5CF5E5">
            <g id="first-take" transform="translate(0.000000, -1431.000000)">
                <g id="Vertical_line_bg" transform="translate(59.000000, 362.000000)">
                    <line x1="1801.5" y1="4728.5" x2="1801.5" y2="0.5" id="Line-2-Copy-23"></line>
                    <line x1="1741.5" y1="4728.5" x2="1741.5" y2="0.5" id="Line-2-Copy-27"></line>
                </g>
                <g id="Group" transform="translate(0.000000, 4068.000000)">
                    <line x1="0.5" y1="0.5" x2="1999.5" y2="0.5" id="Line"></line>
                    <line x1="0.5" y1="480.5" x2="1999.5" y2="480.5" id="Line-Copy-4"></line>
                    <line x1="0.5" y1="120.5" x2="1999.5" y2="120.5" id="Line-Copy-2"></line>
                    <line x1="0.5" y1="600.5" x2="1999.5" y2="600.5" id="Line-Copy-5"></line>
                    <line x1="0.5" y1="60.5" x2="1999.5" y2="60.5" id="Line-Copy"></line>
                    <line x1="0.5" y1="540.5" x2="1999.5" y2="540.5" id="Line-Copy-7"></line>
                    <line x1="0.5" y1="180.5" x2="1999.5" y2="180.5" id="Line-Copy-3"></line>
                    <line x1="0.5" y1="660.5" x2="1999.5" y2="660.5" id="Line-Copy-8"></line>
                    <line x1="0.5" y1="241.5" x2="1999.5" y2="241.5" id="Line"></line>
                    <line x1="0.5" y1="721.5" x2="1999.5" y2="721.5" id="Line-Copy-9"></line>
                    <line x1="0.5" y1="361.5" x2="1999.5" y2="361.5" id="Line-Copy-2"></line>
                    <line x1="0.5" y1="301.5" x2="1999.5" y2="301.5" id="Line-Copy"></line>
                    <line x1="0.5" y1="781.5" x2="1999.5" y2="781.5" id="Line-Copy-15"></line>
                    <line x1="0.5" y1="421.5" x2="1999.5" y2="421.5" id="Line-Copy-3"></line>
                    <line x1="0.5" y1="841.5" x2="1999.5" y2="841.5" id="Line-Copy-14"></line>
                    <line x1="0.5" y1="901.5" x2="1999.5" y2="901.5" id="Line-Copy-16"></line>
                    <line x1="0.5" y1="962.5" x2="1999.5" y2="962.5" id="Line-Copy-17"></line>
                </g>
            </g>
        </g>
    </g>
</svg>