<?xml version="1.0" encoding="UTF-8"?>
<svg width="40px" height="33px" viewBox="0 0 40 33" version="1.1" xmlns="http://www.w3.org/2000/svg" xmlns:xlink="http://www.w3.org/1999/xlink">
    <title>Linkedin</title>
    <defs>
        <path d="M11.9790909,5.70625 C13.350303,5.70625 14.4624242,6.82763889 14.4624242,8.21027778 C14.4624242,9.59138889 13.350303,10.7158333 11.9790909,10.7158333 C10.6033333,10.7158333 9.49121212,9.59138889 9.49121212,8.21027778 C9.49121212,6.82763889 10.6033333,5.70625 11.9790909,5.70625 L11.9790909,5.70625 Z" id="path-1"></path>
        <filter x="-100.6%" y="-99.8%" width="381.6%" height="379.5%" filterUnits="objectBoundingBox" id="filter-2">
            <feOffset dx="2" dy="2" in="SourceAlpha" result="shadowOffsetOuter1"></feOffset>
            <feGaussianBlur stdDeviation="2" in="shadowOffsetOuter1" result="shadowBlurOuter1"></feGaussianBlur>
            <feColorMatrix values="0 0 0 0 0.2   0 0 0 0 0.2   0 0 0 0 0.2  0 0 0 0.702305507 0" type="matrix" in="shadowBlurOuter1"></feColorMatrix>
        </filter>
        <polygon id="path-3" points="9.83212121 26.5115278 14.1230303 26.5115278 14.1230303 12.6133333 9.83212121 12.6133333"></polygon>
        <filter x="-116.5%" y="-36.0%" width="426.3%" height="200.7%" filterUnits="objectBoundingBox" id="filter-4">
            <feOffset dx="2" dy="2" in="SourceAlpha" result="shadowOffsetOuter1"></feOffset>
            <feGaussianBlur stdDeviation="2" in="shadowOffsetOuter1" result="shadowBlurOuter1"></feGaussianBlur>
            <feColorMatrix values="0 0 0 0 0.2   0 0 0 0 0.2   0 0 0 0 0.2  0 0 0 0.702305507 0" type="matrix" in="shadowBlurOuter1"></feColorMatrix>
        </filter>
        <path d="M16.8115152,12.6125694 L20.9206061,12.6125694 L20.9206061,14.513125 L20.9781818,14.513125 C21.5493939,13.4192361 22.9478788,12.2672917 25.0342424,12.2672917 C29.3721212,12.2672917 30.1721212,15.1440972 30.1721212,18.8871528 L30.1721212,26.5107639 L25.890303,26.5107639 L25.890303,19.7534028 C25.890303,18.1400694 25.86,16.0684028 23.6630303,16.0684028 C21.4342424,16.0684028 21.0933333,17.8238194 21.0933333,19.6357639 L21.0933333,26.5107639 L16.8115152,26.5107639 L16.8115152,12.6125694 Z" id="path-5"></path>
        <filter x="-37.4%" y="-35.1%" width="204.8%" height="198.3%" filterUnits="objectBoundingBox" id="filter-6">
            <feOffset dx="2" dy="2" in="SourceAlpha" result="shadowOffsetOuter1"></feOffset>
            <feGaussianBlur stdDeviation="2" in="shadowOffsetOuter1" result="shadowBlurOuter1"></feGaussianBlur>
            <feColorMatrix values="0 0 0 0 0.2   0 0 0 0 0.2   0 0 0 0 0.2  0 0 0 0.702305507 0" type="matrix" in="shadowBlurOuter1"></feColorMatrix>
        </filter>
    </defs>
    <g id="Symbols" stroke="none" stroke-width="1" fill="none" fill-rule="evenodd">
        <g id="MainBtn" transform="translate(-10.000000, -67.000000)">
            <g id="Linkedin" transform="translate(10.000000, 67.000000)">
                <rect id="Rectangle" fill="#4B4B4B" x="0" y="0" width="40" height="33" rx="6"></rect>
                <g id="Path">
                    <use fill="black" fill-opacity="1" filter="url(#filter-2)" xlink:href="#path-1"></use>
                    <use fill="#B0B0B0" fill-rule="evenodd" xlink:href="#path-1"></use>
                </g>
                <g id="Path">
                    <use fill="black" fill-opacity="1" filter="url(#filter-4)" xlink:href="#path-3"></use>
                    <use fill="#B0B0B0" fill-rule="evenodd" xlink:href="#path-3"></use>
                </g>
                <g id="Fill-6">
                    <use fill="black" fill-opacity="1" filter="url(#filter-6)" xlink:href="#path-5"></use>
                    <use fill="#B0B0B0" fill-rule="evenodd" xlink:href="#path-5"></use>
                </g>
            </g>
        </g>
    </g>
</svg>