<svg width="40" height="33" xmlns="http://www.w3.org/2000/svg" xmlns:xlink="http://www.w3.org/1999/xlink"><defs><filter x="-100.6%" y="-99.8%" width="381.6%" height="379.5%" filterUnits="objectBoundingBox" id="a"><feOffset dx="2" dy="2" in="SourceAlpha" result="shadowOffsetOuter1"/><feGaussianBlur stdDeviation="2" in="shadowOffsetOuter1" result="shadowBlurOuter1"/><feColorMatrix values="0 0 0 0 0.2 0 0 0 0 0.2 0 0 0 0 0.2 0 0 0 0.702305507 0" in="shadowBlurOuter1"/></filter><filter x="-116.5%" y="-36%" width="426.3%" height="200.7%" filterUnits="objectBoundingBox" id="c"><feOffset dx="2" dy="2" in="SourceAlpha" result="shadowOffsetOuter1"/><feGaussianBlur stdDeviation="2" in="shadowOffsetOuter1" result="shadowBlurOuter1"/><feColorMatrix values="0 0 0 0 0.2 0 0 0 0 0.2 0 0 0 0 0.2 0 0 0 0.702305507 0" in="shadowBlurOuter1"/></filter><filter x="-37.4%" y="-35.1%" width="204.8%" height="198.3%" filterUnits="objectBoundingBox" id="e"><feOffset dx="2" dy="2" in="SourceAlpha" result="shadowOffsetOuter1"/><feGaussianBlur stdDeviation="2" in="shadowOffsetOuter1" result="shadowBlurOuter1"/><feColorMatrix values="0 0 0 0 0.2 0 0 0 0 0.2 0 0 0 0 0.2 0 0 0 0.702305507 0" in="shadowBlurOuter1"/></filter><path d="M11.98 5.706a2.494 2.494 0 012.482 2.504c0 1.381-1.112 2.506-2.483 2.506A2.497 2.497 0 019.491 8.21a2.495 2.495 0 012.488-2.504z" id="b"/><path id="d" d="M9.832 26.512h4.291V12.613h-4.29z"/><path d="M16.812 12.613h4.109v1.9h.057c.571-1.094 1.97-2.246 4.056-2.246 4.338 0 5.138 2.877 5.138 6.62v7.624H25.89v-6.758c0-1.613-.03-3.685-2.227-3.685-2.229 0-2.57 1.756-2.57 3.568v6.875h-4.281V12.613z" id="f"/></defs><g fill="none" fill-rule="evenodd"><rect fill="#4B4B4B" width="40" height="33" rx="6"/><use fill="#000" filter="url(#a)" xlink:href="#b"/><use fill="#B0B0B0" xlink:href="#b"/><use fill="#000" filter="url(#c)" xlink:href="#d"/><use fill="#B0B0B0" xlink:href="#d"/><g><use fill="#000" filter="url(#e)" xlink:href="#f"/><use fill="#B0B0B0" xlink:href="#f"/></g></g></svg>